<svg width="10" height="16" viewBox="0 0 10 16" fill="none" xmlns="http://www.w3.org/2000/svg">
<g clip-path="url(#clip0_34_5763)">
<path d="M7.99132 -1.9733e-06C7.71532 0.0902223 7.52069 0.295052 7.32294 0.50151C5.15585 2.76766 2.9876 5.03218 0.81623 7.29386C0.549578 7.57144 0.42501 7.88681 0.546852 8.26681C0.592398 8.40864 0.68232 8.54845 0.78431 8.65534C3.03081 11.008 5.28042 13.3571 7.53236 15.7041C7.91074 16.0983 8.40005 16.0967 8.78193 15.7106C8.961 15.5298 9.1424 15.3493 9.30317 15.1514C9.57488 14.8177 9.56126 14.3557 9.28721 14.0228C9.24517 13.9716 9.19923 13.9236 9.1533 13.8757C7.32332 11.9647 5.49296 10.0538 3.66221 8.14366C3.62017 8.09977 3.59019 8.09042 3.51039 7.98069C3.56294 7.95062 3.60615 7.9051 3.64703 7.86283C5.49646 5.93523 7.34435 4.00599 9.19145 2.07595C9.53596 1.71587 9.60486 1.21964 9.32108 0.882724C9.03185 0.539307 8.76013 0.162157 8.32025 -1.95892e-06C8.21087 -1.9637e-06 8.10109 -1.9685e-06 7.99132 -1.9733e-06Z" fill="white" fill-opacity="0.6"/>
</g>
<defs>
<clipPath id="clip0_34_5763">
<rect width="16" height="9" fill="white" transform="matrix(4.37114e-08 -1 -1 -4.37114e-08 9.5 16)"/>
</clipPath>
</defs>
</svg>
