<svg width="10" height="16" viewBox="0 0 10 16" fill="none" xmlns="http://www.w3.org/2000/svg">
<g clip-path="url(#clip0_34_5766)">
<path d="M2.00868 -1.9733e-06C2.28468 0.0902223 2.47931 0.295052 2.67706 0.50151C4.84415 2.76766 7.0124 5.03218 9.18377 7.29386C9.45042 7.57144 9.57499 7.88681 9.45315 8.26681C9.4076 8.40864 9.31768 8.54845 9.21569 8.65534C6.96919 11.008 4.71958 13.3571 2.46764 15.7041C2.08926 16.0983 1.59995 16.0967 1.21807 15.7106C1.039 15.5298 0.857601 15.3493 0.696831 15.1514C0.425118 14.8177 0.438742 14.3557 0.712791 14.0228C0.754832 13.9716 0.800767 13.9236 0.846701 13.8757C2.67668 11.9647 4.50704 10.0538 6.33779 8.14366C6.37983 8.09977 6.40981 8.09042 6.48961 7.98069C6.43706 7.95062 6.39385 7.9051 6.35297 7.86283C4.50354 5.93523 2.65565 4.00599 0.808552 2.07595C0.464045 1.71587 0.395143 1.21964 0.678923 0.882724C0.968154 0.539307 1.23987 0.162157 1.67975 -1.95892e-06C1.78913 -1.9637e-06 1.89891 -1.9685e-06 2.00868 -1.9733e-06Z" fill="white" fill-opacity="0.6"/>
</g>
<defs>
<clipPath id="clip0_34_5766">
<rect width="16" height="9" fill="white" transform="translate(0.5 16) rotate(-90)"/>
</clipPath>
</defs>
</svg>
