<svg width="48" height="47" viewBox="0 0 48 47" fill="none" xmlns="http://www.w3.org/2000/svg">
<path fill-rule="evenodd" clip-rule="evenodd" d="M18.1554 18.4442C18.1526 18.4426 18.1497 18.441 18.1469 18.4394L20.2681 14.7494C20.9176 15.1227 21.6557 15.314 22.4048 15.303C23.1539 15.2921 23.8861 15.0793 24.5244 14.6871C25.1627 14.2949 25.6834 13.7378 26.0316 13.0745C26.3799 12.4112 26.5428 11.6663 26.5032 10.9182C26.4636 10.1701 26.223 9.44653 25.8067 8.8237C25.3904 8.20087 24.8138 7.70185 24.1377 7.37921C23.4616 7.05657 22.711 6.92225 21.9649 6.9904C21.2189 7.05855 20.505 7.32665 19.8986 7.76646L17.3998 4.32092C18.626 3.43169 20.0693 2.88962 21.5777 2.75183C23.0861 2.61404 24.6038 2.88561 25.9708 3.53795C27.3378 4.19029 28.5035 5.19924 29.3452 6.45851C30.1869 7.71778 30.6734 9.18075 30.7535 10.6933C30.8335 12.2059 30.5041 13.712 29.8 15.0531C29.0959 16.3942 28.0431 17.5205 26.7526 18.3135C25.6961 18.9626 24.5122 19.3687 23.2865 19.5068C23.7852 20.6422 24.0282 21.8771 23.9941 23.1233C23.9526 24.6374 23.5036 26.1123 22.6942 27.3926C21.8849 28.6729 20.7452 29.7112 19.3953 30.3982C18.0453 31.0852 16.5351 31.3953 15.0237 31.296C13.5123 31.1967 12.0556 30.6916 10.8072 29.8339C9.55876 28.9763 8.56475 27.7977 7.92988 26.4225C7.29502 25.0473 7.04281 23.5263 7.19981 22.0198L11.4331 22.461C11.3554 23.2061 11.4802 23.9584 11.7942 24.6386C12.1082 25.3187 12.5998 25.9016 13.2173 26.3258C13.8348 26.75 14.5552 26.9999 15.3028 27.049C16.0503 27.0981 16.7972 26.9447 17.4649 26.6049C18.1326 26.2652 18.6963 25.7516 19.0966 25.1184C19.4968 24.4851 19.7189 23.7556 19.7395 23.0068C19.76 22.2579 19.5781 21.5174 19.2131 20.8632C18.848 20.209 18.3133 19.6654 17.6652 19.2896L18.1554 18.4442Z" fill="#F53756"/>
<path d="M17.3078 11.4823C17.2119 13.1124 16.6443 14.6794 15.6739 15.9927C14.7035 17.3059 13.3723 18.3087 11.8423 18.8791C10.3123 19.4494 8.64946 19.5626 7.05625 19.205C5.46304 18.8473 4.00817 18.0342 2.86875 16.8646C1.72933 15.695 0.954506 14.2194 0.638599 12.6173C0.322691 11.0153 0.479329 9.35603 1.08944 7.84144C1.69956 6.32684 2.73683 5.02228 4.07499 4.08657C5.41315 3.15086 6.99448 2.62435 8.62647 2.57114L8.76289 6.75531C7.94218 6.78207 7.14695 7.04684 6.47401 7.5174C5.80106 7.98796 5.27943 8.644 4.97262 9.40567C4.6658 10.1673 4.58703 11.0018 4.74589 11.8074C4.90476 12.613 5.29441 13.3551 5.86741 13.9433C6.44041 14.5315 7.17204 14.9404 7.97324 15.1202C8.77444 15.3001 9.61066 15.2432 10.3801 14.9563C11.1495 14.6695 11.819 14.1652 12.3069 13.5048C12.7949 12.8444 13.0804 12.0564 13.1286 11.2366L17.3078 11.4823Z" fill="#F53756"/>
<path d="M30.7482 34.8504C30.781 35.9769 30.5875 37.0985 30.179 38.1488C29.7705 39.1991 29.1553 40.1567 28.3699 40.9649C27.5846 41.7731 26.645 42.4155 25.6068 42.8539C24.5687 43.2924 23.4531 43.518 22.3261 43.5174C21.1992 43.5169 20.0838 43.2901 19.0461 42.8506C18.0084 42.4111 17.0695 41.7678 16.2849 40.9588C15.5003 40.1498 14.8861 39.1916 14.4787 38.1409C14.0712 37.0902 13.8788 35.9684 13.9128 34.8419L18.0973 34.9683C18.0802 35.5347 18.177 36.0989 18.3819 36.6272C18.5868 37.1556 18.8956 37.6375 19.2902 38.0443C19.6847 38.4512 20.1569 38.7747 20.6788 38.9957C21.2006 39.2167 21.7615 39.3308 22.3282 39.331C22.895 39.3313 23.456 39.2179 23.978 38.9974C24.5001 38.7769 24.9726 38.4538 25.3676 38.0474C25.7625 37.641 26.0719 37.1594 26.2773 36.6312C26.4828 36.103 26.5801 35.539 26.5636 34.9725L30.7482 34.8504Z" fill="#F53756"/>
<path fill-rule="evenodd" clip-rule="evenodd" d="M37.1852 3.08047C35.7891 2.84994 34.3574 2.9749 33.0223 3.44383L34.4097 7.39365C35.0811 7.15784 35.801 7.09499 36.5031 7.21092C37.2052 7.32686 37.8668 7.61783 38.4267 8.05697C38.9866 8.49611 39.4269 9.06926 39.7068 9.72348C39.9867 10.3777 40.0972 11.0919 40.0282 11.8001C39.9592 12.5084 39.7128 13.1878 39.3118 13.7757C38.9109 14.3635 38.3682 14.8409 37.7341 15.1637C37.0999 15.4864 36.3946 15.6442 35.6833 15.6224C34.9721 15.6005 34.2778 15.3999 33.6646 15.0389L33.3092 15.6425C33.3027 15.6388 33.2963 15.6351 33.2898 15.6314L32.6027 16.8425L31.5407 18.6465C31.5503 18.6522 31.56 18.6578 31.5697 18.6635L31.2241 19.2727C31.7139 19.5505 32.1434 19.9233 32.4874 20.3692C32.8314 20.815 33.0831 21.325 33.2276 21.8693C33.3721 22.4135 33.4067 22.9812 33.3292 23.539C33.2517 24.0967 33.0637 24.6335 32.7763 25.1177C32.4889 25.602 32.1078 26.0241 31.6553 26.3593C31.2028 26.6945 30.6879 26.9361 30.1409 27.0699C29.5939 27.2037 29.0257 27.2271 28.4696 27.1387C27.9134 27.0503 27.3805 26.8519 26.9019 26.555L24.695 30.1124C25.6466 30.7028 26.7064 31.0974 27.8123 31.2732C28.9182 31.449 30.0481 31.4025 31.1358 31.1364C32.2236 30.8702 33.2473 30.3898 34.1471 29.7233C35.047 29.0567 35.8048 28.2174 36.3764 27.2544C36.9479 26.2915 37.3217 25.2242 37.4758 24.115C37.6298 23.0058 37.5612 21.8771 37.2737 20.7948C37.178 20.4343 37.0586 20.0813 36.9167 19.7381C37.8601 19.6134 38.7789 19.3293 39.6329 18.8946C40.894 18.2528 41.973 17.3036 42.7703 16.1346C43.5677 14.9656 44.0576 13.6146 44.1948 12.2062C44.3321 10.7979 44.1123 9.37768 43.5557 8.07674C42.9991 6.7758 42.1236 5.63608 41.0102 4.76285C39.8968 3.88961 38.5813 3.31101 37.1852 3.08047Z" fill="#F53756"/>
</svg>
