<svg width="122" height="132" viewBox="0 0 122 132" fill="none" xmlns="http://www.w3.org/2000/svg">
<path d="M48.7664 131.642C37.4534 131.642 28.2402 122.429 28.2402 111.116C28.2402 109.659 29.4401 108.459 30.8971 108.459C32.354 108.459 33.5539 109.659 33.5539 111.116C33.5539 119.515 40.3674 126.328 48.7664 126.328C57.1654 126.328 63.9788 119.515 63.9788 111.116C63.9788 109.659 65.1787 108.459 66.6357 108.459C68.0926 108.459 69.2925 109.659 69.2925 111.116C69.2497 122.429 60.0793 131.642 48.7664 131.642Z" fill="#F53756"/>
<path d="M76.9194 76.7906C71.6058 76.7906 66.635 74.7765 62.8211 71.1769C59.0501 74.7765 54.0365 76.7906 48.7228 76.7906C43.4091 76.7906 38.4383 74.7765 34.6245 71.1769C30.8535 74.7765 25.8398 76.7906 20.5261 76.7906C9.21319 76.7906 0 67.5773 0 56.2644C0 44.9514 9.21319 35.7383 20.5261 35.7383C25.8398 35.7383 30.8106 37.7523 34.6245 41.3519C38.3954 37.7523 43.4091 35.7383 48.7228 35.7383C54.0365 35.7383 59.0073 37.7523 62.8211 41.3519C66.5921 37.7523 71.6058 35.7383 76.9194 35.7383C88.2324 35.7383 97.4456 44.9514 97.4456 56.2644C97.4456 67.5773 88.2324 76.7906 76.9194 76.7906ZM62.8211 64.6206C63.6353 64.6206 64.4066 65.0062 64.9209 65.649C67.8348 69.3771 72.2057 71.5198 76.9194 71.5198C85.3184 71.5198 92.1319 64.7063 92.1319 56.3073C92.1319 47.9083 85.3184 41.0948 76.9194 41.0948C72.2057 41.0948 67.8348 43.2374 64.9209 46.9655C63.9353 48.2511 61.7498 48.2511 60.7642 46.9655C57.8503 43.2374 53.4794 41.0948 48.7657 41.0948C44.0519 41.0948 39.681 43.2374 36.7671 46.9655C35.7815 48.2511 33.596 48.2511 32.6104 46.9655C29.6965 43.2374 25.3256 41.0948 20.6119 41.0948C12.2129 41.0948 5.39937 47.9083 5.39937 56.3073C5.39937 64.7063 12.2129 71.5198 20.6119 71.5198C25.3256 71.5198 29.6965 69.3771 32.6104 65.649C33.596 64.3634 35.7815 64.3634 36.7671 65.649C39.681 69.3771 44.0519 71.5198 48.7657 71.5198C53.4794 71.5198 57.8503 69.3771 60.7642 65.649C61.2356 64.9634 62.0069 64.6206 62.8211 64.6206Z" fill="#F53756"/>
<path d="M62.8634 104.216C57.5498 104.216 52.5789 102.202 48.7651 98.6026C44.9941 102.202 39.9804 104.216 34.6668 104.216C23.3538 104.216 14.1406 95.003 14.1406 83.6901C14.1406 82.2331 15.3405 81.0332 16.7975 81.0332C18.2544 81.0332 19.4543 82.2331 19.4543 83.6901C19.4543 92.0891 26.2678 98.9026 34.6668 98.9026C39.3805 98.9026 43.7514 96.7599 46.6654 93.0318C47.6509 91.7462 49.8364 91.7462 50.822 93.0318C53.7359 96.7599 58.1068 98.9026 62.8206 98.9026C71.2196 98.9026 78.0331 92.0891 78.0331 83.6901C78.0331 82.2331 79.2329 81.0332 80.6899 81.0332C82.1468 81.0332 83.3467 82.2331 83.3467 83.6901C83.3895 95.003 74.1764 104.216 62.8634 104.216Z" fill="#F53756"/>
<path d="M48.7664 41.0523C37.4534 41.0523 28.2402 31.8391 28.2402 20.5261C28.2402 9.21319 37.4534 0 48.7664 0C55.1085 0 61.022 2.87111 64.9216 7.92766C65.8215 9.08466 65.6072 10.7559 64.4502 11.6558C63.2932 12.5557 61.622 12.3414 60.7221 11.1844C57.8082 7.45626 53.4372 5.31368 48.7235 5.31368C40.3245 5.31368 33.5111 12.1271 33.5111 20.5261C33.5111 28.9251 40.3245 35.7386 48.7235 35.7386C50.1805 35.7386 51.3803 36.9385 51.3803 38.3955C51.3803 39.8953 50.2233 41.0523 48.7664 41.0523Z" fill="#F53756"/>
<path d="M96.3322 114.672C95.7322 114.672 85.7048 114.586 80.9482 108.801C80.0055 107.687 80.1769 106.015 81.3339 105.073C82.4481 104.13 84.1193 104.301 85.062 105.458C86.9475 107.772 90.8042 108.801 93.6325 109.187L93.4182 103.273C93.3753 102.287 93.8895 101.387 94.7466 100.873C95.6036 100.402 96.6321 100.402 97.4891 100.916C100.874 103.016 108.674 106.658 112.444 105.116C113.987 101.345 110.388 93.5456 108.245 90.2031C107.731 89.389 107.688 88.3176 108.202 87.4606C108.673 86.6035 109.573 86.0893 110.602 86.1322L116.515 86.3464C116.13 83.5182 115.101 79.6615 112.787 77.776C107.902 73.7908 102.76 74.6478 102.717 74.6478C101.432 74.9049 100.189 74.2193 99.7174 73.0194C99.2461 71.8196 99.7174 70.4483 100.832 69.8055L107.217 65.9489C106.102 64.6633 104.517 62.9921 102.589 61.4066C101.474 60.4638 101.303 58.7925 102.246 57.6784C103.188 56.5642 104.86 56.3928 105.974 57.3356C110.388 61.0208 113.216 64.9633 113.344 65.1347C113.773 65.7346 113.944 66.506 113.773 67.2344C113.601 67.9629 113.173 68.5628 112.53 68.9485L110.173 70.3626C112.059 71.0054 114.073 72.0767 116.087 73.7051C121.958 78.5045 122 88.7033 122 89.1318C122 89.8603 121.701 90.5459 121.186 91.0173C120.672 91.5315 120.029 91.7886 119.258 91.7458L114.973 91.6172C117.158 96.2452 119.687 103.616 116.601 108.544C116.387 108.887 116.13 109.144 115.787 109.358C110.859 112.443 103.531 109.958 98.8604 107.73L98.989 112.015C99.0318 112.743 98.7319 113.429 98.2605 113.943C97.7463 114.372 97.0606 114.672 96.3322 114.672Z" fill="#F53756"/>
</svg>
