<svg width="272" height="53" viewBox="0 0 272 53" fill="none" xmlns="http://www.w3.org/2000/svg">
<path d="M72.0973 28.9064C72.2663 28.9306 72.4354 28.979 72.6045 29.0273C72.3629 29.0514 72.1214 29.0997 71.8799 29.0997C69.7061 29.0031 67.5081 28.9065 65.3343 28.7857C60.9868 28.5442 56.6392 28.52 52.3158 28.9789C48.3547 29.4137 44.4902 30.3073 40.674 31.4909C36.3022 32.8434 32.1962 34.7757 28.2109 36.9978C27.6071 37.3359 27.0274 37.7465 26.4478 38.133C26.2787 38.2537 26.0854 38.3745 26.1579 38.6644C26.2786 38.6885 26.3995 38.7368 26.5202 38.7126C30.6263 37.9397 34.7806 37.819 38.9349 37.8432C43.5482 37.8673 48.1856 37.7707 52.7988 37.7224C54.1514 37.6983 55.4798 37.505 56.8083 37.2393C60.1656 36.563 63.4746 35.7177 66.5662 34.1719C67.7497 33.5681 68.8849 32.9159 70.0442 32.2638C70.7688 31.8773 71.4693 31.4909 72.1697 31.0803C73.3532 30.404 74.6333 29.9934 75.9134 29.6069C76.2033 29.5345 76.5173 29.5103 76.8071 29.5103C78.0148 29.5344 79.2224 29.5828 80.4301 29.6069C84.5361 29.7518 88.6422 29.5827 92.7482 29.1238C93.2313 29.0755 93.7144 29.0031 94.1974 28.8823C95.4534 28.5925 96.7094 28.4476 97.9895 28.2543C99.2213 28.0853 100.477 27.892 101.709 27.6988C101.951 27.6746 102.216 27.6505 102.458 27.6505C100.212 28.4234 97.9894 29.1963 95.7432 29.9692C92.4342 31.1285 89.1736 32.4087 86.0578 34.0753C80.6233 36.9978 75.841 40.7416 71.8799 45.4997C70.0201 47.746 68.1119 49.9922 66.228 52.2143C66.0831 52.3834 65.8899 52.5283 65.9141 52.794C66.059 53.0114 66.2522 52.9147 66.4213 52.8423C67.5565 52.4317 68.7158 52.0452 69.8269 51.5863C72.2905 50.5719 74.7782 49.5333 77.1936 48.4223C80.6475 46.8523 83.9323 44.9925 87.1447 42.9394C88.4489 42.0941 89.7049 41.1521 90.8401 40.0894C91.8787 39.1233 92.869 38.133 93.8834 37.1427C95.5017 35.5486 97.0716 33.882 98.7865 32.3845C100.574 30.8387 102.361 29.2688 104.366 28.0128C104.728 27.7954 105.091 27.5781 105.453 27.3849C106.081 27.0226 106.757 26.8051 107.482 26.6602C112.022 25.7666 116.539 24.7762 121.007 23.6169C124.123 22.7957 127.239 21.9262 130.306 20.9359C133.712 19.849 137.142 18.8104 140.572 17.7477C142.311 17.2163 144.025 16.6849 145.789 16.226C147.359 15.8154 149.001 15.6705 150.619 15.7671C150.861 15.7913 151.126 15.7671 151.344 15.7671C151.585 15.4048 151.585 15.4048 151.658 15.0184C151.803 14.8976 151.972 14.801 152.141 14.6561C152.093 14.5595 152.093 14.4629 152.044 14.4629C151.875 14.3904 151.706 14.3179 151.537 14.2696C151.344 14.1972 151.126 14.173 150.933 14.0764C150.547 13.8832 150.16 13.9073 149.774 14.0281C146.296 15.1874 142.697 15.9845 139.122 16.8299C135.596 17.6752 132.094 18.6414 128.664 19.8249C127.577 20.1872 126.49 20.5011 125.403 20.8393C124.461 21.1291 123.544 21.4431 122.626 21.7571C122.312 21.8537 121.998 21.9504 121.708 22.0711C121.08 22.3127 120.452 22.3368 119.8 22.1194C118.544 21.7571 117.336 21.2983 116.153 20.7427C113.448 19.4626 110.96 17.8927 108.593 16.057C107.047 14.8735 105.429 13.7866 103.835 12.6755C102.168 11.5162 100.501 10.4051 98.8107 9.29408C98.0136 8.76271 97.1924 8.27968 96.3712 7.82077C95.0669 7.09617 93.7385 6.41984 92.4342 5.74356C89.4875 4.19775 86.3959 2.96595 83.256 1.90321C81.6619 1.37184 80.1161 0.768029 78.5461 0.188352C78.3771 0.115893 78.208 0.0434155 78.0148 0.0192624C77.7732 -0.029044 77.5559 -0.00490263 77.3868 0.309089C77.411 0.429855 77.4351 0.574806 77.5076 0.719725C77.5317 0.816338 77.6042 0.888812 77.6525 0.961272C79.0292 2.86937 80.3818 4.77744 81.7826 6.66139C83.2801 8.6661 85.1158 10.3327 87.0481 11.9268C89.0528 13.5692 91.1783 14.9943 93.5211 16.1295C95.864 17.2647 98.2069 18.424 100.55 19.5109C102.096 20.2355 103.69 20.791 105.332 21.2016C107.82 21.8054 110.259 22.5542 112.795 22.9165C113.592 23.0373 114.414 23.1338 115.211 23.2546C115.476 23.3029 115.742 23.3754 116.008 23.4237C115.211 23.6169 114.414 23.8585 113.592 24.0275C112.119 24.3174 110.67 24.7521 109.197 25.1386C105.839 26.0322 102.434 26.6119 99.0039 27.1191C97.3373 27.3607 95.6949 27.5297 94.0042 27.5539C91.1541 27.6022 88.4006 27.0709 85.7196 26.2497C83.7874 25.6458 81.9759 24.728 80.2369 23.7135C77.894 22.3368 75.8168 20.6461 73.8604 18.7863C70.9862 16.0328 68.112 13.3035 65.0687 10.7675C62.122 8.30383 58.9579 6.13005 55.4074 4.58425C54.3688 4.12534 53.3061 3.71474 52.2434 3.30413C51.9777 3.20752 51.6636 3.0626 51.4463 3.37659C51.3738 3.64228 51.4946 3.81132 51.6395 3.95624C53.6442 6.46817 55.6247 8.98007 57.6295 11.4678C59.3926 13.6899 61.494 15.5981 63.6195 17.482C65.0445 18.738 66.4937 19.9698 68.0637 21.0567C70.0442 22.4575 72.1697 23.6169 74.3918 24.5589C75.213 24.9212 76.0584 25.2835 76.9037 25.6216C79.1983 26.5153 81.5412 27.2882 83.9565 27.7712C84.1014 27.7954 84.2221 27.8437 84.512 27.9162C84.2463 27.9645 84.1014 27.9886 83.9565 28.0128C83.2319 28.0853 82.5314 28.1577 81.8068 28.2302C81.5653 28.2543 81.2755 28.3026 81.0581 28.2302C80.4543 28.0369 79.8504 28.0852 79.2708 28.2302C78.6428 28.3992 78.0389 28.3751 77.4109 28.2785C75.5028 28.037 73.5947 27.7954 71.6625 27.6263C69.1022 27.3848 66.6145 26.9259 64.1509 26.2013C63.0157 25.8632 61.8563 25.6458 60.6728 25.4284C58.1367 24.9695 55.6489 24.269 53.1853 23.5444C52.7988 23.4237 52.4365 23.3029 52.0501 23.2063C50.5526 22.844 49.2484 22.1194 48.0165 21.2258C47.3886 20.791 46.8571 20.2355 46.3016 19.7041C45.5046 18.9312 44.7075 18.1341 43.9829 17.2888C43.0651 16.2502 42.1714 15.1633 41.3261 14.0523C39.3938 11.4679 37.1959 9.14917 34.7081 7.1203C33.5488 6.17833 32.2445 5.45376 30.9402 4.72916C29.0563 3.69058 27.1723 2.70027 25.2884 1.68584C24.6846 1.34769 24.0324 1.05784 23.4044 0.768005C23.1871 0.671392 22.9213 0.598968 22.6798 0.502355C22.559 0.623121 22.4624 0.719722 22.39 0.792182C22.4141 0.888795 22.4142 0.985422 22.4383 1.03373C23.5735 2.55538 24.5155 4.22192 25.4091 5.91264C26.6168 8.2555 28.2109 10.2844 30.0224 12.1683C30.5779 12.748 31.2542 13.2311 31.9063 13.7141C32.8483 14.3904 33.7903 15.0667 34.7564 15.6947C36.2297 16.6608 37.7997 17.482 39.3938 18.2308C39.9494 18.4965 40.5049 18.7863 40.9155 19.0037C38.3794 18.3033 35.795 17.2405 33.0657 16.5884C31.0127 16.1053 28.9597 15.8155 26.8583 15.743C23.2354 15.6222 19.6124 15.8638 16.0136 16.2502C10.8206 16.8057 5.72428 17.8685 0.724566 19.2935C0.579647 19.3418 0.410569 19.3659 0.26565 19.4625C0.169037 19.535 0.0966127 19.6558 0 19.8007C0.169072 19.8973 0.265694 19.9939 0.38646 20.0181C1.73904 20.3321 3.04332 20.8635 4.32344 21.3948C5.45864 21.8538 6.59385 22.361 7.72905 22.844C8.45364 23.158 9.17817 23.472 9.92692 23.7135C11.4003 24.1966 12.9219 24.5589 14.4677 24.7763C16.1343 25.0178 17.8009 25.1386 19.4675 25.1869C21.8828 25.2594 24.2981 25.2352 26.7134 24.9695C30.5296 24.5831 34.3216 24.0034 38.0895 23.3754C40.6498 22.9407 43.2342 22.6991 45.8669 22.6991C47.4851 22.6991 49.0309 22.9648 50.5526 23.5928C55.5282 25.6458 60.6969 27.095 66.0106 27.9403C68.0395 28.3268 70.0684 28.5925 72.0973 28.9064ZM6.88367 22.1678C7.22182 22.2402 7.5841 22.3368 7.92224 22.4334C9.22651 22.8199 10.5307 23.0614 11.8833 23.1339C13.0427 23.2063 14.202 23.2788 15.3614 23.3995C17.7526 23.6411 20.1437 23.6169 22.5591 23.5203C22.5832 23.5445 22.6074 23.5444 22.6557 23.5444C22.9938 23.5203 23.3319 23.4962 23.6701 23.4479C23.7184 23.4479 23.7667 23.4479 23.815 23.4237C24.9502 23.3271 26.0613 23.2305 27.1965 23.1339C29.8775 22.8923 32.5343 22.5784 35.2153 22.4576C37.051 22.3851 38.8866 22.4093 40.7222 22.4576C40.2392 22.5542 39.7562 22.6266 39.2731 22.7232C34.998 23.472 30.6987 24.1 26.3752 24.5589C24.9502 24.7038 23.501 24.8729 22.076 24.8729C18.7187 24.8729 15.4098 24.5589 12.1008 23.8826C10.2893 23.5203 8.5744 22.8924 6.88367 22.1678ZM5.91756 21.5398C11.038 22.1919 16.1585 22.6025 21.3031 22.7716C21.3997 22.7716 21.4239 22.6991 21.4239 22.6267C22.7523 22.6267 24.1049 22.6025 25.4333 22.53C28.38 22.3851 31.3025 22.216 34.2492 22.047C34.6115 22.0228 34.9738 22.0712 35.3602 22.0953C35.5776 22.0712 35.8191 22.0228 36.0365 21.9987C37.0509 21.9745 38.0896 21.9262 39.104 21.9504C40.0218 21.9504 40.9638 22.0228 41.8816 22.0711C42.0265 22.0711 42.1714 22.1436 42.3164 22.1919C42.1231 22.216 41.9058 22.2402 41.7125 22.2643C40.6256 22.1919 39.5388 22.1677 38.4277 22.1436C37.6307 22.1436 36.8336 22.1436 36.0124 22.1678C35.9883 22.1678 35.9641 22.1678 35.9641 22.1678C35.7708 22.1678 35.5535 22.1194 35.3602 22.1194C35.3119 22.1436 35.2636 22.1677 35.2395 22.216C35.0946 22.216 34.9496 22.2402 34.7806 22.2402C34.7323 22.2402 34.684 22.2402 34.6357 22.2402C33.3314 22.3127 32.0271 22.4093 30.6987 22.5542C27.9935 22.8199 25.2884 23.0856 22.5832 23.3512C22.5591 23.3512 22.559 23.3512 22.5349 23.3512C20.3853 23.4479 18.2598 23.3995 16.1101 23.2546C14.7092 23.158 13.3084 22.989 11.8833 22.9165C9.80615 22.7957 7.84981 22.1919 5.91756 21.5398ZM3.76789 20.8152C4.39587 20.8393 4.99973 20.9118 5.60356 20.9601C7.63242 21.105 9.66129 21.2258 11.7143 21.3466C11.9558 21.3707 12.1732 21.3707 12.4147 21.3707C16.2309 21.3224 20.0471 21.2982 23.8875 21.2499C23.9599 21.2499 24.0324 21.2258 24.1049 21.2258C24.3947 21.2258 24.6845 21.2258 24.9744 21.2258C24.9985 21.2258 25.0469 21.2258 25.071 21.2258C26.6168 21.2258 28.1626 21.2258 29.7084 21.2258C32.486 21.2499 35.2878 21.2982 38.0654 21.3224C38.1379 21.3224 38.162 21.2982 38.1862 21.2499C39.9494 21.3224 41.6884 21.4673 43.4275 21.7813C44.3936 21.9504 45.3596 22.0711 46.3016 22.216C46.519 22.2402 46.7122 22.3126 46.9054 22.361C46.4707 22.3368 46.0601 22.361 45.6253 22.3127C43.0168 21.9745 40.4082 21.7571 37.7755 21.8054C34.4183 21.8779 31.0368 22.0711 27.6795 22.2402C24.5155 22.4093 21.3756 22.4575 18.2115 22.4092C13.6949 22.1435 9.17824 21.733 4.7099 21.1533C4.42006 21.0084 4.08188 20.9118 3.76789 20.8152ZM44.6592 21.6364C44.6834 21.6122 44.6834 21.5881 44.7076 21.5639C44.9491 21.6605 45.1906 21.733 45.4321 21.8296C45.1423 21.7571 44.9007 21.6847 44.6592 21.6364ZM43.9829 21.4431C44.0554 21.4914 44.1278 21.5156 44.2003 21.5639C44.1037 21.6122 44.0312 21.5639 43.9829 21.4431ZM2.4395 20.0905C3.42978 20.0181 4.42001 19.9457 5.41029 19.8974C7.89807 19.7766 10.3859 19.8007 12.8978 19.8007C15.4339 19.8007 17.9699 19.7765 20.506 19.7765C20.5302 19.7765 20.5543 19.7766 20.5785 19.7524C20.82 19.7524 21.0374 19.7524 21.2789 19.7765C23.1871 19.849 25.1193 20.0664 27.0274 20.1872C29.6843 20.3563 32.3411 20.4529 34.9979 20.791C35.2636 20.8152 35.5052 20.8876 35.7467 20.9359C35.5052 20.9601 35.2636 20.9601 34.9979 20.9842C30.9161 20.9117 26.8341 20.9842 22.7523 21.0567C22.704 21.0567 22.6799 21.0809 22.6557 21.105C22.2934 21.105 21.9553 21.1291 21.593 21.1291C18.5013 21.1291 15.4338 21.1533 12.3422 21.1533C11.835 21.1533 11.3279 21.105 10.8207 21.0808C9.41977 21.0084 7.99473 20.9118 6.59385 20.8152C5.31373 20.7427 4.05769 20.622 2.82588 20.2838C2.70512 20.2114 2.53611 20.1872 2.4395 20.0905ZM39.7561 19.1727C39.6595 19.1727 39.5387 19.1728 39.4421 19.1486C36.6162 18.2791 33.742 17.6511 30.7953 17.3371C29.8533 17.2405 28.9355 17.1197 27.9935 17.0231C27.9935 16.999 27.9694 16.9507 27.9211 16.9507C26.5443 16.9265 25.1676 16.8299 23.7667 16.8058C22.4141 16.7816 21.0374 16.7816 19.6848 16.8299C18.6945 16.854 17.7284 16.9024 16.7381 16.9507C16.9072 16.9024 17.0763 16.854 17.2453 16.8299C20.7717 16.4193 24.3222 16.2985 27.8969 16.4434C29.7325 16.5159 31.544 16.7333 33.3314 17.2405C34.3216 17.5062 35.3119 17.7477 36.2781 18.0375C37.4616 18.3515 38.6209 18.7621 39.7561 19.1727ZM40.3841 19.3176C40.36 19.3659 40.36 19.3901 40.3358 19.4384L39.8528 19.1969C40.0218 19.2452 40.1909 19.2935 40.3841 19.3176ZM41.8092 20.1389C40.674 19.8974 39.5387 19.68 38.3794 19.5109C38.3794 19.4626 38.3553 19.4143 38.2828 19.4143C36.8578 19.221 35.4569 19.052 34.0318 18.9071C33.9835 18.9071 33.9352 18.8829 33.8627 18.8829C33.7661 18.8587 33.6695 18.8587 33.5729 18.8587C33.2589 18.8346 32.9208 18.8105 32.6068 18.7622C32.0996 18.6414 31.5924 18.5931 31.0851 18.6172C30.8195 18.5931 30.5538 18.5689 30.2881 18.5448C30.2157 18.5448 30.119 18.5206 30.0466 18.5206C29.6843 18.4965 29.3219 18.4723 28.9596 18.4482C28.9596 18.4482 28.9597 18.4482 28.9355 18.4482C27.6071 18.3757 26.2545 18.3032 24.9261 18.2549C24.6121 18.1583 24.3223 18.1342 24.0083 18.2308C23.7667 18.2308 23.5252 18.2066 23.2836 18.2066C22.5349 18.0617 21.7862 18.0617 21.0374 18.1824C20.5302 18.1824 19.9989 18.1824 19.4916 18.1824C19.1293 18.1341 18.767 18.11 18.4289 18.2066C17.97 18.2066 17.5111 18.2308 17.0521 18.2308C16.7623 18.2066 16.4725 18.2066 16.2068 18.2549C16.0618 18.2549 15.9169 18.2549 15.772 18.2549C15.6513 18.2549 15.5305 18.2791 15.4097 18.2791C15.1199 18.2308 14.8301 18.2308 14.5644 18.3274C14.3711 18.3274 14.1779 18.3515 14.0088 18.3515C13.8397 18.3032 13.6707 18.3274 13.5016 18.3757C13.3809 18.3757 13.2359 18.3757 13.1152 18.3999C12.9944 18.3757 12.8736 18.3998 12.7529 18.424C12.5838 18.424 12.4147 18.4482 12.2215 18.4482C12.1249 18.4482 12.0525 18.4482 11.9559 18.4723C11.7626 18.4723 11.5935 18.4965 11.4003 18.5206C11.3278 18.5206 11.2312 18.5206 11.1588 18.5448C10.9655 18.5689 10.7964 18.5689 10.6032 18.5931C10.5066 18.5931 10.4342 18.5931 10.3617 18.6172C10.1685 18.6414 9.97524 18.6414 9.78201 18.6655C9.70955 18.6655 9.6371 18.6655 9.56464 18.6897C9.39557 18.7139 9.22652 18.7138 9.05744 18.738C9.03329 18.738 9.00914 18.738 8.98499 18.738C8.57438 18.7621 8.18793 18.8104 7.77733 18.8587C7.72902 18.8587 7.70482 18.8587 7.65652 18.8587C7.5116 18.8829 7.3667 18.8829 7.22178 18.9071H7.19768C5.74848 19.052 4.29925 19.2211 2.85006 19.4384C2.99498 19.3901 3.16408 19.3418 3.33315 19.2935C6.52137 18.4965 9.78203 17.9892 13.0427 17.5303C15.3131 17.3612 17.5835 17.2164 19.8539 17.1198C21.1823 17.0715 22.5349 17.0472 23.8634 17.0472C24.4672 17.0472 25.071 17.0472 25.6748 17.0472C25.699 17.0472 25.699 17.0472 25.7231 17.0472C27.0274 17.168 28.3076 17.2405 29.6118 17.3612C33.4763 17.7235 37.2684 18.5689 40.9397 19.8007C41.2054 19.9215 41.5193 20.0181 41.8092 20.1389ZM44.5627 21.4915C44.5868 21.5398 44.611 21.5881 44.6351 21.6122C44.4902 21.5881 44.3452 21.5639 44.2003 21.5398C44.1761 21.3948 44.0796 21.3949 43.9588 21.419C43.2584 21.3466 42.5821 21.2982 41.8816 21.2258C37.0751 20.7185 32.2928 20.163 27.4622 19.9456C25.385 19.849 23.2837 19.5834 21.2065 19.5351C20.9891 19.5351 20.7959 19.5351 20.5785 19.5351C20.5543 19.5351 20.5544 19.5109 20.5302 19.5109C20.2404 19.5109 19.9505 19.5109 19.6607 19.5109C16.9072 19.4626 14.1537 19.4867 11.3761 19.4625C11.3278 19.4625 11.2553 19.4626 11.207 19.4867C10.3375 19.4867 9.46802 19.4867 8.57435 19.4867C6.44887 19.4867 4.32343 19.68 2.19795 19.8732C2.1738 19.8732 2.14965 19.849 2.12549 19.849C2.24626 19.8007 2.39119 19.7524 2.51195 19.7283C4.85481 19.4384 7.19768 19.1969 9.54054 19.0037C14.347 18.5931 19.1776 18.4481 23.9841 18.5689C27.6554 18.6655 31.3267 18.8829 34.9738 19.2452C35.795 19.3659 36.6404 19.5109 37.4616 19.68C39.418 20.0906 41.3502 20.5253 43.3066 20.9601C43.7414 21.1533 44.1521 21.3466 44.5627 21.4915ZM25.9647 6.08173C26.1096 6.22665 26.2545 6.39568 26.3752 6.56475C28.0901 8.83515 30.0707 10.864 32.1479 12.7721C33.1865 13.7383 34.2975 14.6078 35.5293 15.3324C36.5196 15.9362 37.5099 16.54 38.5002 17.1439L38.4518 17.2163C37.4857 16.6849 36.4955 16.2019 35.5535 15.6464C34.3941 14.9459 33.3073 14.1488 32.1721 13.4242C31.375 12.917 30.6021 12.3374 29.9499 11.6611C28.7423 10.4293 27.7037 9.05256 26.7376 7.65168C26.3994 7.14446 26.1096 6.61308 25.7956 5.9851C25.8922 6.05756 25.9405 6.05758 25.9647 6.08173ZM24.5637 3.44905C26.0612 4.80162 27.5588 6.15415 28.8631 7.69996C29.6601 8.66608 30.5296 9.55981 31.3991 10.4776C32.0996 11.2022 32.8 11.8785 33.5487 12.5548C34.225 13.1586 34.9013 13.7383 35.6018 14.318C36.4471 14.9943 37.3166 15.6705 38.162 16.3468C38.5726 16.685 38.9832 17.0231 39.4421 17.313C40.2392 17.796 41.0604 18.2308 41.8574 18.6897C42.0748 18.8105 42.2922 18.907 42.5337 19.0278C41.7608 18.7138 40.9879 18.3516 40.2633 17.941C39.2247 17.3613 38.2345 16.7333 37.2201 16.1053C36.3022 15.5498 35.3844 14.9943 34.5149 14.3904C32.5344 12.9896 30.8194 11.2747 29.177 9.53562C27.8486 8.13474 26.6651 6.61309 25.4091 5.1639C24.9985 4.65669 24.7329 4.077 24.3947 3.49733C24.5155 3.44902 24.5396 3.44905 24.5637 3.44905ZM23.5735 1.66166C23.7909 1.83073 23.9841 2.02396 24.2015 2.19303C25.9163 3.73884 27.6554 5.30885 29.3703 6.85465C30.433 7.82078 31.5682 8.71441 32.5585 9.75299C35.2637 12.5789 38.2345 15.0908 41.1812 17.6511C41.4227 17.8443 41.6401 18.0376 41.8816 18.2308C40.5049 17.6753 39.2489 16.9507 38.1379 15.9846C37.4858 15.4049 36.7853 14.8493 36.0849 14.3421C35.1912 13.7141 34.37 12.9895 33.5971 12.2166C33.0657 11.6852 32.5343 11.178 32.003 10.6466C31.1818 9.80129 30.3364 8.95598 29.5635 8.06231C28.2834 6.58897 26.9549 5.16391 25.4816 3.88379C24.9985 3.44903 24.5155 3.01423 24.0566 2.55532C23.7909 2.33794 23.5494 2.09642 23.5735 1.66166ZM26.6892 3.78715C27.6554 4.5359 28.6215 5.33296 29.6118 6.05756C30.8436 6.95123 32.0754 7.89323 33.1865 8.95597C33.9352 9.68056 34.7323 10.3568 35.5052 11.0573C36.3506 11.8543 37.2201 12.6272 38.0413 13.4484C39.7561 15.1391 41.5194 16.7816 43.4275 18.3032C44.0313 18.7863 44.7075 19.2211 45.2872 19.7524C45.2389 19.8008 45.2148 19.8974 45.2872 19.9698C45.5529 20.2113 45.8186 20.4528 46.1084 20.6944C45.891 20.6219 45.6978 20.5494 45.5046 20.4528C45.0457 20.1871 44.6109 19.8732 44.152 19.5834C42.5096 18.4965 41.0363 17.2405 39.5629 15.9604C37.365 14.0764 35.167 12.1683 33.1865 10.0428C32.1479 8.95592 31.0127 7.94152 29.8775 6.97539C28.4766 5.79188 27.124 4.56007 25.7473 3.35241C25.6024 3.23165 25.5058 3.08672 25.385 2.96595C25.8198 3.15918 26.2545 3.44901 26.6892 3.78715ZM28.6698 4.58425C29.805 5.333 30.9402 6.10588 32.0513 6.90293C32.7758 7.41015 33.5004 7.91738 34.1526 8.49705C35.4327 9.68056 36.6404 10.9123 37.8722 12.1441C38.162 12.4098 38.4277 12.7238 38.6693 13.0137C39.8045 14.4146 41.0604 15.7189 42.413 16.9507C42.6787 17.1922 42.896 17.482 43.1376 17.7477C42.9443 17.6269 42.727 17.5062 42.5579 17.3371C41.0121 15.9604 39.4905 14.5836 38.0654 13.0861C37.3167 12.2891 36.4955 11.5645 35.6984 10.8399C34.9255 10.1153 34.1043 9.41484 33.3314 8.69025C32.4377 7.84488 31.4957 7.04783 30.4813 6.34738C29.2012 5.45372 27.9694 4.48758 26.7859 3.47315C27.438 3.78714 28.066 4.17365 28.6698 4.58425ZM44.466 18.5689C44.2486 18.3757 44.0071 18.2066 43.7897 18.0134C43.2101 17.4579 42.6545 16.854 42.0507 16.2985C41.1329 15.429 40.2875 14.5354 39.4663 13.5692C38.8866 12.8688 38.2828 12.1925 37.6548 11.5645C36.737 10.6225 35.7708 9.7047 34.8288 8.78688C34.2975 8.27966 33.742 7.77245 33.114 7.36185C31.4474 6.22665 29.7808 5.11562 27.9694 3.90796C29.6842 4.68086 31.1818 5.5262 32.631 6.44402C35.4086 8.18305 37.7756 10.4052 39.8286 12.9654C41.3261 14.8252 42.7028 16.7816 44.4177 18.4723C44.4177 18.4965 44.4419 18.5206 44.466 18.5689ZM53.4027 24.0275C53.1853 24.0758 53.0162 23.9793 52.7505 23.7619C53.0645 23.8826 53.2336 23.9551 53.4027 24.0275ZM53.9582 24.2932L53.451 24.0275C53.6684 24.0275 53.8374 24.1 53.9582 24.2932ZM55.7214 24.728C55.5523 24.7521 55.4074 24.7038 55.19 24.5106C55.4557 24.6072 55.6007 24.6797 55.7214 24.728ZM64.2475 26.6844C64.0784 26.6844 63.9093 26.6844 63.7402 26.6602C62.2427 26.3945 60.7453 26.1047 59.2478 25.8632C58.0401 25.67 56.8808 25.2593 55.7939 24.7521C55.8663 24.7521 55.9146 24.7279 55.9871 24.7521C58.3299 25.4284 60.7453 25.8148 63.1123 26.3462C63.4746 26.4187 63.861 26.5636 64.2475 26.6844ZM150.909 14.9218C150.499 15.115 150.233 15.1633 149.943 15.0908C150.184 14.9218 150.45 14.8493 150.909 14.9218ZM150.136 15.429C150.378 15.3324 150.643 15.2117 150.982 15.3807C150.668 15.5498 150.402 15.5256 150.136 15.429ZM148.784 15.2841C148.977 15.2358 149.194 15.2116 149.387 15.1633C149.218 15.3082 149.025 15.3324 148.784 15.2841ZM125.983 21.105C126.08 21.0567 126.152 20.9843 126.249 20.9601C127.746 20.5253 129.22 20.0664 130.717 19.6558C130.886 19.6075 131.055 19.6075 131.224 19.6075C130.355 19.9215 129.485 20.2838 128.592 20.5495C127.746 20.791 126.853 20.9359 125.983 21.105ZM124.775 21.419C125.162 21.2983 125.524 21.0808 125.959 21.1291C125.572 21.2982 125.186 21.419 124.775 21.419ZM94.8254 16.3227C96.9026 17.168 98.9556 18.0134 101.009 18.8829C103.448 19.9215 105.936 20.791 108.496 21.4431C108.665 21.4914 108.81 21.5639 108.979 21.6122C108.424 21.5156 107.868 21.419 107.337 21.2982C105.332 20.8876 103.376 20.3079 101.492 19.4867C99.4869 18.5931 97.5064 17.6269 95.5017 16.6849C95.2602 16.5642 95.0428 16.4434 94.8254 16.3227ZM80.0678 3.18332C80.9856 3.88377 81.831 4.60839 82.6522 5.40545C83.256 5.98513 83.884 6.54063 84.5361 7.04785C85.5264 7.82075 86.5408 8.54533 87.5311 9.29408C88.1108 9.72883 88.6422 10.236 89.2701 10.5742C90.985 11.5403 92.7241 12.4581 94.4873 13.376C95.3085 13.8107 96.1779 14.1489 97.0233 14.5353C99.342 15.6464 101.685 16.7575 104.004 17.8685C104.149 17.941 104.293 17.9892 104.463 18.0617C105.888 18.6414 107.313 19.1969 108.714 19.8249C109.994 20.4046 111.298 20.9842 112.626 21.4431C113.037 21.588 113.423 21.7329 113.834 21.8779C113.737 21.8779 113.617 21.8779 113.52 21.8538C112.554 21.5881 111.588 21.3224 110.646 21.0084C108.424 20.2355 106.298 19.2694 104.124 18.3757C102.723 17.7719 101.298 17.1922 99.8975 16.6125C98.7382 16.1294 97.5788 15.6464 96.4436 15.115C94.3906 14.1247 92.3618 13.0861 90.3329 12.0717C89.9223 11.8543 89.4875 11.6611 89.1011 11.3954C86.879 9.92205 84.6811 8.37629 82.7488 6.54065C82.5073 6.29912 82.2416 6.05759 81.9517 5.86437C81.3479 5.47791 80.9373 4.94653 80.5509 4.3427C80.2852 3.9321 80.0195 3.5456 79.6572 3.01423C79.9229 3.08669 79.9953 3.11086 80.0678 3.18332ZM108.4 16.7333C108.375 16.7575 108.351 16.8057 108.351 16.8299C108.279 16.7816 108.206 16.7574 108.134 16.7091C106.105 15.5739 104.173 14.2938 102.289 12.9412C101.564 12.4099 100.815 11.8785 100.042 11.4196C98.7382 10.6225 97.3856 9.89789 96.0572 9.12499C95.6466 8.88345 95.2843 8.6178 94.8737 8.40042C92.1685 6.92708 89.4392 5.57449 86.6133 4.39098C86.0336 4.14945 85.4539 3.93205 84.8743 3.69052C83.6183 3.1833 82.3624 2.70025 81.1305 2.19303C80.7924 2.04812 80.4784 1.87909 80.1644 1.71001C81.6619 2.14477 83.1353 2.65198 84.6086 3.13504C86.9756 3.95625 89.3426 4.80162 91.5888 5.93682C92.869 6.58896 94.1733 7.21693 95.4293 7.89322C96.7094 8.59367 97.9895 9.34242 99.173 10.1636C101.757 11.9268 104.318 13.7624 106.854 15.5739C107.385 15.9604 107.892 16.3468 108.4 16.7333ZM118.665 22.5783C117.529 22.1677 116.37 21.8055 115.235 21.419C113.737 20.8876 112.288 20.3079 110.887 19.5592C109.583 18.8587 108.23 18.2066 106.902 17.5303C106.709 17.4337 106.54 17.3371 106.346 17.2405C104.052 15.9362 101.733 14.632 99.4386 13.3277C99.0039 13.0862 98.545 12.8205 98.1102 12.5548C97.289 12.0717 96.4919 11.5645 95.6707 11.0815C93.98 10.1153 92.2652 9.17335 90.5744 8.20723C89.7774 7.74832 89.0045 7.28939 88.2316 6.83048C87.0964 6.17834 85.9854 5.50201 84.8502 4.89818C83.087 3.9562 81.2754 3.0867 79.5122 2.19303C79.3673 2.12057 79.2224 2.0481 79.0775 1.95149C78.7635 1.75826 78.5944 1.49264 78.4012 1.03373C78.9809 1.32357 79.3915 1.56507 79.8504 1.75829C80.9132 2.24136 81.9518 2.72441 83.0387 3.18332C84.3429 3.73885 85.6714 4.22192 86.9756 4.77744C89.1736 5.71942 91.3232 6.758 93.4487 7.86905C93.8593 8.08643 94.2699 8.32798 94.6563 8.56951C95.7674 9.2458 96.8301 9.99452 97.9895 10.5742C99.5594 11.3712 100.96 12.3615 102.385 13.376C104.052 14.5595 105.718 15.7671 107.53 16.6849C109.414 17.6269 111.177 18.738 112.964 19.8007C114.728 20.8393 116.612 21.6363 118.592 22.1919C118.979 22.2885 119.389 22.4335 119.776 22.5542C119.413 22.7474 119.051 22.7232 118.665 22.5783ZM115.911 22.7232C116.056 22.6991 116.201 22.7233 116.346 22.7474C116.636 22.8199 116.901 22.8923 117.191 22.9648C116.732 23.0856 116.322 22.9165 115.911 22.7232ZM113.906 21.6605C112.192 21.1291 110.525 20.477 108.931 19.7041C108.11 19.3176 107.264 18.9795 106.443 18.6172C105.453 18.2066 104.463 17.8202 103.496 17.3854C102.265 16.8299 101.057 16.2502 99.8493 15.6706C97.8929 14.7527 95.9364 13.8349 94.0042 12.8688C92.8206 12.2891 91.6855 11.5887 90.5262 10.9848C89.6566 10.5259 88.8596 9.97036 88.0867 9.36653C87.4104 8.81101 86.7099 8.25553 86.0095 7.74831C84.7052 6.80634 83.4734 5.79191 82.3382 4.65671C81.7585 4.07703 81.0581 3.59391 80.406 3.08669C80.1644 2.89346 79.8987 2.70024 79.5122 2.4104C79.7055 2.45871 79.7538 2.48288 79.8021 2.50704C82.2658 3.7147 84.7052 4.94652 87.0481 6.37156C87.7002 6.75801 88.3765 7.14449 89.0286 7.53094C90.8884 8.66614 92.7482 9.82546 94.7046 10.8157C95.1152 11.0331 95.5258 11.2263 95.9365 11.492C97.6755 12.6031 99.4628 13.6417 101.298 14.6078C101.661 14.801 102.047 14.9943 102.385 15.2116C104.148 16.2985 105.96 17.2888 107.796 18.2308C108.448 18.5689 109.124 18.8829 109.776 19.2452C112.095 20.5494 114.559 21.4915 117.095 22.3127C117.578 22.4817 118.085 22.6508 118.568 22.844C118.012 22.7716 117.433 22.7232 116.901 22.5783C115.863 22.3126 114.897 21.9745 113.906 21.6605ZM114.776 22.4092C113.906 22.3851 113.061 22.2885 112.216 22.1194C111.298 21.9262 110.38 21.6364 109.462 21.419C107.288 20.8876 105.163 20.2355 103.086 19.4384C102.458 19.1969 101.83 18.9553 101.202 18.7138C99.7526 18.1583 98.2793 17.6269 96.9026 16.9265C96.5886 16.7816 96.2504 16.6608 95.9365 16.5159C94.8979 16.057 93.8351 15.6222 92.8207 15.115C91.927 14.6802 91.0575 14.1489 90.2122 13.6658C89.7291 13.376 89.2701 13.0861 88.8112 12.7721C86.7582 11.2988 84.8259 9.65641 83.1352 7.74831C82.7729 7.36186 82.459 6.9271 82.1208 6.54065C82.1691 6.5165 82.1933 6.46817 82.2416 6.44402C83.4251 7.62752 84.7777 8.61777 86.1303 9.5839C87.3138 10.4293 88.4731 11.3471 89.7773 11.9992C93.3037 13.7382 96.7818 15.6222 100.477 17.0714C101.854 17.6028 103.231 18.2066 104.583 18.7863C106.129 19.4142 107.675 20.0664 109.221 20.6944C110.428 21.2016 111.636 21.6364 112.892 21.9504C113.52 22.0953 114.148 22.2402 114.776 22.4092ZM115.235 24.1242C115.476 23.9551 115.766 23.9068 116.056 23.9551C115.79 24.0275 115.525 24.0759 115.235 24.1242ZM114.389 24.3174C114.655 24.1724 114.921 24.0758 115.235 24.1483C114.969 24.2932 114.703 24.3898 114.389 24.3174ZM100.526 29.6552C99.1971 30.6938 97.7479 31.515 96.2987 32.3604C94.7288 33.2541 93.2072 34.2202 91.6614 35.1863C90.6469 35.8143 89.6566 36.4664 88.6663 37.0944C87.6519 37.7465 86.6616 38.4228 85.6713 39.0991C84.7535 39.7271 83.8598 40.3792 82.942 41.0072C81.517 41.9975 80.0678 42.9878 78.6428 43.9781C77.7732 44.5819 76.9038 45.2098 76.0343 45.8137C76.0343 45.8137 76.0342 45.8137 76.0101 45.8137C73.788 47.2629 71.59 48.7121 69.4162 50.2337C70.4548 49.3401 71.4934 48.4464 72.5078 47.5286C74.2227 45.9586 76.0342 44.5336 77.9423 43.2052C79.0292 42.5047 80.0919 41.8043 81.1788 41.1038C81.4445 40.9348 81.6861 40.7657 81.9517 40.6208C82.7005 40.1618 83.4251 39.6788 84.1497 39.2199C87.6761 36.9737 91.2024 34.7757 94.7771 32.6261C94.8254 32.6019 94.8979 32.5536 94.9462 32.5294C95.1394 32.4087 95.3568 32.2879 95.55 32.1671C95.5742 32.1671 95.5741 32.143 95.5983 32.143C96.2021 31.7807 96.8059 31.4184 97.4098 31.0561C97.4339 31.0561 97.4339 31.0319 97.4339 31.0319C98.4967 30.4281 99.5836 29.8002 100.67 29.1963C100.96 29.0273 101.274 28.9548 101.588 28.834C101.226 29.1238 100.864 29.3895 100.526 29.6552ZM79.3915 41.9009C79.1983 42.0216 79.0051 42.1183 78.8119 42.2391C78.7394 42.2874 78.6669 42.2874 78.5703 42.3115C78.6669 42.2149 78.7635 42.1182 78.8601 42.0458C79.9229 41.2246 80.9614 40.3792 82.0966 39.6305C84.4395 38.0847 86.8307 36.6113 89.1977 35.1138C91.7096 33.5439 94.3182 32.0947 96.9992 30.8146C97.1924 30.718 97.3856 30.6455 97.5788 30.573C97.3132 30.7662 97.0475 30.9595 96.7818 31.1527C96.5161 31.346 96.178 31.4667 95.9606 31.7082C95.864 31.7565 95.7673 31.829 95.6707 31.8773C95.55 31.9015 95.4534 31.9739 95.3568 32.0464C94.439 32.5778 93.5453 33.085 92.6275 33.6163C88.1591 36.2732 83.7149 39.0025 79.3915 41.9009ZM85.0675 43.3984C85.1883 43.3017 85.2849 43.2051 85.4056 43.1085C86.9514 42.0216 88.5214 40.9347 90.0672 39.8478C90.2363 39.7271 90.3812 39.6305 90.5503 39.5339C90.4295 39.6788 90.3087 39.8237 90.1638 39.9445C88.7146 41.2246 87.0964 42.3115 85.4056 43.2534C85.309 43.3501 85.1883 43.3742 85.0675 43.3984ZM80.8165 45.8137C80.9131 45.7412 81.0098 45.6929 81.1064 45.6205C81.3237 45.4756 81.5653 45.3065 81.7826 45.1616C82.5072 44.751 83.256 44.3645 83.9806 43.9539C84.1738 43.8573 84.3671 43.7607 84.5603 43.6883C84.4396 43.7849 84.3188 43.9056 84.1739 44.0022C83.3285 44.4852 82.459 44.9925 81.6136 45.4514C81.4687 45.548 81.2754 45.5964 81.1064 45.6447C81.0098 45.7171 80.9131 45.7654 80.8165 45.8137ZM75.6961 48.0358C75.8651 47.8909 76.0101 47.7218 76.1792 47.6011C77.411 46.804 78.6186 46.0069 79.8746 45.234C82.145 43.8331 84.4154 42.4081 86.4925 40.7416C87.507 39.9204 88.5455 39.1233 89.56 38.3503C90.7918 37.4084 92.0236 36.4664 93.2554 35.5003C94.9703 34.1719 96.6611 32.8434 98.3759 31.5391C98.859 31.1768 99.3179 30.7904 99.8975 30.6214C99.7768 30.7421 99.6319 30.8871 99.5112 31.0078C98.9556 31.5151 98.3759 31.974 97.8687 32.5053C95.7915 34.6308 93.6419 36.6838 91.299 38.5194C88.7629 40.5 86.1544 42.4322 83.3285 44.0022C82.0001 44.7509 80.6716 45.5239 79.3191 46.2485C78.3046 46.804 77.266 47.3112 76.2274 47.8425C76.0825 47.9391 75.8893 47.9875 75.6961 48.0358ZM69.0781 51.3689C68.8849 51.4656 68.6675 51.5139 68.4501 51.5863C68.595 51.4414 68.7399 51.3206 68.8849 51.1757C70.4065 50.0646 71.9282 48.9536 73.4498 47.8425C73.474 47.8425 73.474 47.8184 73.4981 47.8184C73.5223 47.7943 73.5464 47.7701 73.5948 47.746C73.788 47.6011 73.9812 47.4562 74.1744 47.3112C74.2952 47.2629 74.3918 47.2387 74.4884 47.1662C75.3096 46.6349 76.1308 46.1035 76.9037 45.548C78.8843 44.123 80.8649 42.6979 82.8937 41.3695C85.454 39.7029 87.8934 37.819 90.5503 36.2973C90.671 36.2249 90.7918 36.1525 90.8884 36.0558C92.5309 35.0414 94.1491 34.0028 95.7915 32.9883C95.9606 32.8917 96.1538 32.8434 96.3229 32.771C96.2263 32.8676 96.1539 32.9642 96.0331 33.0367C93.7868 34.7757 91.5648 36.4906 89.3185 38.2296C88.5939 38.7851 87.8693 39.2923 87.1688 39.872C84.7294 41.925 82.0484 43.6158 79.3191 45.234C78.0631 45.9828 76.8313 46.7557 75.6236 47.6011C73.5947 49.0744 71.3485 50.2579 69.0781 51.3689ZM68.3294 51.5621C68.3777 51.5621 68.4018 51.5622 68.4259 51.5863C68.4018 51.5863 68.3776 51.6105 68.3535 51.6105C68.3293 51.6105 68.3294 51.5863 68.3294 51.5621ZM93.4729 31.2977C93.183 31.4667 92.9173 31.6599 92.6033 31.8049C88.618 33.6888 84.9226 36.0558 81.2996 38.5677C79.0775 40.1135 76.9762 41.8526 74.8266 43.495C74.6817 43.5916 74.5367 43.6882 74.3918 43.7848C74.4884 43.6399 74.6092 43.5192 74.7058 43.3743C76.4448 41.4662 78.353 39.7512 80.406 38.1813C84.2463 35.2104 88.4973 33.0608 93.0139 31.3942C93.183 31.3459 93.3279 31.3218 93.4729 31.2977ZM101.25 28.5442C101.033 28.6649 100.815 28.8099 100.598 28.9306C97.603 30.2349 94.6805 31.6357 91.8787 33.2782C89.8499 34.4617 87.8451 35.6935 85.8645 36.9253C84.4154 37.819 82.9662 38.7126 81.6136 39.7029C77.7974 42.5047 74.0295 45.379 70.5998 48.6638C70.4307 48.8087 70.3099 49.002 70.165 49.1952C69.8993 49.2676 69.7302 49.485 69.5853 49.7024C69.1506 50.2337 68.7158 50.7409 68.112 51.1032C68.2086 50.9583 68.3052 50.8134 68.4259 50.6927C69.2471 49.7507 70.0926 48.8328 70.8896 47.8667C72.4113 46.0069 74.1503 44.3645 76.0343 42.8912C79.15 40.4758 82.2899 38.1089 85.6955 36.0558C88.135 34.5825 90.5745 33.1091 93.1589 31.8773C93.7627 31.5875 94.3665 31.2976 94.9703 30.9837C96.9509 29.8968 99.1246 29.2446 101.25 28.5442ZM57.7744 9.82545C57.7985 9.82545 57.7985 9.82545 57.7744 9.82545V9.82545ZM53.137 4.97064C53.6201 5.18801 54.079 5.40541 54.4654 5.74356C54.9726 6.17831 55.4799 6.63724 56.0112 7.04785C56.8083 7.67583 57.5087 8.35213 58.185 9.10088C58.9338 9.89794 59.7067 10.6708 60.4796 11.4437C61.325 12.2891 62.1944 13.1344 63.0639 13.9798C64.3199 15.2358 65.5518 16.4918 66.9768 17.5545C68.4985 18.6897 70.0201 19.849 71.5175 21.0084C72.6769 21.8779 73.957 22.53 75.2854 23.1097C76.5173 23.6411 77.7733 24.1241 79.0292 24.6314C80.4301 25.211 81.8068 25.8149 83.1836 26.3946C83.2319 26.4187 83.2802 26.467 83.3285 26.5153C82.1208 26.2255 80.9373 25.8873 79.778 25.5008C78.1356 24.9695 76.4932 24.4623 74.9715 23.6411C73.8122 23.0131 72.6528 22.3609 71.4934 21.7329C69.3921 20.5977 67.5081 19.1727 65.7208 17.6028C64.0784 16.1536 62.4601 14.6561 60.9868 13.0137C60.9868 12.9895 60.9868 12.9654 60.9626 12.9412C60.8902 12.8688 60.8419 12.8204 60.7694 12.748C60.552 12.5064 60.3346 12.2408 60.1414 11.9751C59.9723 11.7819 59.8274 11.5645 59.6342 11.3954C59.0545 10.8399 58.5231 10.2119 57.7986 9.80127C57.5087 9.39067 57.1464 9.05259 56.76 8.7386C56.6151 8.59368 56.4702 8.44871 56.3252 8.30379C56.1803 8.0381 55.9629 7.8449 55.6972 7.65168C55.5523 7.50676 55.4074 7.36186 55.2625 7.21694C55.2383 7.12032 55.1659 7.07198 55.0934 7.02367C54.9243 6.83045 54.7311 6.63727 54.562 6.46819C54.079 6.00928 53.5959 5.50201 53.137 4.97064ZM53.2336 4.80162C53.0646 4.72916 52.9196 4.68081 52.7988 4.60835C52.7022 4.48759 52.5815 4.36684 52.4849 4.24607C52.7506 4.34268 53.0163 4.43932 53.2336 4.80162ZM55.4799 6.27493C55.6489 6.29908 55.818 6.3474 55.9388 6.44402C57.3638 7.4343 58.813 8.40045 60.238 9.41489C62.4118 10.9607 64.5132 12.6272 66.4213 14.487C66.4937 14.5595 66.5903 14.632 66.6628 14.6803C66.8802 14.9218 67.1217 15.1392 67.3391 15.3807C67.5565 15.6706 67.8222 15.9362 68.112 16.1777C68.6434 16.7091 69.1988 17.2405 69.7785 17.7477C71.0828 18.8829 72.4354 19.9698 73.8363 20.9842C73.8846 21.0084 73.9087 21.0084 73.9329 21.0084C75.4545 22.1677 77.0245 23.2788 78.691 24.2449C77.8698 23.9792 77.0486 23.7135 76.2757 23.3512C75.1405 22.8199 74.0295 22.2402 72.9185 21.6847C72.6045 21.5156 72.3146 21.3465 72.0489 21.1291C71.4692 20.6944 70.9379 20.2113 70.3582 19.7765C69.2472 18.9312 68.112 18.11 67.0009 17.2888C65.5759 16.226 64.3441 14.946 63.1123 13.7141C62.2669 12.8688 61.4215 12.0476 60.5762 11.2264C60.0689 10.7433 59.5618 10.2844 59.1028 9.75299C58.0643 8.56949 56.9774 7.43432 55.6972 6.46819C55.6248 6.37158 55.5523 6.32323 55.4799 6.27493ZM72.7977 18.5931C75.4304 21.105 78.2563 23.3513 81.4928 25.042C81.5894 25.0903 81.6619 25.1627 81.8551 25.3076C80.0436 24.728 78.4978 23.8826 77.0245 22.8923C75.9859 22.216 74.9715 21.5156 73.9812 20.7668C73.6914 20.5495 73.4257 20.3321 73.1358 20.1147C72.5562 19.6558 71.9765 19.1727 71.421 18.6655C70.9621 18.2549 70.5032 17.8443 69.9718 17.5303C69.2955 16.9506 68.6192 16.3468 67.967 15.743C67.798 15.5739 67.6289 15.4048 67.4357 15.2357C67.2907 15.115 67.17 14.9701 67.0251 14.8494C66.9526 14.7286 66.8802 14.632 66.8077 14.5353C65.2619 12.9654 63.5712 11.5404 61.7838 10.2361C59.5859 8.64198 57.3638 7.09614 55.0451 5.6711C54.8278 5.52618 54.6103 5.40545 54.3929 5.26054C54.248 5.16392 54.1273 5.01897 54.0065 4.92236C54.9726 5.28465 55.9388 5.6711 56.8324 6.13001C58.0159 6.758 59.1753 7.43433 60.3347 8.13477C62.0013 9.1492 63.5712 10.3085 65.0687 11.5645C67.7014 13.8349 70.2616 16.1777 72.7977 18.5931ZM84.1255 26.3946C83.2077 26.1289 82.2658 25.9598 81.4687 25.4284C82.3624 25.7665 83.2318 26.0806 84.1255 26.3946ZM85.2849 26.8535C85.0675 26.8776 84.8984 26.8052 84.7535 26.6119C84.9226 26.6844 85.0917 26.7569 85.2849 26.8535ZM89.874 27.7471C90.0189 27.7471 90.188 27.723 90.3329 27.723C91.1058 27.7713 91.8546 27.8196 92.6275 27.8679C92.7482 27.8679 92.869 27.9162 92.9898 27.9403C92.5792 28.0128 92.1685 28.0611 91.7579 28.1336C91.0816 28.2061 90.4537 28.1094 89.874 27.7471ZM87.2413 27.6747C88.0867 27.6264 88.9079 27.8196 89.7291 27.9887C89.8981 28.0128 90.0431 28.0853 90.2122 28.1336C89.9465 28.2544 89.7049 28.2543 89.4634 28.2302C89.246 28.206 89.0045 28.1578 88.7871 28.1336C88.2316 28.0853 87.7244 27.9645 87.2413 27.6747ZM86.0578 27.0709C85.8163 27.1192 85.623 26.9742 85.4298 26.8776C85.6472 26.95 85.8646 27.0225 86.0578 27.0709ZM84.1497 27.3365C81.6619 26.8051 79.2707 26.0323 76.9037 25.1145C76.1067 24.8005 75.3096 24.4623 74.5367 24.1242C72.2663 23.158 70.0926 21.9987 68.0878 20.5495C66.8319 19.6316 65.6242 18.6655 64.4165 17.6752C62.7982 16.3468 61.18 15.0184 59.755 13.4968C57.6536 11.2264 55.7697 8.7627 53.8616 6.34738C53.8133 6.29908 53.765 6.25075 53.7408 6.17829C53.7167 6.10583 53.6926 6.03341 53.6926 5.9851C55.9388 8.49703 58.2816 10.8641 60.7935 13.1103C61.2766 13.6658 61.7838 14.173 62.3152 14.6803C62.7741 15.1392 63.2331 15.5981 63.7161 16.0328C64.6098 16.8782 65.5034 17.7236 66.4213 18.5206C67.7014 19.5833 69.0056 20.6219 70.4548 21.4673C71.1794 21.8779 71.904 22.2885 72.6045 22.7232C74.102 23.6411 75.6478 24.3898 77.2902 24.9936C79.6814 25.8632 82.1208 26.5877 84.6086 27.2399C85.4781 27.4573 86.3235 27.723 87.1688 27.9645C87.0722 27.9645 86.9756 27.9645 86.879 27.9403C85.9612 27.723 85.0675 27.5297 84.1497 27.3365ZM72.9426 28.2302C73.6431 28.2785 74.3435 28.3509 75.0681 28.3993C74.3435 28.5442 73.6431 28.4234 72.9426 28.2302ZM72.1697 28.1577C72.4113 28.0852 72.6286 28.1094 72.846 28.2061L72.1697 28.1577ZM52.026 37.0702C52.1951 37.0219 52.3641 36.9736 52.5332 36.9253C53.8374 36.6355 55.1659 36.3698 56.4702 36.1041C59.3444 35.4761 62.1461 34.51 64.9479 33.6163C65.7691 33.3507 66.542 33.0125 67.3391 32.6985C68.0395 32.4328 68.74 32.143 69.4404 31.8531C69.2955 31.9739 69.1747 32.0947 69.0298 32.1913C67.8946 32.7951 66.8077 33.4231 65.6483 33.9786C62.7983 35.3312 59.755 36.0799 56.6875 36.6838C55.3591 36.9495 54.0307 37.1185 52.6781 37.1427C52.4849 37.1185 52.2434 37.0702 52.026 37.0702ZM35.5293 37.3118C35.6259 37.2635 35.7225 37.2151 35.8191 37.2151C37.0993 37.0702 38.4035 36.9254 39.6837 36.8046C40.9638 36.6838 42.2198 36.6355 43.4999 36.5389C44.4902 36.4664 45.4804 36.3457 46.4707 36.2732C47.6059 36.2008 48.7411 36.0558 49.8763 35.9109H49.9005C51.2048 35.766 52.5332 35.6211 53.8375 35.4278C58.185 34.7999 62.5084 33.8096 66.7111 32.5536C66.7111 32.5778 66.7111 32.6019 66.7353 32.6261C66.2522 32.8193 65.7691 33.0125 65.2861 33.1574C63.6195 33.713 61.9288 34.2443 60.238 34.7998C59.9965 34.8723 59.7549 34.9447 59.5134 35.0172C55.987 36.0075 52.4124 36.7321 48.7895 37.1186C48.2339 37.1669 47.6784 37.2393 47.1229 37.2393C43.4274 37.2876 39.7319 37.3118 36.0365 37.3601C35.8674 37.3842 35.6984 37.3359 35.5293 37.3118ZM29.6601 37.7949C29.9258 37.6983 30.1915 37.5533 30.4813 37.505C32.2686 37.1427 34.0318 36.7563 35.8191 36.4906C37.9688 36.1766 40.1426 35.9592 42.3164 35.7418C44.5868 35.5003 46.833 35.2346 49.1034 35.0414C50.8424 34.8965 52.5815 34.7516 54.2964 34.4617C55.504 34.2685 56.7117 34.0752 57.9435 33.882C60.1897 33.5439 62.4118 33.0367 64.6098 32.4329C66.4696 31.9015 68.3535 31.515 70.2133 31.0561C70.4307 31.0078 70.6481 31.0078 70.8654 30.9837C70.7688 31.032 70.6964 31.1044 70.5998 31.1527C69.537 31.4909 68.4984 31.829 67.4357 32.1913C67.4115 32.1913 67.3873 32.1672 67.3632 32.1913C66.8801 32.3121 66.3971 32.457 65.8899 32.5778C65.8657 32.5778 65.8416 32.6019 65.8174 32.6019C65.3827 32.7226 64.9238 32.8434 64.4649 32.9401C64.4407 32.9401 64.3924 32.9642 64.3682 32.9642C64.0784 33.0367 63.8127 33.1091 63.5228 33.1816C59.0304 34.2927 54.4412 35.1138 49.8521 35.6935C49.8038 35.6935 49.7797 35.7177 49.7797 35.7418C46.7605 36.1041 43.7173 36.249 40.674 36.5389C40.4566 36.563 40.2633 36.563 40.0459 36.563C38.7175 36.5872 37.4133 36.7562 36.0849 36.9253C34.1526 37.191 32.2445 37.65 30.3122 37.7949C30.0948 37.7949 29.8775 37.7949 29.6601 37.7949ZM34.8288 35.452C37.2683 34.6308 39.7803 34.0994 42.3164 33.6163C43.0168 33.4714 43.7414 33.4473 44.466 33.399C45.3838 33.3265 46.3258 33.2782 47.2436 33.2299C48.0648 33.1816 48.9102 33.1333 49.7314 33.1091C49.9488 33.1091 50.1661 33.1333 50.3835 33.1574C50.1903 33.2057 50.0213 33.2782 49.828 33.2782C48.4513 33.3989 47.0504 33.5197 45.6737 33.6163C43.1618 33.7854 40.6981 34.1477 38.2586 34.7757C37.2201 35.0414 36.1814 35.2829 35.1429 35.5003C34.9496 35.5486 34.7564 35.5486 34.5632 35.5728C34.6357 35.5003 34.7322 35.4762 34.8288 35.452ZM42.1956 33.2541C42.3647 33.2058 42.5579 33.1816 42.727 33.1333C42.8719 33.0849 43.041 33.0125 43.1859 32.9883C46.978 32.312 50.7941 31.7565 54.6103 31.3459C58.4265 30.9353 62.2669 30.6213 66.1073 30.2832C66.3246 30.259 66.5662 30.2832 66.8077 30.2832C66.9526 30.2832 67.0734 30.2832 67.2183 30.259C67.0734 30.2832 66.9526 30.3073 66.8077 30.3315C66.4213 30.4522 66.0106 30.5972 65.6242 30.6938C62.8707 31.4184 60.0448 31.829 57.2431 32.3845C56.8566 32.457 56.4701 32.5053 56.0595 32.5294C53.7167 32.6985 51.398 32.8918 49.0551 32.8918C48.3788 32.8918 47.7026 32.9884 47.0504 33.0125C45.6254 33.085 44.1762 33.1333 42.7512 33.2057C42.5579 33.2057 42.3888 33.2299 42.1956 33.2541ZM58.5232 32.6743C60.697 32.3845 62.8465 32.0705 65.0203 31.7807C65.2136 31.7565 65.4068 31.7807 65.6242 31.7807C65.5759 31.8048 65.5276 31.8532 65.4792 31.8773C63.8368 32.3121 62.2186 32.8676 60.5521 33.1574C56.4943 33.9062 52.4124 34.6791 48.2822 34.8723C48.0407 34.8723 47.8233 34.9206 47.5818 34.9447C45.1665 35.2104 42.727 35.4761 40.3117 35.6935C37.7031 35.935 35.0946 36.2732 32.5102 36.8046C32.2928 36.8529 32.0754 36.8529 31.8581 36.8529C32.0513 36.7563 32.2445 36.6113 32.4377 36.5389C32.9449 36.3698 33.4522 36.2008 33.9594 36.0558C35.5776 35.6452 37.22 35.2829 38.8383 34.8482C40.8672 34.3168 42.9202 34.0028 45.0215 33.8337C46.3741 33.7371 47.7025 33.6163 49.0551 33.5197C52.195 33.3023 55.3833 33.1091 58.5232 32.6743ZM32.9449 36.0799C32.7275 36.1524 32.5102 36.2249 32.2928 36.3215C30.8919 36.9495 29.4669 37.505 27.9935 37.9156C27.8728 37.9398 27.752 37.9881 27.6554 38.0122C27.9211 37.7466 28.1867 37.5292 28.5007 37.3842C29.9016 36.7321 31.3991 36.2973 32.9449 36.0799ZM34.2492 34.5825C35.9641 34.0028 37.7031 33.4473 39.3938 32.8676C41.7608 32.0464 44.2003 31.4425 46.6881 31.0319C49.6348 30.5489 52.6056 30.0176 55.6006 29.8726C56.4218 29.8243 57.2189 29.7518 58.0401 29.6794C60.1173 29.462 62.2186 29.4137 64.2958 29.3895C64.4407 29.3895 64.5856 29.4137 64.7547 29.4378C64.489 29.5103 64.2475 29.5828 63.9818 29.6069C61.3491 29.8484 58.7164 29.9692 56.0837 30.2349C54.3205 30.4281 52.5331 30.5247 50.77 30.8146C50.0695 30.9353 49.3449 31.032 48.6445 31.1286C47.3885 31.2735 46.1326 31.5633 44.9008 31.8773C44.8766 31.8773 44.8766 31.8532 44.8525 31.8773C42.5338 32.3362 40.2634 32.8918 37.993 33.5681C37.9688 33.5681 37.9447 33.5922 37.9205 33.5922C36.423 34.0269 34.9738 34.51 33.5005 35.0414C33.4763 35.0414 33.4522 35.0414 33.428 35.0414C33.6937 34.8482 33.9594 34.6791 34.2492 34.5825ZM65.9623 29.1238C65.7208 29.148 65.4793 29.1722 65.2619 29.1722C63.3779 29.2205 61.494 29.1963 59.6342 29.2929C57.7744 29.3895 55.9387 29.5828 54.0789 29.776C52.7264 29.9209 51.3497 30.0658 49.9971 30.259C48.6445 30.4522 47.2919 30.6938 45.9393 30.9353C44.0554 31.2493 42.2198 31.6841 40.4083 32.288C39.418 32.6019 38.4277 32.9159 37.4133 33.2299C37.1959 33.3023 36.9544 33.3265 36.7129 33.399C36.9302 33.2782 37.1234 33.1333 37.3408 33.0608C39.0074 32.4811 40.674 31.9015 42.3647 31.3701C49.8039 29.0997 57.4362 28.4717 65.1894 29.0031C65.4551 29.0272 65.7208 29.0755 65.9623 29.1238ZM69.4887 29.6552C69.2713 29.7035 69.054 29.776 68.8366 29.8002C64.803 30.1866 60.7936 30.573 56.76 30.9595C55.6489 31.0561 54.5379 31.1044 53.4268 31.2735C50.2628 31.7082 47.0745 32.1671 43.9105 32.6743C40.8189 33.1574 37.7756 33.9545 34.8047 34.9447C36.9544 34.2201 39.1281 33.5439 41.3261 32.9401C41.5676 32.9159 41.785 32.8676 41.9782 32.771C42.1473 32.7227 42.3163 32.6744 42.4613 32.6502C42.7028 32.6502 42.9202 32.5778 43.1376 32.4811C43.3308 32.4328 43.5482 32.3845 43.7656 32.3362C43.8863 32.3121 44.0071 32.3121 44.1037 32.288C45.2872 32.0464 46.4466 31.7565 47.6543 31.5391C52.1226 30.7904 56.6151 30.404 61.1317 30.0658C62.3877 29.9692 63.6195 29.8726 64.8754 29.7276C66.2038 29.5827 67.5081 29.4862 68.8366 29.5586C69.054 29.5586 69.2713 29.6069 69.4887 29.6552ZM74.0537 29.6069C73.8121 29.7035 73.5948 29.776 73.3774 29.8967C72.7011 30.259 71.9523 30.404 71.1794 30.5247C69.9235 30.718 68.6675 30.9354 67.4115 31.1527C67.1942 31.2011 67.0009 31.2977 66.7835 31.3701C66.6145 31.3701 66.4212 31.346 66.2522 31.3701C64.5373 31.6117 62.8224 31.8531 61.1075 32.0705C60.9143 32.0947 60.7211 32.0947 60.5279 32.0947C60.7453 32.0222 60.9626 31.9498 61.2042 31.9015C62.9673 31.5392 64.7547 31.201 66.4937 30.7904C67.9188 30.4522 69.3438 30.1866 70.793 30.0175C71.6142 29.9209 72.4354 29.8002 73.2808 29.7035C73.5223 29.6794 73.7638 29.4861 74.0537 29.6069ZM71.0345 28.1094C70.4548 28.037 69.851 27.9645 69.2713 27.8921C68.9815 27.8437 68.6675 27.7471 68.3777 27.6747C68.4501 27.6747 68.5467 27.6505 68.6192 27.6747C69.5129 27.7955 70.4065 27.892 71.3002 28.0128C71.4209 28.0369 71.5417 28.0853 71.6625 28.1094C71.4451 28.1094 71.2278 28.1336 71.0345 28.1094Z" fill="#F53756"/>
<path d="M205.978 28.0126C211.292 27.1914 216.46 25.7181 221.436 23.6651C222.958 23.0371 224.479 22.7714 226.122 22.7714C228.73 22.7714 231.315 23.0371 233.899 23.4477C237.691 24.0757 241.459 24.6554 245.275 25.0418C247.69 25.2833 250.106 25.3316 252.521 25.2592C254.188 25.2109 255.854 25.0659 257.521 24.8485C259.067 24.6312 260.588 24.2689 262.062 23.7858C262.81 23.5443 263.535 23.2062 264.26 22.9163C265.395 22.4333 266.506 21.926 267.665 21.4671C268.945 20.9357 270.25 20.4285 271.602 20.0904C271.723 20.0662 271.819 19.9696 271.989 19.873C271.868 19.7281 271.82 19.6073 271.723 19.5349C271.578 19.4624 271.409 19.4141 271.264 19.3658C266.24 17.9408 261.168 16.878 255.975 16.3225C252.376 15.936 248.753 15.6945 245.13 15.8153C243.029 15.8877 240.976 16.1776 238.923 16.6607C236.218 17.3128 233.609 18.3514 231.073 19.076C231.484 18.8586 232.039 18.5687 232.595 18.303C234.189 17.5301 235.759 16.733 237.232 15.7669C238.198 15.1148 239.164 14.4627 240.082 13.7864C240.734 13.3034 241.411 12.8203 241.966 12.2406C243.778 10.3566 245.372 8.30362 246.579 5.98491C247.449 4.29419 248.391 2.62764 249.55 1.10599C249.599 1.05769 249.574 0.985213 249.599 0.864447C249.526 0.791988 249.43 0.695387 249.309 0.574621C249.067 0.671234 248.801 0.743658 248.584 0.840271C247.956 1.13011 247.328 1.41996 246.7 1.7581C244.816 2.74838 242.932 3.76284 241.048 4.80143C239.744 5.52602 238.44 6.2506 237.28 7.19257C234.793 9.22144 232.571 11.5401 230.662 14.1245C229.841 15.2356 228.923 16.2983 228.006 17.361C227.281 18.2064 226.484 18.9793 225.687 19.7764C225.131 20.3077 224.6 20.8633 223.972 21.298C222.74 22.1917 221.436 22.9163 219.938 23.2786C219.552 23.3752 219.19 23.4959 218.803 23.6167C216.34 24.3413 213.852 25.0417 211.316 25.5006C210.156 25.718 208.973 25.9354 207.838 26.2736C205.374 26.9982 202.862 27.4329 200.326 27.6986C198.418 27.8918 196.486 28.1334 194.578 28.3508C193.95 28.4232 193.346 28.4473 192.718 28.3024C192.138 28.1575 191.534 28.1092 190.93 28.3024C190.689 28.3749 190.423 28.3266 190.182 28.3024C189.457 28.23 188.757 28.1575 188.032 28.0851C187.887 28.0609 187.766 28.0368 187.477 27.9885C187.766 27.916 187.887 27.8677 188.032 27.8435C190.447 27.3604 192.79 26.5876 195.085 25.6939C195.93 25.3558 196.751 24.9935 197.597 24.6312C199.819 23.6892 201.944 22.5298 203.925 21.1289C205.495 20.042 206.944 18.8103 208.369 17.5543C210.495 15.6945 212.596 13.7864 214.359 11.5401C216.364 9.02818 218.344 6.54044 220.349 4.02851C220.47 3.85944 220.615 3.69039 220.542 3.44886C220.325 3.13486 220.011 3.27979 219.745 3.3764C218.683 3.787 217.62 4.1976 216.581 4.65652C213.031 6.20232 209.891 8.3761 206.92 10.8397C203.877 13.3758 200.978 16.1292 198.128 18.8585C196.172 20.7183 194.095 22.4332 191.752 23.7858C189.988 24.8002 188.201 25.7181 186.269 26.3219C183.564 27.1431 180.81 27.6744 177.984 27.6261C176.318 27.602 174.651 27.4571 172.985 27.1914C169.555 26.6842 166.149 26.1045 162.792 25.2108C161.343 24.8244 159.894 24.4138 158.396 24.0998C157.575 23.9307 156.778 23.7133 155.981 23.496C156.246 23.4477 156.512 23.3752 156.778 23.3269C157.575 23.2061 158.396 23.1095 159.193 22.9888C161.729 22.6265 164.169 21.8777 166.657 21.2738C168.299 20.8632 169.917 20.3078 171.439 19.5832C173.806 18.4963 176.125 17.3369 178.467 16.2017C180.81 15.0665 182.936 13.6414 184.941 11.999C186.873 10.4291 188.708 8.73837 190.206 6.73365C191.607 4.84971 192.959 2.94164 194.336 1.03354C194.384 0.961078 194.457 0.888604 194.481 0.791991C194.529 0.647072 194.553 0.50212 194.602 0.381354C194.433 0.067363 194.215 0.0432216 193.974 0.091528C193.805 0.139834 193.611 0.212312 193.442 0.260618C191.872 0.840294 190.302 1.4441 188.733 1.97547C185.568 3.03821 182.501 4.27002 179.554 5.81582C178.226 6.49211 176.922 7.19259 175.617 7.89303C174.772 8.35194 173.975 8.85912 173.178 9.36634C171.487 10.4774 169.821 11.6126 168.154 12.7478C166.56 13.8588 164.917 14.9458 163.396 16.1293C161.029 17.9649 158.517 19.5349 155.836 20.815C154.652 21.3705 153.445 21.8294 152.189 22.1917C151.537 22.3849 150.909 22.3608 150.281 22.1434C149.967 22.0226 149.677 21.926 149.363 21.8294C148.445 21.5154 147.503 21.2255 146.585 20.9116C145.498 20.5734 144.387 20.2836 143.325 19.8972C139.895 18.7137 136.417 17.7233 132.866 16.9021C129.292 16.0568 125.717 15.2598 122.215 14.1004C121.828 13.9797 121.442 13.9555 121.055 14.1487C120.862 14.2453 120.669 14.2694 120.451 14.3419C120.282 14.3902 120.113 14.4627 119.944 14.5352C119.896 14.5593 119.896 14.6559 119.848 14.7284C120.017 14.8491 120.186 14.9699 120.331 15.0906C120.403 15.4771 120.403 15.4771 120.645 15.8394C120.862 15.8394 121.104 15.8394 121.369 15.8394C123.012 15.7428 124.63 15.8877 126.2 16.2983C127.963 16.7572 129.678 17.2886 131.417 17.82C134.847 18.8585 138.277 19.8971 141.682 21.0082C144.75 21.9985 147.865 22.868 150.981 23.6892C155.449 24.8727 159.966 25.8388 164.507 26.7325C165.231 26.8774 165.884 27.119 166.536 27.4571C166.898 27.6503 167.26 27.8677 167.623 28.0851C169.627 29.341 171.415 30.911 173.202 32.4568C174.917 33.9543 176.463 35.6208 178.105 37.215C179.12 38.2052 180.134 39.1955 181.148 40.1616C182.284 41.2244 183.515 42.1663 184.844 43.0117C188.032 45.0647 191.341 46.9246 194.795 48.4945C197.234 49.6056 199.698 50.62 202.162 51.6586C203.273 52.1175 204.432 52.5039 205.567 52.9145C205.736 52.987 205.905 53.0836 206.075 52.8662C206.099 52.6006 205.905 52.4557 205.761 52.2866C203.877 50.0403 201.993 47.8183 200.109 45.572C196.148 40.8138 191.365 37.0701 185.931 34.1475C182.839 32.481 179.578 31.2008 176.245 30.0415C173.999 29.2686 171.777 28.4957 169.531 27.7228C169.772 27.7469 170.038 27.7469 170.28 27.7711C171.511 27.9401 172.767 28.1575 173.999 28.3266C175.255 28.4957 176.535 28.6406 177.791 28.9546C178.274 29.0754 178.757 29.1237 179.24 29.1962C183.322 29.6551 187.428 29.8241 191.558 29.6792C192.766 29.6309 193.974 29.6067 195.181 29.5825C195.471 29.5825 195.785 29.5826 196.075 29.6792C197.379 30.0656 198.66 30.4763 199.819 31.1526C200.519 31.5632 201.244 31.9496 201.944 32.336C203.104 32.964 204.263 33.6403 205.422 34.2442C208.514 35.79 211.823 36.6353 215.18 37.3116C216.509 37.5773 217.837 37.7705 219.19 37.7947C223.803 37.843 228.44 37.9396 233.054 37.9154C237.232 37.8913 241.362 38.012 245.468 38.7849C245.589 38.8091 245.71 38.7608 245.831 38.7366C245.903 38.4226 245.734 38.3019 245.541 38.2052C244.961 37.8188 244.381 37.4323 243.778 37.07C239.792 34.8479 235.686 32.8915 231.315 31.5631C227.498 30.4038 223.634 29.4859 219.673 29.0512C215.349 28.5923 211.002 28.5923 206.654 28.858C204.48 28.9787 202.283 29.0754 200.109 29.172C199.867 29.172 199.626 29.1237 199.384 29.0995C199.553 29.0512 199.722 29.0029 199.891 28.9787C201.944 28.5923 203.973 28.3266 205.978 28.0126ZM259.912 23.8824C256.627 24.5587 253.294 24.8727 249.937 24.8727C248.512 24.8727 247.063 24.7036 245.637 24.5587C241.314 24.0998 237.015 23.4718 232.74 22.723C232.257 22.6264 231.774 22.554 231.29 22.4574C233.126 22.4332 234.962 22.3849 236.797 22.4574C239.478 22.5782 242.159 22.8922 244.816 23.1337C245.951 23.2303 247.063 23.3269 248.198 23.4235C248.246 23.4235 248.294 23.4235 248.343 23.4477C248.681 23.4718 249.019 23.4959 249.357 23.5442C249.405 23.5442 249.43 23.5443 249.454 23.5201C251.845 23.6168 254.236 23.6409 256.651 23.3993C257.811 23.2786 258.97 23.2061 260.129 23.1337C261.482 23.0612 262.81 22.8197 264.09 22.4332C264.429 22.3366 264.791 22.24 265.129 22.1676C263.438 22.8922 261.723 23.5201 259.912 23.8824ZM260.105 22.8921C258.704 22.9646 257.279 23.1337 255.878 23.2303C253.729 23.3752 251.579 23.4235 249.454 23.3269C249.454 23.3269 249.43 23.3269 249.405 23.3269C246.7 23.0612 243.995 22.7955 241.29 22.5299C239.986 22.4091 238.681 22.2883 237.353 22.2159C237.305 22.2159 237.256 22.2159 237.208 22.2159C237.063 22.2159 236.918 22.1917 236.749 22.1917C236.701 22.1675 236.652 22.1434 236.628 22.0951C236.435 22.1193 236.218 22.1434 236.024 22.1434C236 22.1434 235.976 22.1434 235.976 22.1434C235.179 22.1192 234.382 22.0951 233.561 22.1192C232.474 22.1434 231.363 22.1676 230.276 22.24C230.083 22.2159 229.865 22.1917 229.672 22.1676C229.817 22.1193 229.962 22.0709 230.107 22.0468C231.025 21.9985 231.967 21.926 232.885 21.926C233.899 21.926 234.938 21.9502 235.952 21.9743C236.169 21.9743 236.411 22.0226 236.628 22.0709C236.991 22.0468 237.353 22.0227 237.739 22.0227C240.686 22.1676 243.609 22.3608 246.555 22.5057C247.884 22.5781 249.236 22.6023 250.565 22.6023C250.565 22.6748 250.589 22.7472 250.685 22.7472C255.83 22.5782 260.951 22.1675 266.071 21.5154C264.163 22.1917 262.207 22.7955 260.105 22.8921ZM267.279 21.1289C262.786 21.7086 258.294 22.1193 253.777 22.3849C250.613 22.4332 247.473 22.3849 244.309 22.2159C240.952 22.0226 237.594 21.8536 234.213 21.7811C231.58 21.7328 228.972 21.9502 226.363 22.2883C225.953 22.3366 225.518 22.3366 225.083 22.3366C225.276 22.2883 225.494 22.2158 225.687 22.1917C226.653 22.0468 227.619 21.926 228.561 21.7569C230.3 21.4429 232.063 21.298 233.802 21.2256C233.827 21.2739 233.851 21.298 233.923 21.298C236.701 21.2739 239.503 21.2255 242.28 21.2014C243.826 21.2014 245.372 21.2014 246.918 21.2014C246.942 21.2014 246.99 21.2014 247.014 21.2014C247.304 21.2014 247.594 21.2014 247.884 21.2014C247.956 21.2255 248.029 21.2256 248.101 21.2256C251.917 21.2739 255.733 21.2981 259.574 21.3464C259.815 21.3464 260.033 21.3463 260.274 21.3222C262.303 21.2014 264.332 21.0807 266.385 20.9357C266.989 20.8874 267.593 20.7908 268.221 20.7908C267.931 20.9116 267.593 21.0082 267.279 21.1289ZM226.605 21.8052C226.846 21.7328 227.088 21.6362 227.329 21.5396C227.353 21.5637 227.353 21.5879 227.378 21.612C227.112 21.6845 226.87 21.7569 226.605 21.8052ZM227.812 21.5637C227.885 21.5154 227.957 21.4912 228.03 21.4429C227.981 21.5637 227.909 21.612 227.812 21.5637ZM269.187 20.2353C267.955 20.5734 266.675 20.6942 265.419 20.7666C264.018 20.8391 262.593 20.9358 261.192 21.0324C260.685 21.0565 260.178 21.1048 259.67 21.1048C256.579 21.1048 253.511 21.1048 250.42 21.0806C250.057 21.0806 249.719 21.0806 249.357 21.0565C249.333 21.0323 249.309 21.0082 249.26 21.0082C245.179 20.9357 241.097 20.8633 237.015 20.9357C236.773 20.9116 236.532 20.9116 236.266 20.8875C236.508 20.8391 236.773 20.7667 237.015 20.7425C239.672 20.4286 242.328 20.3078 244.985 20.1387C246.893 20.0179 248.826 19.8005 250.734 19.7281C250.975 19.7281 251.193 19.7039 251.434 19.7039C251.458 19.7039 251.483 19.7281 251.507 19.7281C254.043 19.7281 256.579 19.7523 259.115 19.7523C261.603 19.7523 264.115 19.728 266.602 19.8488C267.593 19.8971 268.583 19.9696 269.573 20.0421C269.477 20.187 269.308 20.2111 269.187 20.2353ZM235.71 17.989C236.677 17.6751 237.691 17.4577 238.657 17.192C240.445 16.709 242.256 16.4674 244.092 16.3949C247.642 16.25 251.193 16.3949 254.743 16.7814C254.912 16.8055 255.081 16.8538 255.25 16.9021C254.26 16.8538 253.294 16.8055 252.304 16.7814C250.951 16.7572 249.574 16.7331 248.222 16.7572C246.845 16.7814 245.468 16.878 244.067 16.9021C244.019 16.9021 243.995 16.9263 243.995 16.9746C243.053 17.0712 242.135 17.192 241.193 17.2886C238.247 17.6026 235.372 18.2547 232.546 19.1001C232.45 19.1242 232.353 19.1242 232.232 19.1242C233.392 18.7619 234.551 18.3513 235.71 17.989ZM232.184 19.1967L231.701 19.4382C231.677 19.3899 231.677 19.3657 231.653 19.3174C231.822 19.2933 231.991 19.245 232.184 19.1967ZM231.097 19.8005C234.793 18.5687 238.561 17.7233 242.425 17.361C243.729 17.2403 245.009 17.1436 246.314 17.047C246.338 17.047 246.338 17.047 246.362 17.047C246.966 17.047 247.57 17.047 248.174 17.047C249.502 17.047 250.855 17.0713 252.183 17.1196C254.453 17.192 256.724 17.3611 258.994 17.5301C262.255 17.9649 265.516 18.4721 268.704 19.2933C268.873 19.3416 269.018 19.3899 269.187 19.4382C267.738 19.2209 266.288 19.076 264.839 18.9069H264.815C264.67 18.8827 264.525 18.8827 264.38 18.8585C264.332 18.8585 264.308 18.8344 264.26 18.8585C263.849 18.8102 263.463 18.7861 263.052 18.7378C263.028 18.7378 263.004 18.7378 262.979 18.7378C262.81 18.7136 262.641 18.7137 262.472 18.6895C262.4 18.6654 262.327 18.6653 262.255 18.6653C262.062 18.6412 261.868 18.6412 261.675 18.6171C261.603 18.5929 261.506 18.5929 261.434 18.5929C261.24 18.5687 261.071 18.5687 260.878 18.5446C260.806 18.5204 260.709 18.5204 260.637 18.5204C260.443 18.4963 260.274 18.4963 260.081 18.4721C259.984 18.448 259.912 18.448 259.815 18.448C259.646 18.448 259.477 18.4238 259.284 18.4238C259.163 18.3996 259.042 18.3997 258.922 18.3997C258.801 18.3997 258.656 18.3997 258.535 18.3755C258.366 18.3272 258.197 18.303 258.028 18.3513C257.835 18.3513 257.642 18.3272 257.473 18.3272C257.183 18.2306 256.917 18.2306 256.627 18.2789C256.506 18.2789 256.386 18.2547 256.265 18.2547C256.12 18.2547 255.975 18.2547 255.83 18.2547C255.54 18.2064 255.25 18.2064 254.985 18.2306C254.526 18.2064 254.067 18.2064 253.608 18.2064C253.246 18.134 252.908 18.1339 252.545 18.1822C252.038 18.1822 251.507 18.1822 250.999 18.1822C250.251 18.0373 249.502 18.0615 248.753 18.2064C248.512 18.2064 248.27 18.2306 248.029 18.2306C247.715 18.1581 247.401 18.1822 247.111 18.2547C245.782 18.303 244.43 18.3513 243.101 18.448C243.101 18.448 243.101 18.448 243.077 18.448C242.715 18.4721 242.353 18.4963 241.99 18.5204C241.918 18.5204 241.821 18.5204 241.749 18.5446C241.483 18.5687 241.217 18.5929 240.952 18.6171C240.445 18.5929 239.937 18.6412 239.43 18.762C239.116 18.7861 238.778 18.8102 238.464 18.8585C238.367 18.8585 238.271 18.8585 238.174 18.8827C238.126 18.8827 238.078 18.9069 238.005 18.9069C236.58 19.0518 235.155 19.2208 233.754 19.4141C233.706 19.4141 233.657 19.4624 233.657 19.5107C232.522 19.7039 231.363 19.8972 230.228 20.1387C230.493 20.0179 230.807 19.9213 231.097 19.8005ZM228.658 20.9599C230.59 20.5252 232.546 20.0662 234.503 19.6798C235.324 19.5107 236.169 19.3899 236.991 19.245C240.638 18.8827 244.309 18.6653 247.98 18.5687C252.787 18.4479 257.617 18.5688 262.424 19.0035C264.767 19.1967 267.11 19.4382 269.452 19.7281C269.573 19.7764 269.718 19.8247 269.839 19.8488C269.815 19.8488 269.791 19.873 269.766 19.873C267.641 19.6798 265.54 19.4865 263.39 19.4865C262.521 19.4865 261.651 19.4865 260.757 19.4865C260.709 19.4865 260.637 19.4624 260.588 19.4624C257.835 19.4865 255.081 19.4624 252.304 19.5107C252.014 19.5107 251.724 19.5107 251.434 19.5107C251.41 19.5107 251.386 19.5107 251.386 19.5349C251.169 19.5349 250.975 19.5349 250.758 19.5349C248.681 19.5832 246.579 19.8488 244.502 19.9454C239.672 20.1628 234.865 20.6942 230.083 21.2256C229.382 21.298 228.706 21.3464 228.006 21.4188C227.885 21.3947 227.788 21.3946 227.764 21.5396C227.619 21.5637 227.474 21.5879 227.329 21.612C227.353 21.5637 227.378 21.5396 227.402 21.4913C227.861 21.3464 228.271 21.1531 228.658 20.9599ZM246.241 5.98491C245.927 6.58874 245.637 7.14427 245.299 7.65149C244.333 9.07652 243.295 10.4291 242.087 11.6609C241.411 12.3372 240.662 12.9168 239.865 13.4241C238.73 14.1487 237.643 14.9457 236.483 15.6462C235.541 16.2259 234.551 16.7089 233.585 17.2161L233.537 17.1437C234.527 16.5398 235.517 15.936 236.508 15.3322C237.715 14.5834 238.826 13.7139 239.889 12.7719C241.99 10.8638 243.947 8.81081 245.662 6.56456C245.782 6.39549 245.927 6.25062 246.072 6.08154C246.072 6.05739 246.121 6.05737 246.241 5.98491ZM247.594 3.44886C247.256 4.02853 247.014 4.63237 246.579 5.11543C245.323 6.58878 244.14 8.11042 242.812 9.48715C241.169 11.2503 239.454 12.941 237.474 14.3419C236.604 14.9457 235.686 15.5013 234.769 16.0568C233.754 16.6848 232.764 17.2886 231.725 17.8924C231.001 18.303 230.228 18.6412 229.455 18.9793C229.672 18.8586 229.914 18.7619 230.131 18.6412C230.928 18.1822 231.749 17.7475 232.546 17.2645C233.005 16.9988 233.416 16.6364 233.827 16.2983C234.696 15.622 235.541 14.9699 236.387 14.2694C237.087 13.6898 237.788 13.1101 238.44 12.5063C239.164 11.83 239.889 11.1537 240.589 10.4291C241.459 9.53542 242.304 8.61761 243.126 7.65149C244.43 6.10568 245.927 4.75308 247.425 3.4005C247.473 3.44881 247.497 3.44886 247.594 3.44886ZM247.98 2.5793C247.521 3.03821 247.038 3.49717 246.555 3.90777C245.082 5.18789 243.729 6.58873 242.473 8.08623C241.7 8.97989 240.855 9.82527 240.034 10.6706C239.527 11.202 238.971 11.7092 238.44 12.2406C237.667 13.0135 236.846 13.7139 235.952 14.3661C235.227 14.8733 234.551 15.4288 233.899 16.0085C232.788 16.9987 231.532 17.6992 230.155 18.2547C230.397 18.0615 230.638 17.8683 230.856 17.675C233.802 15.139 236.773 12.6029 239.478 9.77698C240.469 8.73839 241.604 7.84469 242.667 6.87857C244.381 5.33276 246.12 3.76282 247.835 2.21702C248.029 2.02379 248.246 1.85472 248.463 1.68565C248.463 2.09625 248.222 2.33777 247.98 2.5793ZM246.676 2.91748C246.555 3.03825 246.435 3.18318 246.314 3.30394C244.937 4.5116 243.584 5.74341 242.184 6.92692C241.048 7.9172 239.913 8.90745 238.875 9.99435C236.87 12.1198 234.696 14.0038 232.498 15.9119C231.025 17.192 229.551 18.448 227.909 19.5349C227.474 19.8247 227.039 20.1387 226.556 20.4044C226.363 20.501 226.17 20.5735 225.953 20.6459C226.218 20.4044 226.484 20.1628 226.774 19.9213C226.846 19.8488 226.846 19.7764 226.774 19.7039C227.353 19.1725 228.006 18.7378 228.634 18.2547C230.518 16.7572 232.281 15.0907 234.02 13.4C234.841 12.5787 235.711 11.8058 236.556 11.0087C237.329 10.3083 238.126 9.60787 238.875 8.90742C239.986 7.84469 241.193 6.92691 242.449 6.00909C243.44 5.28449 244.381 4.48743 245.372 3.73868C245.758 3.44884 246.193 3.15901 246.676 2.91748ZM245.227 3.42468C244.043 4.43911 242.812 5.40525 241.531 6.29891C240.517 6.99936 239.575 7.79641 238.681 8.64178C237.908 9.36637 237.087 10.0668 236.314 10.7914C235.517 11.5401 234.696 12.2648 233.947 13.0377C232.522 14.5352 231.001 15.936 229.455 17.2886C229.286 17.4577 229.068 17.5543 228.875 17.6992C229.117 17.4335 229.334 17.1437 229.6 16.9021C230.928 15.6703 232.184 14.3661 233.343 12.9652C233.585 12.6512 233.851 12.3613 234.141 12.0957C235.372 10.8639 236.604 9.63201 237.86 8.44851C238.512 7.84468 239.237 7.36168 239.961 6.85446C241.073 6.05741 242.208 5.30861 243.343 4.5357C243.947 4.17341 244.575 3.78698 245.227 3.42468ZM227.619 18.448C229.334 16.7572 230.711 14.8008 232.208 12.941C234.261 10.3808 236.628 8.18283 239.406 6.41965C240.855 5.50183 242.353 4.68065 244.067 3.8836C242.256 5.09125 240.565 6.17813 238.923 7.33748C238.319 7.74809 237.763 8.25529 237.208 8.76251C236.242 9.68033 235.3 10.5981 234.382 11.5401C233.754 12.1922 233.15 12.8686 232.571 13.5449C231.774 14.511 230.904 15.4047 229.986 16.2742C229.382 16.8297 228.827 17.4094 228.247 17.989C228.03 18.1823 227.812 18.3514 227.571 18.5446C227.571 18.5204 227.595 18.4963 227.619 18.448ZM219.262 23.7617C218.996 23.9791 218.827 24.0756 218.61 24.0273C218.779 23.9549 218.948 23.8825 219.262 23.7617ZM218.562 24.0273L218.055 24.293C218.175 24.0998 218.344 24.0273 218.562 24.0273ZM216.823 24.5104C216.605 24.7037 216.46 24.752 216.291 24.7278C216.412 24.6795 216.557 24.607 216.823 24.5104ZM208.925 26.3219C211.316 25.8147 213.707 25.4282 216.05 24.7278C216.098 24.7036 216.171 24.7278 216.243 24.7278C215.132 25.2592 213.997 25.6456 212.789 25.8388C211.292 26.0804 209.794 26.3702 208.297 26.6359C208.128 26.66 207.958 26.66 207.789 26.66C208.152 26.5634 208.538 26.4185 208.925 26.3219ZM122.046 15.0906C121.756 15.1631 121.49 15.0907 121.079 14.9216C121.563 14.8492 121.828 14.9216 122.046 15.0906ZM121.007 15.3805C121.345 15.2115 121.611 15.3322 121.852 15.4288C121.611 15.5254 121.345 15.5496 121.007 15.3805ZM122.601 15.1631C122.794 15.2114 123.012 15.2356 123.205 15.2839C122.988 15.3322 122.794 15.308 122.601 15.1631ZM143.421 20.5493C142.528 20.2836 141.658 19.9213 140.788 19.6073C140.958 19.6073 141.127 19.6073 141.296 19.6556C142.793 20.0904 144.267 20.5252 145.764 20.9599C145.861 20.9841 145.957 21.0565 146.03 21.1048C145.16 20.9358 144.267 20.7908 143.421 20.5493ZM146.054 21.1289C146.489 21.0806 146.851 21.2981 147.237 21.4188C146.827 21.4188 146.44 21.298 146.054 21.1289ZM176.511 16.6848C174.53 17.6267 172.55 18.617 170.521 19.4865C168.661 20.3077 166.681 20.8874 164.676 21.298C164.12 21.4188 163.565 21.5154 163.034 21.612C163.178 21.5396 163.348 21.4671 163.517 21.4429C166.077 20.7908 168.565 19.9213 171.004 18.8827C173.057 18.0132 175.11 17.1678 177.187 16.3225C176.97 16.4432 176.753 16.564 176.511 16.6848ZM192.331 2.96576C191.969 3.49713 191.679 3.88355 191.438 4.29416C191.075 4.89799 190.641 5.42937 190.037 5.81582C189.747 6.00905 189.481 6.25057 189.24 6.49211C187.283 8.32775 185.11 9.87358 182.887 11.3469C182.501 11.6126 182.09 11.8058 181.656 12.0232C179.627 13.0376 177.598 14.0763 175.545 15.0665C174.41 15.6221 173.25 16.081 172.091 16.564C170.69 17.1678 169.265 17.7475 167.864 18.3272C165.715 19.245 163.565 20.187 161.343 20.9599C160.401 21.2981 159.435 21.5395 158.469 21.8052C158.372 21.8294 158.251 21.8294 158.155 21.8294C158.565 21.6845 158.952 21.5154 159.362 21.3947C160.715 20.9357 161.995 20.356 163.275 19.7764C164.676 19.1484 166.101 18.5929 167.526 18.0132C167.671 17.9408 167.84 17.8924 167.985 17.82C170.304 16.7089 172.647 15.5979 174.965 14.4868C175.811 14.1004 176.68 13.7623 177.501 13.3275C179.264 12.4097 181.004 11.4918 182.718 10.5257C183.346 10.1634 183.878 9.68036 184.457 9.2456C185.472 8.49686 186.486 7.77228 187.452 6.99938C188.105 6.49216 188.733 5.93658 189.336 5.3569C190.158 4.55985 191.027 3.83529 191.921 3.13485C192.017 3.1107 192.09 3.08653 192.331 2.96576ZM165.159 15.5737C167.719 13.7622 170.255 11.9266 172.84 10.1634C174.047 9.34223 175.327 8.61763 176.583 7.89303C177.839 7.19259 179.144 6.56461 180.424 5.93663C182.67 4.80143 185.013 3.95606 187.404 3.13485C188.877 2.62764 190.351 2.14458 191.848 1.70982C191.534 1.8789 191.22 2.04792 190.882 2.19284C189.626 2.70006 188.394 3.18311 187.138 3.69033C186.559 3.93186 185.979 4.14926 185.399 4.39079C182.574 5.5743 179.82 6.92688 177.139 8.40023C176.728 8.61761 176.366 8.90742 175.956 9.12479C174.627 9.8977 173.275 10.6223 171.97 11.4194C171.197 11.8783 170.473 12.4338 169.724 12.941C167.84 14.2936 165.908 15.5737 163.879 16.7089C163.806 16.7572 163.734 16.7814 163.662 16.8297C163.637 16.8055 163.613 16.7573 163.613 16.7331C164.12 16.3467 164.628 15.9602 165.159 15.5737ZM152.237 22.5299C152.624 22.4091 153.01 22.2883 153.421 22.1676C155.401 21.6362 157.285 20.8149 159.048 19.7764C160.86 18.7136 162.623 17.6026 164.483 16.6607C166.318 15.7428 167.985 14.5351 169.627 13.3516C171.052 12.3372 172.477 11.347 174.023 10.5499C175.183 9.94607 176.245 9.19728 177.356 8.54514C177.743 8.30361 178.153 8.06206 178.564 7.84468C180.69 6.73363 182.839 5.69505 185.037 4.75307C186.341 4.19755 187.67 3.71448 188.974 3.15896C190.037 2.70005 191.1 2.21699 192.162 1.73393C192.597 1.5407 193.032 1.2992 193.612 1.00936C193.418 1.46827 193.249 1.73397 192.935 1.92719C192.79 1.99965 192.645 2.07213 192.5 2.16874C190.713 3.06241 188.926 3.95606 187.163 4.87388C186.003 5.47771 184.892 6.15397 183.781 6.80611C183.008 7.26502 182.235 7.72395 181.438 8.18286C179.748 9.14899 178.033 10.091 176.342 11.0571C175.521 11.5402 174.7 12.0473 173.902 12.5304C173.468 12.7961 173.033 13.0618 172.574 13.3033C170.28 14.6076 167.961 15.9119 165.666 17.2161C165.473 17.3127 165.304 17.4093 165.111 17.506C163.782 18.1822 162.454 18.8344 161.125 19.5349C159.725 20.2836 158.251 20.8633 156.778 21.3947C155.643 21.8053 154.483 22.1676 153.348 22.554C152.962 22.7231 152.599 22.7472 152.237 22.5299ZM154.797 22.9646C155.087 22.8921 155.353 22.8197 155.643 22.7472C155.788 22.7231 155.933 22.6989 156.077 22.723C155.691 22.9163 155.28 23.0854 154.797 22.9646ZM155.184 22.5781C154.652 22.7231 154.073 22.7714 153.517 22.8439C154 22.6748 154.483 22.4816 154.991 22.3125C157.527 21.5154 159.99 20.5734 162.309 19.245C162.961 18.8827 163.637 18.5687 164.29 18.2306C166.125 17.2886 167.937 16.2983 169.7 15.2114C170.062 14.9941 170.424 14.8008 170.787 14.6076C172.622 13.6415 174.41 12.6029 176.149 11.4918C176.535 11.2503 176.946 11.0329 177.381 10.8155C179.337 9.84942 181.173 8.66595 183.057 7.53075C183.709 7.1443 184.385 6.75782 185.037 6.37137C187.38 4.94633 189.819 3.71451 192.283 2.50685C192.331 2.48269 192.38 2.48267 192.573 2.41021C192.186 2.70005 191.921 2.86912 191.679 3.0865C191.027 3.61787 190.327 4.07684 189.747 4.65652C188.612 5.79171 187.38 6.80615 186.076 7.74812C185.375 8.27949 184.675 8.81082 183.999 9.36634C183.226 9.97017 182.429 10.5257 181.559 10.9846C180.4 11.6126 179.265 12.2889 178.081 12.8686C176.149 13.8347 174.192 14.7284 172.236 15.6704C171.028 16.25 169.796 16.8297 168.589 17.3852C167.623 17.82 166.608 18.2064 165.642 18.6171C164.797 18.9793 163.976 19.2933 163.154 19.7039C161.536 20.4768 159.869 21.1048 158.179 21.6603C157.116 21.9743 156.15 22.3124 155.184 22.5781ZM159.121 21.926C160.377 21.612 161.609 21.1531 162.792 20.67C164.338 20.042 165.884 19.3899 167.429 18.762C168.806 18.1823 170.159 17.6026 171.535 17.047C175.207 15.5978 178.685 13.7381 182.235 11.9749C183.564 11.3228 184.699 10.4291 185.882 9.55961C187.235 8.59348 188.563 7.579 189.771 6.41965C189.819 6.4438 189.844 6.49213 189.892 6.51628C189.554 6.92689 189.216 7.33749 188.878 7.72394C187.187 9.60789 185.279 11.2744 183.201 12.7478C182.743 13.0618 182.284 13.3758 181.801 13.6415C180.931 14.1487 180.086 14.6559 179.192 15.0906C178.178 15.5979 177.115 16.0326 176.076 16.4916C175.762 16.6365 175.424 16.733 175.11 16.9021C173.709 17.6026 172.26 18.134 170.811 18.6895C170.183 18.931 169.555 19.1967 168.927 19.4141C166.85 20.2111 164.724 20.8874 162.55 21.3947C161.633 21.612 160.715 21.9019 159.797 22.0951C158.952 22.2642 158.106 22.3608 157.237 22.3849C157.865 22.24 158.493 22.0951 159.121 21.926ZM155.933 23.9549C156.222 23.9066 156.512 23.9549 156.754 24.124C156.488 24.0757 156.222 24.0273 155.933 23.9549ZM156.778 24.1481C157.092 24.0756 157.358 24.1964 157.623 24.3172C157.309 24.3896 157.044 24.293 156.778 24.1481ZM170.424 28.858C170.738 28.9787 171.052 29.0753 171.342 29.2203C172.429 29.8241 173.492 30.4279 174.579 31.0559L174.603 31.0801C175.207 31.4424 175.811 31.8047 176.414 32.167C176.439 32.167 176.439 32.1911 176.463 32.1911C176.656 32.3119 176.873 32.4326 177.067 32.5534C177.115 32.6017 177.163 32.6259 177.236 32.65C180.81 34.7997 184.337 36.9976 187.863 39.2438C188.588 39.7269 189.336 40.1858 190.061 40.6447C190.327 40.8138 190.568 40.9828 190.834 41.1278C191.921 41.8282 192.984 42.5287 194.07 43.2291C195.954 44.5576 197.766 45.9826 199.505 47.5525C200.519 48.4703 201.558 49.364 202.596 50.2577C200.447 48.736 198.225 47.2868 196.003 45.8377C196.003 45.8377 196.003 45.8377 195.978 45.8377C195.109 45.2338 194.239 44.6058 193.37 44.002C191.945 43.0117 190.496 42.0215 189.071 41.0312C188.153 40.4032 187.259 39.7511 186.341 39.1231C185.351 38.4468 184.337 37.7705 183.346 37.1184C182.356 36.4663 181.366 35.8141 180.351 35.2103C178.806 34.2683 177.284 33.3021 175.714 32.3843C174.265 31.539 172.816 30.7178 171.487 29.6792C171.149 29.3893 170.787 29.1237 170.424 28.858ZM179.361 33.6403C178.467 33.109 177.55 32.5775 176.632 32.0703C176.535 31.9979 176.439 31.9255 176.318 31.9013C176.221 31.853 176.125 31.7805 176.028 31.7322C175.811 31.4665 175.472 31.3699 175.207 31.1767C174.941 30.9834 174.675 30.7902 174.41 30.597C174.603 30.6695 174.796 30.7661 174.989 30.8386C177.67 32.1187 180.279 33.5437 182.791 35.1378C185.158 36.6353 187.549 38.1086 189.892 39.6545C191.003 40.4032 192.042 41.2486 193.128 42.0698C193.225 42.1422 193.322 42.2388 193.418 42.3354C193.346 42.3113 193.249 42.3113 193.177 42.263C192.984 42.1422 192.79 42.0456 192.597 41.9249C188.298 39.0023 183.854 36.273 179.361 33.6403ZM186.583 43.2774C184.892 42.3113 183.298 41.2486 181.825 39.9685C181.68 39.8477 181.559 39.7027 181.438 39.5578C181.607 39.6544 181.752 39.7511 181.921 39.8718C183.491 40.9587 185.037 42.0456 186.583 43.1325C186.704 43.2291 186.8 43.3257 186.921 43.4223C186.824 43.374 186.704 43.3499 186.583 43.2774ZM190.906 45.6686C190.737 45.5961 190.568 45.5478 190.399 45.4754C189.53 44.9923 188.684 44.5092 187.839 44.0262C187.694 43.9537 187.573 43.8329 187.452 43.7122C187.646 43.8088 187.839 43.8813 188.032 43.9779C188.757 44.3643 189.505 44.7749 190.23 45.1856C190.472 45.3305 190.689 45.4995 190.906 45.6445C191.003 45.7169 191.1 45.7652 191.196 45.8377C191.1 45.7652 191.003 45.7169 190.906 45.6686ZM195.761 47.8423C194.723 47.311 193.684 46.8038 192.669 46.2483C191.317 45.5237 189.988 44.7507 188.66 44.002C185.834 42.432 183.25 40.4998 180.69 38.5192C178.347 36.6836 176.197 34.6306 174.12 32.5051C173.613 31.9738 173.009 31.5149 172.477 31.0076C172.333 30.8869 172.212 30.7661 172.091 30.6212C172.671 30.8144 173.154 31.1766 173.613 31.5389C175.328 32.8432 177.018 34.1717 178.733 35.5001C179.965 36.4421 181.197 37.384 182.429 38.3502C183.467 39.1472 184.482 39.9443 185.496 40.7414C187.573 42.4079 189.844 43.8329 192.114 45.2338C193.346 46.0067 194.578 46.8038 195.809 47.6009C195.979 47.7216 196.148 47.8907 196.292 48.0356C196.123 47.9873 195.93 47.939 195.761 47.8423ZM196.365 47.6009C195.181 46.7555 193.925 45.9826 192.669 45.2338C189.94 43.6156 187.259 41.9248 184.82 39.8718C184.119 39.2921 183.395 38.7608 182.67 38.2294C180.424 36.4904 178.202 34.7755 175.956 33.0365C175.859 32.964 175.762 32.8674 175.666 32.7708C175.859 32.8432 176.052 32.8915 176.197 32.9882C177.839 34.0026 179.458 35.0412 181.1 36.0557C181.221 36.1281 181.318 36.2247 181.438 36.2971C184.119 37.8188 186.535 39.7027 189.095 41.3693C191.148 42.6977 193.104 44.1469 195.085 45.5478C195.882 46.1034 196.703 46.6347 197.5 47.1661C197.597 47.2385 197.693 47.2627 197.814 47.311C198.007 47.456 198.201 47.6009 198.394 47.7458C198.418 47.7699 198.442 47.7941 198.49 47.8182C198.515 47.8182 198.515 47.8423 198.539 47.8423C200.06 48.9534 201.582 50.0644 203.104 51.1755C203.249 51.3204 203.394 51.4654 203.538 51.5861C203.321 51.5137 203.104 51.4654 202.91 51.3688C200.664 50.2577 198.418 49.0742 196.365 47.6009ZM203.683 51.6344C203.659 51.6344 203.635 51.6103 203.611 51.6103C203.635 51.5862 203.659 51.5861 203.683 51.562C203.683 51.562 203.708 51.562 203.708 51.5861C203.683 51.5861 203.683 51.6103 203.683 51.6344ZM178.975 31.394C183.491 33.0606 187.766 35.2344 191.583 38.1811C193.612 39.751 195.544 41.466 197.283 43.3741C197.404 43.4948 197.5 43.6397 197.597 43.7846C197.452 43.688 197.307 43.5914 197.162 43.4948C195.012 41.8524 192.911 40.0892 190.689 38.5675C187.09 36.0798 183.371 33.7128 179.385 31.8047C179.095 31.6597 178.806 31.4665 178.516 31.2975C178.685 31.3216 178.83 31.3457 178.975 31.394ZM177.067 30.9351C177.67 31.2491 178.274 31.539 178.878 31.8288C181.462 33.0607 183.902 34.534 186.341 36.0073C189.723 38.0603 192.887 40.4274 196.003 42.8427C197.887 44.316 199.626 45.9584 201.147 47.8182C201.944 48.7844 202.79 49.7021 203.611 50.6441C203.732 50.7649 203.828 50.934 203.925 51.0548C203.321 50.7166 202.886 50.1852 202.452 49.6538C202.307 49.4365 202.138 49.2191 201.872 49.1466C201.727 48.9776 201.606 48.7843 201.437 48.6153C198.007 45.3546 194.239 42.4804 190.423 39.6545C189.071 38.64 187.597 37.7705 186.172 36.8769C184.192 35.645 182.187 34.4132 180.158 33.2297C177.356 31.5873 174.41 30.1864 171.439 28.8822C171.197 28.7855 171.004 28.6406 170.787 28.4957C172.888 29.2444 175.062 29.8965 177.067 30.9351ZM214.19 9.87361L214.214 9.84943C214.214 9.84943 214.214 9.84946 214.19 9.87361ZM217.451 6.51628C217.257 6.70951 217.088 6.90271 216.919 7.09594C216.847 7.14424 216.774 7.19259 216.75 7.2892C216.605 7.43412 216.46 7.57902 216.315 7.72394C216.05 7.89301 215.832 8.08621 215.687 8.37605C215.543 8.52097 215.398 8.66595 215.253 8.81087C214.866 9.1007 214.504 9.46301 214.214 9.87361C213.49 10.2842 212.958 10.9121 212.379 11.4677C212.185 11.6367 212.04 11.8542 211.871 12.0474C211.654 12.3131 211.461 12.5545 211.243 12.8202C211.171 12.8927 211.123 12.941 211.05 13.0135C211.026 13.0376 211.026 13.0618 211.026 13.086C209.577 14.7284 207.934 16.2259 206.292 17.675C204.529 19.245 202.621 20.67 200.519 21.8052C199.36 22.4332 198.201 23.0854 197.041 23.7133C195.52 24.5345 193.877 25.0418 192.235 25.5732C191.075 25.9596 189.892 26.2736 188.684 26.5876C188.733 26.5393 188.781 26.491 188.829 26.4668C190.206 25.863 191.607 25.2833 192.983 24.7036C194.215 24.1964 195.495 23.7133 196.727 23.182C198.056 22.6023 199.336 21.9502 200.495 21.0806C202.017 19.9213 203.514 18.7861 205.036 17.6268C206.461 16.564 207.693 15.308 208.949 14.0521C209.794 13.2067 210.664 12.3614 211.533 11.516C212.306 10.7431 213.079 9.9702 213.828 9.17315C214.504 8.44855 215.229 7.7481 216.001 7.12011C216.533 6.70951 217.04 6.27473 217.547 5.81582C217.934 5.47768 218.393 5.2362 218.876 5.04297C218.417 5.50188 217.934 6.00907 217.451 6.51628ZM219.528 4.27006C219.431 4.39082 219.311 4.51157 219.214 4.63234C219.093 4.7048 218.948 4.75307 218.779 4.82553C218.996 4.43908 219.262 4.34251 219.528 4.27006ZM216.315 6.44383C215.06 7.40995 213.973 8.54512 212.91 9.72862C212.451 10.26 211.92 10.7189 211.437 11.202C210.591 12.0232 209.746 12.8444 208.9 13.6898C207.644 14.9457 206.413 16.2017 205.012 17.2645C203.901 18.1098 202.766 18.9069 201.654 19.7523C201.075 20.187 200.543 20.6701 199.964 21.1048C199.698 21.3222 199.384 21.5154 199.094 21.6603C197.983 22.24 196.872 22.8197 195.737 23.3269C194.964 23.6892 194.143 23.9548 193.322 24.2205C194.988 23.2544 196.558 22.1434 198.08 20.984C198.104 21.0082 198.152 21.0082 198.176 20.9599C199.577 19.9455 200.93 18.8827 202.234 17.7234C202.814 17.2162 203.369 16.6847 203.901 16.1534C204.191 15.9118 204.456 15.6462 204.674 15.3564C204.891 15.1148 205.133 14.8974 205.35 14.6559C205.422 14.5834 205.519 14.5352 205.591 14.4627C207.524 12.6029 209.601 10.9363 211.775 9.39052C213.2 8.37608 214.625 7.40993 216.074 6.41965C216.195 6.32304 216.364 6.27479 216.533 6.25063C216.46 6.32309 216.388 6.37137 216.315 6.44383ZM206.968 11.5885C208.466 10.3325 210.036 9.17312 211.702 8.15868C212.862 7.45824 214.021 6.78198 215.204 6.154C216.098 5.67094 217.064 5.30864 218.03 4.94634C217.91 5.06711 217.789 5.18783 217.644 5.28445C217.426 5.42937 217.209 5.55017 216.992 5.69508C214.673 7.12012 212.451 8.66589 210.253 10.26C208.466 11.5643 206.775 12.9652 205.229 14.5593C205.133 14.6559 205.084 14.7525 205.012 14.8733C204.867 14.994 204.746 15.139 204.601 15.2597C204.408 15.4288 204.239 15.5737 204.07 15.7669C203.418 16.3707 202.741 16.9746 202.065 17.5543C201.534 17.8683 201.075 18.2789 200.616 18.6895C200.06 19.1967 199.481 19.6556 198.901 20.1387C198.611 20.3561 198.346 20.5734 198.056 20.7908C197.065 21.5396 196.051 22.24 195.012 22.9163C193.539 23.8824 191.993 24.752 190.182 25.3316C190.351 25.1867 190.447 25.1142 190.544 25.0659C193.781 23.3752 196.606 21.129 199.239 18.6171C201.751 16.1776 204.311 13.8347 206.968 11.5885ZM190.544 25.4524C189.747 25.9837 188.805 26.1528 187.887 26.4185C188.781 26.0803 189.65 25.7664 190.544 25.4524ZM187.259 26.6117C187.138 26.805 186.945 26.8774 186.728 26.8533C186.921 26.7567 187.09 26.6842 187.259 26.6117ZM180.255 28.1092C179.844 28.0368 179.434 27.9884 179.023 27.916C179.144 27.8918 179.264 27.8677 179.385 27.8435C180.158 27.7952 180.907 27.7469 181.68 27.6986C181.825 27.6986 181.994 27.7228 182.139 27.7228C181.559 28.1092 180.931 28.2058 180.255 28.1092ZM183.226 28.1334C183.008 28.1576 182.767 28.2058 182.549 28.23C182.308 28.2541 182.066 28.2542 181.801 28.1334C181.97 28.0851 182.115 28.0368 182.284 27.9885C183.105 27.8194 183.926 27.602 184.771 27.6745C184.288 27.9643 183.781 28.0851 183.226 28.1334ZM186.583 26.9016C186.39 26.9982 186.196 27.1431 185.955 27.0948C186.148 27.0223 186.366 26.9499 186.583 26.9016ZM185.134 27.916C185.037 27.9401 184.94 27.9401 184.844 27.9401C185.689 27.6986 186.535 27.433 187.404 27.2156C189.868 26.5634 192.307 25.8389 194.723 24.9693C196.365 24.3655 197.935 23.6168 199.408 22.6989C200.109 22.2642 200.833 21.8535 201.558 21.4429C203.007 20.5976 204.335 19.5831 205.591 18.4962C206.533 17.6992 207.403 16.8538 208.297 16.0085C208.78 15.5737 209.214 15.0907 209.698 14.6559C210.229 14.1487 210.736 13.6173 211.219 13.086C213.731 10.8639 216.074 8.47266 218.32 5.96073C218.296 6.03319 218.296 6.10569 218.272 6.154C218.248 6.22646 218.199 6.27478 218.151 6.32309C216.219 8.73841 214.359 11.202 212.258 13.4724C210.833 14.9941 209.214 16.3224 207.596 17.6509C206.389 18.6411 205.181 19.6073 203.925 20.5251C201.944 21.9984 199.746 23.1337 197.476 24.0998C196.679 24.4379 195.906 24.7761 195.109 25.0901C192.742 26.0079 190.351 26.7808 187.863 27.3121C186.945 27.5295 186.052 27.7227 185.134 27.916ZM196.945 28.4232C197.645 28.3749 198.345 28.3025 199.07 28.2541C198.37 28.4232 197.669 28.544 196.945 28.4232ZM199.167 28.2059C199.384 28.1093 199.601 28.0609 199.843 28.1575L199.167 28.2059ZM219.31 37.1184C217.958 37.0942 216.629 36.9252 215.301 36.6595C212.234 36.0557 209.19 35.2827 206.34 33.9543C205.181 33.4229 204.07 32.7708 202.959 32.167C202.814 32.0945 202.669 31.9496 202.548 31.8288C203.249 32.1187 203.949 32.4085 204.65 32.6741C205.447 32.9881 206.244 33.3263 207.041 33.592C209.842 34.4856 212.62 35.4518 215.518 36.0798C216.823 36.3696 218.151 36.6353 219.455 36.901C219.624 36.9493 219.794 36.9976 219.963 37.0459C219.769 37.0701 219.528 37.1184 219.31 37.1184ZM235.976 37.384C232.281 37.3599 228.585 37.3116 224.89 37.2633C224.334 37.2633 223.779 37.1908 223.223 37.1425C219.576 36.7561 216.026 36.0073 212.499 35.0412C212.258 34.9687 212.016 34.8963 211.775 34.8238C210.084 34.2924 208.417 33.7369 206.727 33.1814C206.244 33.0123 205.761 32.8191 205.277 32.65C205.277 32.6259 205.302 32.6017 205.302 32.5776C209.504 33.8336 213.828 34.8238 218.175 35.4518C219.48 35.645 220.808 35.7899 222.112 35.9348H222.136C223.272 36.0798 224.407 36.2247 225.542 36.2971C226.532 36.3696 227.523 36.4662 228.513 36.5628C229.793 36.6595 231.049 36.7077 232.329 36.8285C233.633 36.9493 234.913 37.0942 236.194 37.2391C236.29 37.2391 236.387 37.3116 236.483 37.3358C236.314 37.3358 236.145 37.384 235.976 37.384ZM241.701 37.7705C239.744 37.6256 237.86 37.1425 235.928 36.901C234.624 36.7319 233.295 36.5628 231.967 36.5387C231.749 36.5387 231.556 36.5387 231.339 36.5146C228.32 36.2247 225.252 36.0798 222.233 35.7175C222.209 35.6933 222.185 35.6692 222.161 35.6692C217.571 35.0895 212.982 34.2683 208.49 33.1572C208.2 33.0848 207.934 33.0123 207.645 32.9399C207.62 32.9399 207.572 32.9157 207.548 32.9157C207.089 32.7949 206.654 32.6984 206.195 32.5776C206.171 32.5776 206.147 32.5534 206.123 32.5534C205.64 32.4326 205.157 32.2877 204.65 32.167C204.625 32.167 204.601 32.167 204.577 32.167C203.514 31.8288 202.476 31.4907 201.413 31.1284C201.316 31.1042 201.244 31.0318 201.147 30.9593C201.365 30.9834 201.582 30.9834 201.799 31.0317C203.683 31.4665 205.567 31.8771 207.403 32.4085C209.601 33.0365 211.823 33.5196 214.069 33.8577C215.277 34.0509 216.509 34.2441 217.716 34.4374C219.431 34.7272 221.17 34.8721 222.909 35.017C225.18 35.2102 227.426 35.4759 229.696 35.7175C231.87 35.959 234.044 36.1522 236.194 36.4662C237.981 36.7319 239.744 37.1184 241.531 37.4807C241.821 37.529 242.063 37.6739 242.353 37.7705C242.135 37.7947 241.918 37.7947 241.701 37.7705ZM237.474 35.5484C237.28 35.5242 237.087 35.5242 236.894 35.4759C235.855 35.2344 234.817 35.017 233.778 34.7514C231.339 34.0992 228.875 33.7611 226.363 33.592C224.962 33.4954 223.586 33.3746 222.209 33.2539C222.016 33.2297 221.847 33.1814 221.653 33.1331C221.871 33.1089 222.088 33.0848 222.305 33.0848C223.127 33.1089 223.972 33.1572 224.793 33.2055C225.711 33.2538 226.653 33.3022 227.571 33.3746C228.295 33.4229 229.02 33.4471 229.72 33.592C232.232 34.075 234.769 34.6064 237.208 35.4276C237.28 35.476 237.377 35.5001 237.474 35.5484ZM229.262 33.1814C227.837 33.1331 226.387 33.0606 224.962 32.9882C224.286 32.964 223.61 32.8674 222.958 32.8674C220.615 32.8674 218.272 32.6742 215.953 32.5051C215.567 32.481 215.156 32.4327 214.77 32.3602C211.968 31.8288 209.142 31.3941 206.389 30.6695C205.978 30.5729 205.591 30.4279 205.205 30.3072C205.084 30.283 204.939 30.2589 204.794 30.2347C204.939 30.2347 205.06 30.2347 205.205 30.2588C205.447 30.2588 205.664 30.2588 205.905 30.2588C209.746 30.597 213.586 30.911 217.402 31.3216C221.243 31.7322 225.035 32.2878 228.827 32.964C228.996 32.9882 229.141 33.0607 229.286 33.109C229.455 33.1573 229.648 33.1814 229.817 33.2297C229.624 33.2297 229.455 33.2056 229.262 33.1814ZM222.982 33.5679C224.334 33.6645 225.663 33.7852 227.015 33.8818C229.117 34.0267 231.17 34.3649 233.199 34.8963C234.817 35.3069 236.459 35.6933 238.078 36.1039C238.585 36.2247 239.092 36.418 239.599 36.587C239.792 36.6595 239.986 36.7802 240.179 36.901C239.961 36.8768 239.744 36.901 239.527 36.8527C236.942 36.3213 234.358 35.9832 231.725 35.7416C229.286 35.5243 226.87 35.2344 224.455 34.9929C224.214 34.9688 223.996 34.9446 223.755 34.9204C219.6 34.7272 215.543 33.9301 211.485 33.2055C209.818 32.8915 208.2 32.3602 206.558 31.9254C206.509 31.9013 206.461 31.8771 206.413 31.8288C206.606 31.8288 206.823 31.8047 207.016 31.8288C209.19 32.1187 211.34 32.4327 213.514 32.7225C216.629 33.109 219.818 33.3022 222.982 33.5679ZM243.536 37.384C243.85 37.529 244.116 37.7464 244.381 38.0121C244.261 37.9879 244.14 37.9396 244.043 37.9154C242.57 37.5048 241.145 36.9493 239.744 36.3213C239.527 36.2247 239.309 36.1522 239.092 36.0798C240.614 36.2971 242.111 36.7319 243.536 37.384ZM238.609 34.9929C238.585 34.9929 238.561 34.9929 238.536 34.9929C237.087 34.4857 235.614 33.9785 234.116 33.5437C234.092 33.5437 234.068 33.5195 234.044 33.5195C231.798 32.8674 229.503 32.2878 227.184 31.8288C227.16 31.8288 227.136 31.8288 227.136 31.8288C225.904 31.5149 224.672 31.2492 223.392 31.0801C222.668 30.9835 221.967 30.8869 221.267 30.7661C219.504 30.4763 217.716 30.3796 215.953 30.1864C213.321 29.9207 210.688 29.7758 208.055 29.5584C207.789 29.5343 207.548 29.4377 207.282 29.3893C207.427 29.3652 207.572 29.3411 207.741 29.3411C209.842 29.3411 211.92 29.3894 213.997 29.6309C214.794 29.7275 215.615 29.7999 216.436 29.8241C219.431 29.969 222.378 30.5004 225.349 30.9835C227.837 31.3941 230.252 31.9979 232.643 32.8191C234.358 33.3988 236.073 33.9543 237.788 34.534C238.053 34.6789 238.319 34.848 238.609 34.9929ZM206.823 29.0029C214.576 28.4474 222.185 29.0995 229.648 31.3699C231.339 31.8771 233.005 32.4809 234.672 33.0606C234.889 33.1331 235.082 33.278 235.3 33.3988C235.058 33.3505 234.841 33.3022 234.599 33.2297C233.609 32.9157 232.619 32.6018 231.604 32.2878C229.793 31.7081 227.933 31.2733 226.073 30.9351C224.721 30.7177 223.368 30.4521 222.016 30.2588C220.663 30.0656 219.311 29.8966 217.934 29.7758C216.098 29.5826 214.238 29.3893 212.379 29.2927C210.495 29.1961 208.635 29.1961 206.751 29.172C206.509 29.172 206.268 29.1478 206.05 29.1236C206.292 29.0753 206.558 29.027 206.823 29.0029ZM203.176 29.5584C204.505 29.486 205.809 29.5825 207.137 29.7275C208.393 29.8482 209.625 29.969 210.881 30.0656C215.398 30.4038 219.89 30.7902 224.358 31.5389C225.542 31.7322 226.725 32.0462 227.909 32.2878C228.03 32.3119 228.126 32.3119 228.247 32.336C228.44 32.3843 228.658 32.4326 228.875 32.481C229.093 32.6017 229.31 32.65 229.551 32.65C229.721 32.6983 229.89 32.7466 230.034 32.7708C230.252 32.8674 230.469 32.9399 230.687 32.9399C232.885 33.5195 235.058 34.1958 237.208 34.9446C234.237 33.9543 231.194 33.1572 228.102 32.6741C224.938 32.1669 221.75 31.7322 218.586 31.2733C217.475 31.1284 216.364 31.0801 215.253 30.9593C211.219 30.5728 207.21 30.1864 203.176 29.8C202.959 29.7758 202.741 29.7033 202.524 29.655C202.741 29.6067 202.959 29.5584 203.176 29.5584ZM198.756 29.7034C199.577 29.8 200.399 29.9207 201.244 30.0174C202.693 30.1864 204.118 30.4762 205.543 30.7902C207.306 31.2008 209.07 31.539 210.833 31.9013C211.05 31.9496 211.292 32.022 211.509 32.0945C211.316 32.0945 211.123 32.0945 210.929 32.0703C209.214 31.8288 207.5 31.5873 205.785 31.3699C205.616 31.3458 205.422 31.3699 205.253 31.3699C205.036 31.2975 204.843 31.2009 204.625 31.1526C203.369 30.9352 202.113 30.7178 200.857 30.5246C200.109 30.4038 199.36 30.2588 198.66 29.8965C198.442 29.7758 198.201 29.7033 197.983 29.6067C198.249 29.486 198.49 29.6792 198.756 29.7034ZM200.35 28.0851C200.471 28.0368 200.592 28.0126 200.713 27.9885C201.606 27.8677 202.5 27.7711 203.394 27.6503C203.466 27.6503 203.563 27.6503 203.635 27.6503C203.345 27.7228 203.055 27.8194 202.741 27.8677C202.162 27.9643 201.558 28.0368 200.978 28.0851C200.785 28.1334 200.568 28.1092 200.35 28.0851Z" fill="#F53756"/>
</svg>
