<svg width="58" height="57" viewBox="0 0 58 57" fill="none" xmlns="http://www.w3.org/2000/svg">
<path fill-rule="evenodd" clip-rule="evenodd" d="M22.0175 22.3683C22.0142 22.3664 22.0109 22.3645 22.0075 22.3626L24.58 17.8875C25.3676 18.3403 26.2629 18.5722 27.1713 18.5589C28.0797 18.5456 28.9678 18.2876 29.7419 17.8119C30.516 17.3363 31.1474 16.6607 31.5698 15.8563C31.9921 15.0519 32.1897 14.1485 32.1417 13.2412C32.0937 12.3339 31.8019 11.4564 31.297 10.701C30.7921 9.9457 30.0929 9.34051 29.2729 8.94922C28.4529 8.55793 27.5426 8.39503 26.6379 8.47769C25.7331 8.56034 24.8673 8.88548 24.1319 9.41886L21.1015 5.24024C22.5886 4.16182 24.3389 3.50442 26.1683 3.33731C27.9976 3.1702 29.8381 3.49956 31.496 4.29069C33.1538 5.08182 34.5676 6.30543 35.5884 7.83263C36.6092 9.35982 37.1992 11.1341 37.2963 12.9684C37.3933 14.8028 36.9939 16.6294 36.1399 18.2558C35.286 19.8822 34.0092 21.2482 32.4442 22.2098C31.1628 22.9972 29.727 23.4896 28.2406 23.6571C28.8452 25.034 29.1399 26.5314 29.0985 28.0427C29.0483 29.8789 28.5037 31.6676 27.5221 33.2204C26.5406 34.7731 25.1584 36.0323 23.5213 36.8654C21.8842 37.6986 20.0526 38.0747 18.2196 37.9543C16.3866 37.8339 14.6201 37.2213 13.106 36.1811C11.5919 35.1409 10.3864 33.7117 9.61651 32.0439C8.84657 30.3761 8.5407 28.5315 8.73111 26.7045L13.8651 27.2395C13.7709 28.1432 13.9222 29.0555 14.303 29.8804C14.6838 30.7052 15.28 31.4122 16.0289 31.9266C16.7777 32.4411 17.6515 32.7441 18.558 32.8036C19.4646 32.8632 20.3705 32.6771 21.1802 32.2651C21.9899 31.853 22.6735 31.2302 23.159 30.4622C23.6445 29.6943 23.9138 28.8096 23.9387 27.9014C23.9636 26.9932 23.743 26.0951 23.3003 25.3017C22.8576 24.5083 22.2091 23.849 21.4232 23.3933L22.0175 22.3683Z" fill="#F53756"/>
<path d="M20.9908 13.9252C20.8746 15.902 20.1862 17.8025 19.0094 19.3951C17.8326 20.9878 16.2181 22.204 14.3626 22.8956C12.507 23.5873 10.4904 23.7246 8.55821 23.2909C6.62603 22.8571 4.86162 21.871 3.47978 20.4525C2.09794 19.0341 1.15826 17.2445 0.775137 15.3017C0.392017 13.3588 0.581981 11.3465 1.3219 9.50962C2.06182 7.67278 3.31979 6.09066 4.94266 4.95587C6.56553 3.82107 8.4833 3.18254 10.4625 3.11802L10.628 8.19241C9.63263 8.22486 8.66821 8.54597 7.85209 9.11664C7.03597 9.68731 6.40336 10.4829 6.03126 11.4067C5.65917 12.3304 5.56364 13.3424 5.7563 14.3194C5.94897 15.2964 6.42152 16.1964 7.11643 16.9097C7.81134 17.623 8.69864 18.1189 9.67031 18.3371C10.642 18.5552 11.6561 18.4861 12.5892 18.1383C13.5224 17.7905 14.3342 17.1789 14.9261 16.3779C15.5179 15.577 15.8641 14.6213 15.9225 13.6272L20.9908 13.9252Z" fill="#F53756"/>
<path d="M37.2888 42.2648C37.3286 43.6309 37.0939 44.9912 36.5985 46.2649C36.103 47.5387 35.357 48.7 34.4045 49.6802C33.4521 50.6604 32.3126 51.4394 31.0535 51.9711C29.7945 52.5029 28.4416 52.7765 27.0748 52.7758C25.7081 52.7751 24.3555 52.5001 23.097 51.9671C21.8385 51.4341 20.6998 50.6539 19.7483 49.6728C18.7968 48.6917 18.0519 47.5296 17.5578 46.2553C17.0636 44.9811 16.8303 43.6206 16.8715 42.2545L21.9463 42.4077C21.9255 43.0947 22.0429 43.7789 22.2914 44.4197C22.5399 45.0605 22.9145 45.6449 23.393 46.1383C23.8715 46.6317 24.4441 47.024 25.077 47.292C25.7099 47.5601 26.3901 47.6984 27.0774 47.6987C27.7647 47.6991 28.4451 47.5615 29.0782 47.294C29.7114 47.0266 30.2844 46.6349 30.7634 46.142C31.2424 45.6491 31.6176 45.065 31.8667 44.4245C32.1159 43.7839 32.2339 43.0999 32.2139 42.4129L37.2888 42.2648Z" fill="#F53756"/>
<path fill-rule="evenodd" clip-rule="evenodd" d="M45.0945 3.73599C43.4014 3.45641 41.6651 3.60796 40.046 4.17666L41.7285 8.96685C42.5427 8.68086 43.4159 8.60465 44.2673 8.74525C45.1188 8.88585 45.9211 9.23873 46.6001 9.7713C47.2792 10.3039 47.8131 10.999 48.1526 11.7924C48.492 12.5858 48.6261 13.452 48.5424 14.3109C48.4587 15.1698 48.1599 15.9938 47.6736 16.7067C47.1873 17.4197 46.5293 17.9986 45.7602 18.39C44.9911 18.7814 44.1357 18.9728 43.2731 18.9463C42.4105 18.9199 41.5685 18.6765 40.8249 18.2387L40.3938 18.9709C40.3859 18.9664 40.378 18.9619 40.3701 18.9574L39.5323 20.4342L38.2491 22.6138C38.2607 22.6207 38.2724 22.6276 38.2841 22.6344L37.8649 23.3734C38.4589 23.7104 38.9798 24.1625 39.397 24.7032C39.8142 25.2439 40.1194 25.8624 40.2946 26.5224C40.4699 27.1825 40.5118 27.8709 40.4178 28.5474C40.3239 29.2239 40.0959 29.8748 39.7474 30.4621C39.3988 31.0494 38.9366 31.5613 38.3878 31.9678C37.839 32.3743 37.2146 32.6673 36.5512 32.8296C35.8879 32.9919 35.1988 33.0203 34.5243 32.913C33.8498 32.8058 33.2035 32.5651 32.6231 32.2051L29.9467 36.5194C31.1007 37.2354 32.3859 37.7139 33.7272 37.9272C35.0684 38.1404 36.4387 38.084 37.7578 37.7612C39.077 37.4385 40.3185 36.8559 41.4098 36.0475C42.5011 35.2391 43.4202 34.2212 44.1134 33.0534C44.8065 31.8855 45.2598 30.5911 45.4466 29.246C45.6335 27.9008 45.5502 26.5319 45.2017 25.2194C45.0855 24.7821 44.9408 24.354 44.7686 23.9378C45.9129 23.7866 47.0273 23.4419 48.063 22.9148C49.5924 22.1364 50.901 20.9852 51.868 19.5675C52.8349 18.1498 53.4291 16.5113 53.5955 14.8034C53.762 13.0954 53.4954 11.373 52.8204 9.79527C52.1454 8.21754 51.0837 6.83534 49.7333 5.77631C48.383 4.71729 46.7876 4.01558 45.0945 3.73599Z" fill="#F53756"/>
</svg>
