<svg width="25" height="20" viewBox="0 0 25 20" fill="none" xmlns="http://www.w3.org/2000/svg">
<path d="M24.4997 3.11292C24.4997 4.2455 24.4997 5.37808 24.4997 6.51066C23.7972 6.51184 23.0948 6.51479 22.3918 6.51479C20.9553 6.51538 19.5188 6.50476 18.0823 6.51715C15.5725 6.53897 13.9139 8.99584 14.8355 11.3117C15.3657 12.6443 16.6329 13.486 18.1291 13.4896C20.2523 13.4943 22.376 13.4931 24.4991 13.4949C24.4991 14.6275 24.4991 15.7601 24.4991 16.8926C24.4868 16.9209 24.4663 16.9487 24.4628 16.9776C24.2958 18.4747 22.9765 20.0019 20.9219 19.999C15.3059 19.9913 9.69055 20.0001 4.07459 19.9883C3.66743 19.9878 3.24151 19.9264 2.85661 19.7972C1.4119 19.3118 0.507349 18.0087 0.50442 16.4555C0.499147 13.8288 0.502662 11.202 0.502662 8.57525C0.502662 6.89231 0.495632 5.20937 0.50442 3.52643C0.515551 1.65 1.87472 0.152286 3.72484 0.0378488C4.75183 -0.0258588 5.78586 0.0101242 6.81637 0.0101242C11.5108 0.00835456 16.2046 0.00540513 20.899 0.0118939C22.4152 0.0136635 23.5336 0.69675 24.1898 2.08357C24.3409 2.40329 24.3983 2.76843 24.4997 3.11292Z" fill="white"/>
<path d="M24.5 7.92625C24.5 9.31071 24.5 10.6946 24.5 12.079C22.2838 12.0779 20.0681 12.0773 17.8518 12.0761C17.836 12.0761 17.8207 12.0743 17.8049 12.0725C16.403 11.9416 15.5318 10.3224 16.1909 9.07298C16.6092 8.27959 17.2759 7.91504 18.1559 7.91504C19.8027 7.91563 21.4495 7.91445 23.0957 7.91563C23.5638 7.91622 24.0319 7.92271 24.5 7.92625ZM18.5038 10.7017C18.6597 10.7017 18.8167 10.7105 18.9719 10.6999C19.3697 10.6722 19.655 10.3737 19.6527 9.9991C19.6504 9.62335 19.3645 9.32486 18.9649 9.30599C18.6532 9.29124 18.3404 9.29065 18.0293 9.30658C17.6309 9.32663 17.3462 9.6316 17.3486 10.0056C17.3509 10.3813 17.6368 10.6739 18.0363 10.6999C18.1916 10.7105 18.348 10.7022 18.5038 10.7017Z" fill="white"/>
</svg>
