<svg width="34" height="34" viewBox="0 0 34 34" fill="none" xmlns="http://www.w3.org/2000/svg">
<g clip-path="url(#clip0_56_14224)">
<path d="M33.5559 6.29713C32.3227 6.83808 31.0087 7.19663 29.6387 7.37073C31.0481 6.52926 32.1237 5.20695 32.6294 3.61313C31.3154 4.39657 29.8646 4.94995 28.3185 5.25877C27.0708 3.93024 25.2925 3.10742 23.3526 3.10742C19.5887 3.10742 16.5586 6.16241 16.5586 9.90757C16.5586 10.4464 16.6042 10.9646 16.7161 11.4579C11.0642 11.1822 6.06305 8.47334 2.70339 4.34683C2.11685 5.36447 1.7728 6.52926 1.7728 7.78317C1.7728 10.1376 2.98526 12.2247 4.79256 13.433C3.7003 13.4123 2.62878 13.0952 1.72099 12.5957C1.72099 12.6164 1.72099 12.6434 1.72099 12.6703C1.72099 15.974 4.07751 18.7181 7.16774 19.3503C6.61436 19.5016 6.01124 19.5741 5.38532 19.5741C4.95007 19.5741 4.51068 19.5492 4.09824 19.458C4.97909 22.1503 7.47863 24.1297 10.4507 24.1939C8.13771 26.0033 5.20086 27.0934 2.02151 27.0934C1.46399 27.0934 0.929258 27.0686 0.394531 27.0002C3.406 28.9422 6.97499 30.051 10.8238 30.051C23.3339 30.051 30.1734 19.6881 30.1734 10.7055C30.1734 10.405 30.1631 10.1148 30.1486 9.82674C31.4978 8.86921 32.6315 7.67333 33.5559 6.29713Z" fill="#F53756"/>
</g>
<defs>
<clipPath id="clip0_56_14224">
<rect width="33.1614" height="33.1614" fill="white" transform="translate(0.392578)"/>
</clipPath>
</defs>
</svg>
