<svg width="18" height="18" viewBox="0 0 18 18" fill="none" xmlns="http://www.w3.org/2000/svg">
<path d="M7.77766 9.19221C5.30184 9.18407 3.31102 7.18292 3.31814 4.70922C3.32525 2.23246 5.32624 0.239462 7.79799 0.247092C10.2748 0.254722 12.2646 2.25434 12.2575 4.72957C12.2509 7.20632 10.2489 9.20034 7.77766 9.19221ZM11.0374 4.71431C11.0343 2.91511 9.59004 1.47046 7.79189 1.46792C5.98714 1.46538 4.5352 2.91867 4.53825 4.72448C4.54079 6.52266 5.98612 7.96832 7.78325 7.97138C9.58749 7.97443 11.0404 6.52012 11.0374 4.71431Z" fill="white"/>
<path d="M8.57785 11.2386C7.8412 11.2386 7.10405 11.2254 6.36741 11.2412C4.03902 11.2905 1.94856 13.0917 1.57947 15.3915C1.49254 15.9327 1.50982 16.4917 1.48898 17.0431C1.47474 17.4165 1.34053 17.6185 1.01517 17.7131C0.675569 17.8118 0.300892 17.5752 0.276999 17.2217C0.149395 15.3508 0.535765 13.6289 1.80824 12.1878C3.07106 10.7574 4.66585 10.0275 6.57635 10.0152C8.04354 10.0056 9.51073 10.0122 10.9779 10.0137C11.3785 10.0142 11.6429 10.2533 11.6475 10.6104C11.652 10.9756 11.3826 11.231 10.9789 11.2325C10.1787 11.2356 9.37855 11.2335 8.57785 11.2335C8.57785 11.2356 8.57785 11.2371 8.57785 11.2386Z" fill="white"/>
<path d="M13.6881 14.8965C12.9901 14.8965 12.3241 14.897 11.6581 14.896C11.5631 14.896 11.4665 14.8996 11.3729 14.8858C11.0465 14.8385 10.8224 14.5674 10.8391 14.2495C10.8554 13.9321 11.107 13.6823 11.4385 13.6788C12.1116 13.6716 12.7847 13.6762 13.4578 13.6757C13.5259 13.6757 13.594 13.6757 13.6881 13.6757C13.6881 13.5867 13.6881 13.5195 13.6881 13.4519C13.6881 12.8038 13.6871 12.1558 13.6886 11.5077C13.6896 11.0972 13.9326 10.8256 14.2931 10.8246C14.652 10.8235 14.9052 11.1003 14.9072 11.5047C14.9102 12.1527 14.9082 12.8008 14.9082 13.4488C14.9082 13.517 14.9082 13.5852 14.9082 13.6757C14.9982 13.6757 15.0663 13.6757 15.1344 13.6757C15.7821 13.6757 16.4298 13.6742 17.0775 13.6762C17.4781 13.6777 17.7424 13.9158 17.747 14.2724C17.7516 14.6376 17.4827 14.893 17.0795 14.8955C16.4318 14.8991 15.7842 14.8965 15.1365 14.8965C15.0684 14.8965 15.0002 14.8965 14.9082 14.8965C14.9082 14.983 14.9082 15.0507 14.9082 15.1183C14.9082 15.7791 14.9113 16.4399 14.9062 17.1006C14.9036 17.414 14.713 17.6597 14.4425 17.7233C14.1736 17.7868 13.8848 17.6688 13.7654 17.4201C13.713 17.3107 13.6927 17.1769 13.6911 17.0538C13.684 16.4124 13.6876 15.7704 13.6876 15.1285C13.6881 15.0608 13.6881 14.9922 13.6881 14.8965Z" fill="white"/>
</svg>
