<svg width="17" height="18" viewBox="0 0 17 18" fill="none" xmlns="http://www.w3.org/2000/svg">
<path d="M0.00194539 4.18918C0.00194539 3.47983 -0.000266738 2.76974 0.00268276 2.06038C0.00636963 1.09 0.583734 0.50526 1.54748 0.503048C2.97578 0.499361 4.40407 0.498624 5.8331 0.503048C6.78432 0.505997 7.36389 1.08484 7.36684 2.04047C7.372 3.46877 7.372 4.89706 7.36684 6.32609C7.36316 7.28542 6.7939 7.86278 5.83826 7.86794C4.40038 7.87532 2.96324 7.87606 1.52536 7.86794C0.574148 7.86205 0.00636963 7.2751 0.00268276 6.31798C-0.00100411 5.60789 0.00194539 4.89854 0.00194539 4.18918ZM1.71708 2.21671C1.71708 3.53661 1.71708 4.84028 1.71708 6.1565C3.03624 6.1565 4.33918 6.1565 5.65613 6.1565C5.65613 4.83734 5.65613 3.53366 5.65613 2.21671C4.34361 2.21671 3.04656 2.21671 1.71708 2.21671Z" fill="white"/>
<path d="M13.2939 7.87016C12.5934 7.87016 11.8928 7.87384 11.1923 7.86942C10.2006 7.86278 9.63427 7.295 9.63206 6.3025C9.62911 4.89264 9.62911 3.48278 9.63206 2.07218C9.63427 1.06935 10.2072 0.503785 11.2181 0.502311C12.6192 0.500836 14.0194 0.500098 15.4204 0.502311C16.4218 0.503785 16.9955 1.07967 16.997 2.08398C16.9992 3.48499 16.9992 4.88526 16.997 6.28628C16.9955 7.29206 16.427 7.86352 15.4219 7.86942C14.7133 7.87311 14.0032 7.87016 13.2939 7.87016ZM11.342 6.15797C12.673 6.15797 13.97 6.15797 15.2744 6.15797C15.2744 4.83365 15.2744 3.52333 15.2744 2.22629C13.9472 2.22629 12.6442 2.22629 11.342 2.22629C11.342 3.54693 11.342 4.84323 11.342 6.15797Z" fill="white"/>
<path d="M7.36832 13.8392C7.36832 14.5397 7.37127 15.2402 7.36758 15.9407C7.36242 16.9251 6.78653 17.4966 5.79623 17.4981C4.38637 17.5003 2.97651 17.501 1.56592 17.4981C0.582259 17.4958 0.00415751 16.9163 0.00194539 15.9311C-0.00100411 14.5213 -0.000266738 13.1114 0.00194539 11.7008C0.00342013 10.712 0.574148 10.1354 1.56149 10.1317C2.98094 10.1265 4.39965 10.1265 5.81909 10.1317C6.7939 10.1354 7.36094 10.7076 7.36684 11.6824C7.372 12.4013 7.36832 13.1203 7.36832 13.8392ZM5.65908 11.8505C4.32222 11.8505 3.01928 11.8505 1.72445 11.8505C1.72445 13.177 1.72445 14.4807 1.72445 15.7748C3.05025 15.7748 4.35393 15.7748 5.65908 15.7748C5.65908 14.4556 5.65908 13.1593 5.65908 11.8505Z" fill="white"/>
<path d="M13.3152 10.1302C14.0246 10.1302 14.7347 10.1265 15.444 10.1309C16.4181 10.1376 16.9947 10.7113 16.997 11.6787C17.0014 13.0981 17.0006 14.5168 16.997 15.9363C16.9947 16.9185 16.4137 17.4951 15.4271 17.4966C14.0172 17.4995 12.6074 17.4995 11.1968 17.4966C10.2087 17.4944 9.63427 16.9214 9.63206 15.9333C9.62911 14.5235 9.62911 13.1136 9.63206 11.703C9.63427 10.6965 10.2006 10.1339 11.2137 10.1295C11.9142 10.128 12.6147 10.1302 13.3152 10.1302ZM15.2759 15.7859C15.2759 14.4505 15.2759 13.1475 15.2759 11.8498C13.9501 11.8498 12.6472 11.8498 11.3494 11.8498C11.3494 13.1756 11.3494 14.4792 11.3494 15.7859C12.6693 15.7859 13.9663 15.7859 15.2759 15.7859Z" fill="white"/>
</svg>
