<svg width="32" height="33" viewBox="0 0 32 33" fill="none" xmlns="http://www.w3.org/2000/svg">
<path d="M15.1871 0.580566C15.8537 0.580566 16.5204 0.580566 17.1871 0.580566C17.568 0.626399 17.9496 0.661398 18.3288 0.719729C21.9181 1.27055 25.0157 2.77384 27.5366 5.42627C29.7716 7.77788 31.2091 10.5261 31.7608 13.7277C31.8592 14.3002 31.9217 14.8794 32 15.4552C32 16.1218 32 16.7885 32 17.4551C31.9808 17.556 31.9508 17.6568 31.9433 17.7593C31.8042 19.5376 31.3792 21.2442 30.6466 22.8717C26.889 31.2231 16.7979 34.7288 8.68606 30.5106C8.54772 30.439 8.34522 30.4173 8.19438 30.4556C6.311 30.9323 4.43012 31.4206 2.5509 31.9139C1.74005 32.1264 0.933358 32.3581 0.125003 32.5806C0.0833355 32.5389 0.0416678 32.4972 0 32.4556C0.0358343 32.3722 0.0808354 32.2914 0.105003 32.2039C0.800854 29.679 1.49754 27.1549 2.17922 24.6258C2.22172 24.4691 2.18839 24.2541 2.11005 24.1091C0.296674 20.7742 -0.271674 17.2326 0.39751 13.5086C1.63671 6.61458 7.17269 1.9172 13.402 0.831393C13.9937 0.728063 14.592 0.663064 15.1871 0.580566ZM3.8476 28.7365C3.99094 28.7065 4.07261 28.6932 4.15177 28.6732C5.61098 28.2948 7.07102 27.9207 8.52772 27.5307C8.75856 27.469 8.93273 27.5032 9.13524 27.624C12.1812 29.4456 15.4446 30.0381 18.9188 29.264C25.5973 27.7749 30.4883 21.4209 29.0983 13.9277C27.8416 7.16123 21.4081 2.46218 14.5829 3.28383C10.6444 3.75798 7.5052 5.62127 5.2343 8.87118C3.33175 11.5953 2.5534 14.6344 2.92508 17.9509C3.15675 20.0167 3.88593 21.9025 5.0193 23.6358C5.13847 23.8183 5.16763 23.9758 5.10597 24.1833C4.91846 24.8108 4.74929 25.4433 4.57512 26.0749C4.33595 26.9449 4.09927 27.8149 3.8476 28.7365Z" fill="#F53756"/>
<path d="M20.2772 23.9808C19.1988 24.0241 18.2821 23.6066 17.3396 23.2816C14.6512 22.355 12.5745 20.6092 10.8019 18.4476C9.95026 17.4093 9.0969 16.3743 8.53522 15.136C7.94521 13.8352 7.70603 12.5011 8.32022 11.157C8.58356 10.5803 8.9919 10.0637 9.37024 9.547C9.60025 9.23367 9.96193 9.08868 10.3536 9.07451C10.7061 9.06118 11.0611 9.06701 11.4136 9.08451C11.727 9.10034 11.8853 9.33367 11.997 9.58616C12.2495 10.1561 12.4862 10.7336 12.7287 11.3078C12.9228 11.7678 13.1037 12.2328 13.312 12.6861C13.457 13.0011 13.4512 13.2927 13.2487 13.5686C12.9528 13.9694 12.6537 14.3685 12.3412 14.756C12.0136 15.161 11.997 15.2802 12.267 15.7277C13.5379 17.836 15.2887 19.3884 17.5805 20.3151C18.0721 20.5142 18.2388 20.4834 18.5813 20.0684C18.9588 19.6109 19.3313 19.1492 19.6988 18.6843C19.9447 18.3734 20.1005 18.2918 20.4805 18.4368C21.0039 18.6359 21.5122 18.8751 22.0214 19.1093C22.3706 19.2692 22.7056 19.4609 23.0573 19.6159C23.3073 19.7259 23.5773 19.7909 23.8331 19.8909C24.049 19.9751 24.1556 20.1484 24.1523 20.3801C24.1373 21.45 23.9115 22.42 22.9606 23.0858C22.1356 23.6625 21.2547 24.0375 20.2772 23.9808Z" fill="#F53756"/>
</svg>
