<svg width="33" height="33" viewBox="0 0 33 33" fill="none" xmlns="http://www.w3.org/2000/svg">
<path d="M20.2324 32.5806C17.0449 32.5806 13.8574 32.5806 10.6699 32.5806C10.5266 32.5631 10.3833 32.5447 10.2399 32.5281C9.27992 32.4189 8.30826 32.3714 7.36159 32.1906C4.81659 31.7047 2.82576 30.3822 1.52742 28.1056C0.715755 26.6831 0.429089 25.1114 0.294089 23.5039C0.249089 22.9672 0.211589 22.4297 0.169922 21.8931C0.169922 18.2889 0.169922 14.6847 0.169922 11.0806C0.187422 10.9272 0.205755 10.7747 0.223255 10.6214C0.330755 9.6714 0.381589 8.71057 0.554922 7.77223C1.21826 4.18057 3.77326 1.64473 7.35242 0.945566C8.70992 0.680566 10.0833 0.658066 11.4574 0.630566C11.7158 0.625566 11.9741 0.598066 12.2324 0.580566C14.8991 0.580566 17.5658 0.580566 20.2324 0.580566C20.4074 0.5964 20.5816 0.615566 20.7566 0.627233C22.0624 0.7164 23.3808 0.717233 24.6716 0.909733C28.4133 1.46723 30.9058 3.8464 31.7424 7.52723C32.0349 8.81473 32.0874 10.1214 32.1133 11.4322C32.1208 11.8356 32.1508 12.2389 32.1699 12.6431C32.1699 15.3097 32.1699 17.9764 32.1699 20.6431C32.1508 21.0156 32.1216 21.3872 32.1141 21.7597C32.0883 23.0722 32.0433 24.3822 31.7299 25.6656C30.8966 29.0781 28.8124 31.2689 25.3799 32.1164C24.0799 32.4372 22.7458 32.4906 21.4133 32.5231C21.0191 32.5339 20.6258 32.5614 20.2324 32.5806ZM29.2308 16.1097C29.2449 16.1097 29.2591 16.1097 29.2724 16.1097C29.2724 14.9331 29.3099 13.7539 29.2624 12.5789C29.2058 11.1664 29.1758 9.7414 28.9591 8.3489C28.6049 6.0739 27.2766 4.5514 25.0149 3.96973C24.1141 3.73807 23.1758 3.5714 22.2483 3.5339C20.0441 3.44557 17.8366 3.43807 15.6299 3.42473C14.0366 3.41473 12.4424 3.4364 10.8491 3.46307C9.68326 3.48223 8.51909 3.53557 7.37909 3.83057C5.42742 4.33557 4.12826 5.5164 3.53659 7.46223C3.12326 8.82223 3.01242 10.2239 3.00242 11.6297C2.97826 15.0047 2.96742 18.3797 3.00242 21.7539C3.01326 22.7689 3.11242 23.7972 3.31159 24.7922C3.80992 27.2881 5.30576 28.8731 7.84909 29.3239C8.89992 29.5106 9.97742 29.6139 11.0441 29.6322C14.0641 29.6839 17.0849 29.7031 20.1049 29.6714C21.4958 29.6564 22.8974 29.5756 24.2733 29.3764C26.7241 29.0214 28.3641 27.4797 28.8774 25.1114C29.0791 24.1814 29.1933 23.2172 29.2166 22.2656C29.2658 20.2139 29.2308 18.1614 29.2308 16.1097Z" fill="#F53756"/>
<path d="M16.1651 7.96518C20.9284 7.96256 24.7686 11.7956 24.7852 16.5701C24.8027 21.3349 20.9328 25.2029 16.1563 25.1959C11.3904 25.1889 7.55191 21.3428 7.55454 16.5779C7.55804 11.8122 11.4018 7.96693 16.1651 7.96518ZM16.1983 10.9942C13.1027 10.9775 10.5933 13.4562 10.5793 16.5447C10.5653 19.6463 13.0362 22.1538 16.1231 22.1722C19.2406 22.1897 21.7474 19.7119 21.7579 16.6033C21.7675 13.5026 19.2975 11.0099 16.1983 10.9942Z" fill="#F53756"/>
<path d="M26.0161 7.96385C26.0161 8.65251 25.4657 9.19968 24.7765 9.19593C24.1023 9.19218 23.554 8.63911 23.5545 7.96331C23.5551 7.27572 24.1065 6.73015 24.7968 6.73444C25.4785 6.73873 26.0161 7.28108 26.0161 7.96385Z" fill="#F53756"/>
</svg>
