<svg width="276" height="215" viewBox="0 0 276 215" fill="none" xmlns="http://www.w3.org/2000/svg">
<path d="M44.1 165.91C42.1 163.47 40.78 160.75 40.78 157.51C40.78 156.3 40.17 155.44 38.97 155.16C37.82 154.89 37.3 155.71 36.86 156.57C36.59 157.09 36.36 157.63 36.09 158.15C34.82 160.56 33.2 162.71 30.9 164.2C29.86 164.87 28.63 165.24 27.2 165.87C28.07 162.87 26.92 161.01 24.23 161.1C21.89 161.18 19.56 161.89 17.24 162.39C16.37 162.57 15.54 162.93 14.66 163.21C14.13 159.74 12.68 158.04 9.58 157.6C8.08 157.38 6.49 157.66 4.95 157.81C3.95 157.91 2.97 158.17 1.93 158.37C2.49 157.19 3.02 156.04 3.57 154.91C4.49 153.04 4.76 151.09 4.27 149.07C3.75 146.91 2.41 145.5 0 145.05C0.54 144.21 1.02 143.59 1.36 142.9C2.35 140.9 3.49 138.93 4.15 136.82C4.49 135.75 4.25 134.2 3.67 133.24C3.2 132.46 1.82 132.24 0.59 131.64C1.32 130.74 2.07 129.54 3.08 128.63C5.38 126.54 8.23 125.51 11.24 124.88C12.3 124.66 13.31 124.34 13.36 123.05C13.41 121.71 12.52 121.04 11.33 120.73C7.94 119.85 5.44 117.77 3.51 114.93C3.23 114.51 3.05 114.02 2.59 113.09C3.37 113.08 3.87 113.16 4.34 113.06C8.21 112.24 11.83 110.81 15.04 108.49C17.67 106.59 18.2 104.19 16.78 101.29C16.6 100.92 16.43 100.55 16.17 99.99C17.15 100 17.93 99.94 18.68 100.04C20.67 100.29 22.64 100.6 24.62 100.9C27.07 101.27 29.39 100.82 31.62 99.82C32.97 99.21 33.75 98.17 33.79 96.63C33.8 96.31 33.9 95.99 33.98 95.55C39.71 96.08 43.28 99.7 46.35 103.9C49.43 108.11 51.96 112.58 50.71 118.48C58.16 112.48 63.54 105.54 65.43 96.34C66.65 90.41 63.79 83.55 58.82 79.92C59.16 84.39 59.06 84.84 56.92 89C56.77 89.29 56.71 89.64 56.7 89.97C56.49 93.85 53.91 96.13 50.01 95.81C46.14 95.49 43.21 93.44 40.49 90.84C38.67 89.1 36.61 87.59 34.56 86.12C33.67 85.49 32.53 85.21 31.51 84.77C31.58 84.63 31.65 84.49 31.72 84.35C33.6 85.35 35.61 86.15 37.31 87.39C39.28 88.81 40.92 90.67 42.8 92.22C45.37 94.35 48.31 95.59 51.72 95.13C54.27 94.79 55.99 92.76 55.95 90.56C54.73 90.96 53.48 91.57 52.17 91.74C50.47 91.97 48.97 90.91 48.46 89.46C47.98 88.09 48.24 86.84 49.29 85.83C50.3 84.87 52.03 84.75 53.52 85.71C54.63 86.43 55.56 87.42 56.65 88.35C56.86 87.95 57.15 87.5 57.35 87.01C59.19 82.61 58.27 79.1 54.39 75.45C53.24 74.37 52.16 73.21 50.98 72.03C52.45 70.87 53.71 69.88 54.95 68.89C55.09 69.03 55.17 69.09 55.22 69.17C59.81 76.67 65.33 77.51 71.16 71.87C71.68 71.36 72.17 70.8 72.58 70.2C76.27 64.74 76.71 58.64 76.04 52.34C75.87 50.78 75.52 49.23 75.26 47.68C72.89 53.8 57.97 58.04 53.99 53.61C55.2 51.97 54.98 50.3 53.59 48.99C52.05 47.54 50.3 46.29 48.57 45.06C47.48 44.29 46.26 43.7 44.89 42.9C45.39 42.57 45.62 42.41 45.86 42.28C48.39 40.87 49.12 39.46 48.1 36.74C47.34 34.71 46.15 32.83 45.04 30.94C44.47 29.96 43.65 29.13 42.9 28.18C43.22 27.98 43.41 27.81 43.63 27.73C46.18 26.8 48.76 26.48 51.35 27.52C52.29 27.89 53.19 28.06 53.88 27.18C54.66 26.18 53.82 25.5 53.29 24.75C52.5 23.64 51.63 22.56 51.04 21.34C50.18 19.56 49.52 17.67 50.28 15.59C52.09 16.92 53.6 16.66 54.48 14.66C55.11 13.22 55.35 11.59 55.67 10.02C55.85 9.14002 55.87 8.23 55.96 7.31C58.51 8 60.43 7.54002 61.49 5.58002C62.43 3.83002 62.91 1.83 63.57 0C68.53 5.14 70.08 5.61999 73.61 2.89999C73.93 3.31999 74.23 3.75001 74.56 4.17001C75.53 5.39001 76.38 6.73001 77.52 7.76001C78.29 8.46001 79.47 9.04001 80.47 9.04001C81.24 9.04001 82.01 8.06001 82.94 7.39001C83.33 8.21001 84.11 9.18002 84.2 10.21C84.4 12.51 84.22 14.85 84.29 17.17C84.31 17.82 84.51 18.85 84.9 19C85.46 19.22 86.3 18.86 86.97 18.61C87.29 18.49 87.48 18.04 87.75 17.76C89.75 15.7 92.19 14.74 95.14 14.63C95.02 15.24 94.87 15.66 94.85 16.09C94.75 18.9 94.42 21.74 94.67 24.53C94.92 27.4 96.39 28.4 99.26 28.45C99.49 28.45 99.72 28.51 100.21 28.57C99.84 29.38 99.59 30.1 99.22 30.74C98.56 31.88 97.79 32.95 97.12 34.09C95.15 37.46 94.95 42.82 97.75 45.31C97.47 45.74 97.23 46.22 96.9 46.63C93.57 50.71 88.91 51.65 84.04 51.89C81.15 52.03 78.36 51.66 76.34 48.65C76.47 49.41 76.54 49.78 76.61 50.16C77.48 54.62 77.56 59.09 76.6 63.54C75.57 68.32 73.54 72.5 69.22 75.2C68.27 75.8 67.22 76.24 66.02 76.85C69.33 77.46 72.29 76.99 75.04 75.59C77.38 74.4 79.55 72.86 81.87 71.63C84.36 70.31 86.83 68.77 89.51 68.06C92.06 67.39 93.94 66.18 95.51 64.23C96.42 63.08 97.28 61.89 98.22 60.77C100.03 58.63 101.88 56.53 103.72 54.41C104.03 54.85 104.12 55.1 104.03 55.22C100.81 59.3 97.58 63.36 94.31 67.48C95.24 67.65 96.14 67.82 97.09 68C96.97 68.61 96.87 69.12 96.76 69.7C91.24 68.7 86.53 70.13 82.5 73.93C83.18 74.2 83.82 74.22 84.46 74.23C86.89 74.25 89.36 74.01 91.75 74.33C96.68 74.99 100.64 77.43 103.45 81.59C103.77 82.07 103.79 82.75 103.95 83.33C103.82 83.36 103.7 83.38 103.57 83.41C101.29 78.79 97.52 76.11 92.5 75.51C85.81 74.71 79.3 75.75 72.85 78.46C78.3 80.6 80.78 85.26 83.39 90.09C84.1 85.57 88.04 82.22 92.08 82.43C93.21 86.63 96.96 86.15 100.16 86.69C98.9 88.68 98.93 89.45 100.58 90.9C101.69 91.88 103 92.65 104.33 93.58C103.42 94.75 102.21 95.39 100.69 95.62C100.21 95.69 99.79 96.17 99.34 96.46C99.69 96.81 100 97.24 100.41 97.49C101.83 98.36 103.21 99.24 103.59 100.91C100.06 102.28 102.7 104.68 102.5 106.54C100.35 107.21 100.11 107.83 100.56 111.78C98.48 110.88 96.38 109.85 94.94 112.59C91.06 110.36 90.49 110.34 89.38 112.38C87.81 111.49 87.18 110 86.67 108.39C86.53 107.95 86.1 107.61 85.8 107.22C85.47 107.59 85.02 107.91 84.84 108.34C84.26 109.74 83.44 110.86 81.99 111.54C81.47 110.2 81.07 108.9 80.48 107.69C79.4 105.47 78.62 105.17 76.16 105.89C76.3 104.68 76.53 103.53 76.54 102.37C76.56 100.7 76.59 98.95 74.43 98.48C74.81 94.78 79.01 91.54 83.81 91.31C82.1 88.66 80.56 86 78.75 83.55C76.88 81.02 74.49 79.11 71.12 78.93C68.29 78.78 65.45 78.63 62.66 78.48C62.81 78.69 63.09 79.06 63.35 79.46C64.86 81.79 66.49 84.06 67.84 86.48C70.9 91.97 71.97 98.03 72.52 104.2C73.02 109.8 73.54 115.39 75.37 120.77C78.16 128.95 83.55 133.94 92.39 134.62C93.78 134.73 94.54 135.22 94.93 136.57C91.56 136.55 88.33 136.01 85.2 134.76C82.11 133.52 79.75 131.3 77.31 129.12C78.27 139.18 81.81 147.85 89.73 154.48C89.12 154.5 88.6 154.39 88.25 154.09C82.6 149.34 79.04 143.29 77.24 136.17C75.85 130.68 74.53 125.18 73.17 119.69C72.82 118.27 72.33 116.87 72.12 115.42C71.35 110.2 70.78 104.96 69.93 99.75C69.47 96.92 68.6 94.15 67.92 91.36C66.97 103.04 60.72 111.47 52.12 118.87C55.43 117.23 56.78 117.05 59.87 118.62C65.13 121.3 68.96 125.47 71.4 130.84C72.48 133.22 72.84 135.75 72.36 138.44C70.23 138.18 68.77 139.27 67.47 140.55C65.07 142.91 63.5 145.74 63.11 149.14C62.88 151.13 62.8 153.13 62.58 155.12C62.5 155.9 62.24 156.65 62.04 157.54C57.95 154.25 55.87 154.37 52.32 157.92C49.59 160.65 47.73 163.96 46.02 167.79C45.25 167.04 44.61 166.53 44.1 165.91ZM52.14 147.3C53.3 145.72 53.25 145.69 54.83 146.83C54.93 146.9 55.08 146.92 55.3 146.94C53.69 145.68 53.96 144.19 54.5 142.55C55.28 140.16 55.22 137.72 54.41 135.35C53.93 133.97 54.32 133.07 55.47 132.22C59.44 129.28 62.56 129.13 66.63 131.79C66.9 131.97 67.2 132.11 67.52 132.18C65.42 129.88 62.82 128.69 59.73 129.49C57.98 129.94 56.32 130.89 54.73 131.8C53.71 132.39 53.1 132.25 52.6 131.28C51.85 129.85 51.12 128.42 50.39 126.98C49.11 124.44 48.97 121.93 50.85 119.15C47.17 121.2 44.77 119.05 42.37 117.23C40.83 116.06 39.47 114.64 38.08 113.27C36.95 112.16 36.93 110.82 37.31 109.33C37.65 108.01 37.73 106.61 37.93 105.25C37.81 105.23 37.7 105.22 37.58 105.2C37.27 106.6 37.12 108.05 36.62 109.38C35.86 111.39 35.45 112.02 33.21 111.16C30.07 109.95 26.91 110.75 23.94 111.9C21.18 112.97 18.56 114.39 15.98 115.91C17.77 115.17 19.54 114.39 21.35 113.71C24.4 112.56 27.43 111.26 30.8 111.66C31.94 111.8 33.17 111.97 34.17 112.5C37.38 114.19 40.33 116.27 42.46 119.31C44.15 121.72 43.69 123.79 41.03 125.1C36.64 127.26 32.11 126.94 27.63 125.41C25.76 124.77 24 123.79 22.11 122.92C25.43 125.54 29.15 126.94 33.26 127.46C33.96 127.55 34.62 128 35.29 128.29C34.92 129.03 34.71 129.93 34.15 130.47C32.82 131.75 31.33 132.87 29.89 134.03C26.87 136.48 23.48 137.82 19.51 137.79C16.56 137.77 13.67 138.33 11.05 139.82C10.6 140.07 10.17 140.36 9.9 140.92C10.33 140.68 10.77 140.45 11.2 140.21C14.52 138.41 18.11 138.26 21.75 138.49C22.91 138.56 23.21 139.41 22.59 140.24C21.91 141.16 21.03 141.98 20.09 142.64C17.62 144.38 14.98 145.89 12.57 147.71C10.41 149.34 8.47 151.27 6.44 153.06C6.52 153.15 6.61 153.25 6.69 153.34C8.52 151.76 10.23 149.99 12.21 148.63C15.06 146.68 18.17 145.11 21.06 143.2C22.57 142.2 23.84 140.84 25.2 139.63C25.38 139.47 25.46 139.18 25.66 139.07C26.1 138.82 26.76 138.36 27.01 138.51C27.41 138.75 27.83 139.48 27.74 139.9C27.18 142.36 26.71 144.88 25.75 147.2C24.95 149.14 23.52 150.81 22.45 152.47C24.17 151.17 25.62 149.3 26.43 147.13C27.52 144.22 28.32 141.19 29.08 138.17C29.57 136.2 32.46 133.48 34.55 133.51C35.01 133.52 35.71 134.1 35.85 134.55C36.08 135.31 36.03 136.18 35.94 136.99C35.54 140.51 35.83 143.94 37.19 147.24C36.96 145.29 36.65 143.35 36.54 141.4C36.47 140.1 36.57 138.76 36.78 137.47C37.12 135.36 38.64 134.65 40.4 135.82C42.1 136.94 43.68 138.24 45.54 139.64C43.59 137.61 41.84 135.81 39.42 134.79C36.68 133.63 36.3 131.63 38.44 129.56C43.28 124.88 47.38 125.18 51.19 130.73C54.77 135.94 55.35 141.46 51.5 146.99C49.77 149.47 48.22 152.06 46.6 154.58C48.44 152.18 50.32 149.77 52.14 147.3ZM68.51 34.77C70.01 35.9 71.27 37.52 72.22 39.16C73.2 40.87 72.43 42.34 70.55 42.94C67.56 43.9 64.5 44.07 61.45 43.27C58.32 42.44 56.63 39.95 55.01 37.42C54.44 36.53 53.95 35.6 53.29 34.78C55.07 38.59 56.79 42.47 61.25 43.97C62.17 44.28 62.48 44.85 62.3 45.76C62.2 46.28 62.06 46.79 62.01 47.43C63.09 44.19 65.8 44.32 68.36 44.27C70.9 44.22 73.63 43.79 75.36 46.74C75.45 46.15 75.53 45.72 75.58 45.28C75.82 43.17 77 41.96 79.05 41.47C79.95 41.26 80.85 40.97 81.66 40.55C82.9 39.9 83.57 40.04 83.98 41.51C84.26 42.52 84.82 43.49 85.44 44.36C86.75 46.21 88.61 47.01 91.32 46.84C90.68 46.65 90.45 46.56 90.21 46.52C86.97 45.99 84.7 43.72 84.33 40.49C84.28 40 84.52 39.25 84.89 38.98C86.79 37.62 88.05 35.83 88.96 33.73C89.26 33.05 89.76 32.45 90.16 31.82C88.4 30.47 90.08 28.2 89.11 26.3C88.98 27.76 88.8 29.04 88.78 30.33C88.67 36.08 82.82 41.2 77.12 40.51C75.21 40.28 73.97 39.18 73.35 37.46C72.96 36.38 72.74 35.19 72.68 34.03C72.59 32.27 73.55 31.56 75.29 31.88C75.91 31.99 76.53 32.12 77.16 32.2C77.54 32.24 77.93 32.2 78.34 32.01C77.79 31.94 77.24 31.9 76.69 31.81C74.98 31.51 74.37 30.48 75.33 29.01C76.46 27.27 77.89 25.71 79.19 24.09C79.36 23.88 79.6 23.72 79.74 23.46C77.53 24.69 76.06 26.6 74.68 28.66C74.12 29.49 73.22 30.07 72.47 30.77C71.88 29.92 71.13 29.14 70.74 28.21C70.26 27.08 70.41 25.93 70.99 24.71C72.32 21.87 73.61 18.97 73.63 15.68C72.94 17.8 72.28 19.85 71.6 21.9C71.52 22.13 71.47 22.41 71.31 22.57C70.82 23.06 70.27 23.49 69.75 23.95C69.53 23.32 69.27 22.7 69.12 22.05C68.85 20.92 68.79 19.72 68.38 18.65C67.04 15.16 65.58 11.71 64.3 8.58002C64.35 8.87002 64.41 9.61001 64.64 10.29C65.53 12.98 66.49 15.64 67.38 18.32C67.73 19.37 68.37 20.67 67.29 21.39C66.88 21.66 65.47 20.83 64.78 20.22C63.27 18.89 61.92 17.38 60.31 16.07C61.5 17.45 62.46 19.15 63.91 20.15C68.23 23.13 69.56 27.57 70.38 32.31C70.47 32.84 70.23 33.61 69.85 33.97C69.63 34.18 68.81 33.88 68.32 33.67C66.37 32.87 64.44 32.02 62.51 31.19C62.48 31.29 62.45 31.39 62.42 31.48C64.47 32.55 66.69 33.4 68.51 34.77ZM92.24 101.38C92.65 101.23 92.99 101.1 93.43 100.94C92.64 100.62 91.8 100.47 91.23 100C90.69 99.55 90.44 98.75 89.79 97.64C90.7 97.55 91.22 97.5 91.58 97.46C91.38 97.03 91.12 96.46 90.91 96.01C90.5 96.45 90.24 97.76 88.88 96.91C87.59 96.1 86.88 94.11 87.52 92.98C88.64 91 90.5 90.27 92.64 90.07C93 90.04 93.37 90.09 93.75 89.82C93.15 89.79 92.5 89.59 91.96 89.75C90.72 90.12 89.7 90.11 88.96 88.86C89.19 89.32 89.41 89.78 89.71 90.39C88.09 91.39 86.6 92.59 84.49 91.77C84.64 93.89 82.76 96.56 80.79 97.26C80.8 98.2 80.81 99.09 80.82 99.98C80.74 99.92 80.66 99.85 80.58 99.79C81.63 98.33 82.56 96.76 83.76 95.44C85.1 93.97 86.54 94.33 86.95 96.28C87.29 97.9 87.14 99.62 87.19 100.91C87.36 100.26 87.65 99.15 88.04 97.67C90.18 99.5 91.75 101.37 92.07 104.06C93.46 101.92 93.68 104.62 94.98 104.68C93.94 103.43 93.12 102.44 92.24 101.38ZM53.48 86.36C52.01 85.56 50.49 85.55 49.64 86.41C48.8 87.27 48.65 88.29 49.16 89.38C49.85 90.85 51.2 91.34 52.58 90.99C53.72 90.7 54.71 89.83 55.76 89.21C55.18 88.25 54.6 87.28 54.02 86.32C53.92 86.38 53.82 86.44 53.72 86.5C53.65 86.46 53.56 86.41 53.48 86.36ZM86.47 159.11C90.26 153.3 97.59 151.79 103.43 155.96C108.01 159.23 109.37 166.44 106.11 171.45C102.59 176.86 95.4 178.38 90.01 174.86C84.77 171.43 83.15 164.21 86.47 159.11ZM119.14 128.66C120.68 127.42 122.09 125.98 123.77 124.99C128.2 122.39 134.24 123.59 137.77 127.57C141.31 131.56 141.71 137.66 138.64 141.79C138.29 142.26 137.58 142.65 137 142.71C134.07 143 131.57 144.13 129.37 146.08C128.9 146.49 128.08 146.8 127.47 146.72C119.06 145.59 114.75 136.08 119.38 128.96C119.3 128.86 119.22 128.76 119.14 128.66ZM95.98 123.24C99.31 117.74 106.31 115.9 111.79 119.15C112.26 119.43 112.69 120.17 112.73 120.72C112.89 123.11 113.26 125.58 114.88 127.28C116.9 129.39 117 131.46 116.28 134.03C115.71 136.07 113.63 138.16 111.55 138.57C109.89 138.9 108.22 139.38 106.71 140.11C105.56 140.66 104.51 140.85 103.36 140.46C102.12 140.05 100.91 139.54 99.69 139.08C94.46 135.53 92.78 128.53 95.98 123.24ZM161.46 150.88C160.81 151.53 160.28 151.83 159.21 151.33C156.03 149.82 152.83 150.08 149.9 152.05C149.05 152.62 148.47 152.58 147.71 152.04C142.96 148.7 141.78 142.08 145.09 137.23C148.41 132.36 154.98 131.07 159.82 134.34C165.48 138.15 166.27 146.09 161.46 150.88ZM123.53 155.93C124.81 153.17 124.57 150.43 123.89 147.7C123.79 147.31 123.35 146.91 122.96 146.69C120.71 145.39 118.94 143.64 117.68 141.35C117.45 140.94 116.98 140.54 116.53 140.39C108.62 137.67 100.38 144.3 101.41 152.56C101.47 153.04 101.82 153.66 102.23 153.9C105.3 155.7 107.62 158.06 108.48 161.64C108.54 161.88 108.78 162.19 108.99 162.23C109.17 162.27 109.51 162.04 109.63 161.84C112.82 156.63 117.5 154.87 123.53 155.93ZM121.77 157.06C126.3 157.74 129.35 160.42 130.54 164.84C131.72 169.25 130.4 173.02 126.91 176C126.36 176.47 125.93 176.73 125.16 176.17C121.66 173.6 117.89 173.29 113.98 175.16C113.21 175.53 112.8 175.41 112.26 174.79C109.06 171.18 108.61 165.95 111.69 161.13C113.77 158.17 117.28 156.38 121.77 157.06ZM150.12 170.02C145.46 167.11 143.98 160.88 146.86 156.29C149.94 151.38 156.11 149.94 160.91 153.01C165.52 155.96 166.89 162.16 163.96 166.8C160.95 171.56 154.85 172.98 150.12 170.02ZM145.27 186.95C141.05 186.92 137.63 185.41 135.05 182.07C134.78 181.72 134.1 181.53 133.62 181.54C133.01 181.56 132.38 181.8 131.8 182.05C130.3 182.69 129.13 183.34 129.21 185.48C129.31 188.15 127.91 190.4 126 192.31C125.58 192.73 125.28 193.62 125.41 194.18C126.41 198.51 129.11 201.36 133.44 202.37C137.91 203.41 141.63 201.94 144.46 198.35C146.96 195.16 147.25 190.63 145.27 186.95ZM144.07 162.3C143.84 159.19 144.87 156.14 147.22 153.57C146.16 152.44 144.96 151.46 144.17 150.23C143.29 148.86 142.83 147.23 142.11 145.75C141.89 145.29 141.48 144.74 141.04 144.6C136.96 143.31 133.21 144.14 130.23 147.13C127.16 150.21 126.42 154.08 127.78 158.22C129.11 162.29 131.97 164.7 136.22 165.36C136.66 165.43 137.19 165.32 137.61 165.14C139.69 164.26 141.75 163.33 144.07 162.3ZM155.41 172.99C150.35 172.46 146.41 170.29 144.26 164.16C140.51 164.41 137.6 166.09 135.62 169.3C133.49 172.75 133.41 176.36 135.3 179.89C137.78 184.52 142.98 186.64 147.72 185.08C148.22 184.92 148.79 184.4 148.98 183.92C150.01 181.29 151.8 179.41 154.25 178.06C154.71 177.8 155.18 177.18 155.26 176.66C155.43 175.49 155.37 174.27 155.41 172.99ZM116.08 113.81C119.55 108.69 126.47 107.22 131.76 110.48C136.61 113.47 138.77 119.98 136.38 124.41C127.79 120.82 123.82 121.73 117.78 128.67C113.66 125.49 112.86 118.56 116.08 113.81ZM127.39 35.86C131.9 38.69 133.23 44.57 130.37 49.07C127.56 53.49 121.67 54.83 117.25 52.04C112.78 49.22 111.45 43.28 114.28 38.81C117.11 34.37 122.92 33.06 127.39 35.86ZM118.53 88.33C114.16 85.5 112.94 79.31 115.91 75.02C119.02 70.53 125.16 69.46 129.46 72.73C129.91 73.08 130.28 73.81 130.32 74.38C130.46 76.49 130.98 78.49 132.38 80.06C133.36 81.16 133.38 82.17 132.9 83.37C132.63 84.05 132.31 84.71 132.18 85.02C129.13 90.01 123.15 91.33 118.53 88.33ZM158.01 130.8C157.57 131.47 157.14 131.67 156.34 131.51C152.75 130.76 149.44 131.52 146.55 133.76C145.8 134.34 145.32 134.23 144.63 133.81C140.06 130.98 138.66 124.97 141.52 120.33C144.3 115.81 150.31 114.42 154.88 117.23C159.53 120.09 160.95 126.32 158.01 130.8ZM123.61 176.71C128.01 179.44 129.33 185.1 126.58 189.51C123.94 193.74 118.17 195.12 113.99 192.52C109.46 189.7 108.15 184.16 110.95 179.66C113.65 175.31 119.24 174 123.61 176.71ZM111.76 76.53C109.61 76.65 107.7 77.6 106.13 79.07C105.43 79.73 104.78 79.83 103.91 79.5C100.26 78.13 97.95 75.6 97.43 71.72C96.9 67.79 98.37 64.58 101.69 62.42C105.02 60.26 108.54 60.31 111.92 62.35C112.67 62.8 113.16 63.75 113.63 64.55C114.29 65.68 114.65 67.03 115.46 68.01C116.38 69.12 116.6 70.26 116.3 71.52C116.05 72.58 115.56 73.58 115.18 74.6C114.55 76.25 113.31 76.44 111.76 76.53ZM164.57 196.79C165.66 199.77 165.4 202.64 163.53 205.34C163.33 205.63 163.41 206.28 163.59 206.63C165.65 210.58 170.5 212.32 174.73 210.87C180.33 208.95 182.92 202.48 179.71 197.18C177.66 193.81 173.02 191.42 168.37 193.37C167.94 193.55 167.56 193.89 167.21 194.22C166.36 195.01 165.54 195.84 164.57 196.79ZM186.46 199.7C184.25 199.73 182.19 199.39 181.03 196.91C180.36 195.47 178.94 194.4 177.91 193.11C177.52 192.62 177.05 192.04 177 191.47C176.64 187.71 178.92 184.08 182.46 182.61C186.09 181.11 190.17 182.1 192.69 185.09C195.17 188.03 195.48 192.2 193.47 195.47C192.12 197.69 189.06 199.67 186.46 199.7ZM178.75 155.83C182.18 159.85 181.58 165.97 177.42 169.29C173.58 172.36 167.68 171.84 164.77 168.13C167.41 163.94 167.53 159.64 165.03 155.24C169.41 151.43 175.26 151.73 178.75 155.83ZM127.97 52.85C127.6 53 127.25 53.11 126.93 53.27C124.55 54.5 122.11 54.67 119.54 53.93C119.04 53.79 118.27 53.91 117.87 54.22C112.6 58.34 113.31 66.72 119.19 69.9C119.68 70.17 120.37 70.11 120.97 70.11C122.76 70.12 124.56 69.92 126.32 70.12C127.36 70.24 128.27 70.32 129.02 69.58C130.15 68.46 131.24 67.29 132.25 66.06C132.45 65.82 132.35 64.97 132.1 64.77C128.27 61.84 126.91 58.08 128.13 53.4C128.17 53.29 128.07 53.14 127.97 52.85ZM154.12 179.67C158.69 176.88 164.61 178.55 167.18 183.35C169.43 187.55 167.78 193.45 163.84 195.25C160.08 190.99 156.67 190.32 151.41 192.85C148.31 188.45 149.57 182.45 154.12 179.67ZM134.4 87.89C135.46 84.09 138.88 81.4 142.82 81.47C143.79 81.49 145.25 81.15 145.55 82.72C146.14 85.8 148.06 87.65 150.87 88.79C151.21 88.93 151.62 89.44 151.63 89.79C151.69 93.19 150.45 96 147.45 97.77C144.43 99.56 141.35 99.52 139.22 98.3C134.91 95.7 133.33 91.72 134.4 87.89ZM138.1 47.71C132.93 47.41 128.73 51.43 128.78 56.53C128.82 61.52 133.07 65.53 138.02 65.26C143.07 64.99 146.95 60.47 146.34 55.53C146.29 55.13 145.86 54.51 145.52 54.45C141.66 53.75 139.27 51.48 138.1 47.71ZM161.28 84.97C163.69 81.2 162.63 76.11 158.93 73.76C155.08 71.31 150.01 72.37 147.6 76.13C145.06 80.09 146.1 85.06 149.98 87.57C153.67 89.95 158.85 88.76 161.28 84.97ZM165.73 44.07C162.51 42.24 159.51 42.17 156.46 43.83C155.68 44.26 155.27 44.78 155.32 45.78C155.41 48.07 154.59 50.12 152.95 51.71C152.22 52.42 152.11 53.07 152.4 53.9C152.64 54.59 152.95 55.25 153.26 55.91C153.58 56.58 154.01 56.87 154.87 56.76C157.77 56.38 160.39 57.15 162.56 59.15C163.31 59.84 163.91 59.82 164.75 59.38C167.76 57.8 169.46 55.34 169.67 51.96C169.89 48.49 168.31 45.89 165.73 44.07ZM188.81 212.82C191.68 214.7 195.41 214.6 198.14 212.59C200.97 210.5 202.15 207 201.16 203.63C200.17 200.27 197.24 197.89 193.77 197.75C193.21 197.73 192.52 197.96 192.08 198.31C190.73 199.38 189.39 200.36 187.59 200.55C187.19 200.59 186.72 201 186.48 201.37C183.87 205.55 185.2 210.51 188.81 212.82ZM137.27 82.04C137.01 82.21 136.43 82.07 136.08 81.9C131.65 79.65 130.07 73.92 132.71 69.75C135.58 65.22 141.34 63.95 145.38 67.01C145.77 67.3 146.06 67.79 146.26 68.24C146.85 69.56 147.41 70.9 147.92 72.26C148.07 72.66 148.18 73.35 147.97 73.55C146.04 75.4 145.13 77.7 144.9 80.36C142.14 80.19 139.58 80.53 137.27 82.04ZM109.86 96.03C105.07 94.2 102.47 88.96 104 84.25C105.4 79.94 109.97 76.79 113.46 77.72C112.32 83.05 114.66 88.91 121.77 90.94C119.7 95.56 114.44 97.78 109.86 96.03ZM163.65 62.1C163.89 62.51 164.06 63.17 163.89 63.56C162.91 65.81 162.89 68.02 163.4 70.42C163.57 71.21 162.48 72.36 161.8 73.2C161.22 73.92 160.63 73.3 160.05 72.91C157.09 70.9 153.91 70.46 150.62 71.94C149.6 72.4 149.12 72.15 148.63 71.34C146.68 68.15 146.81 64.97 148.38 62.19C152.22 56.27 160.34 56.43 163.65 62.1ZM160.61 177.01C166.9 178.76 169.85 182.82 169.5 189.2C173.9 189.65 178.29 185.83 178.82 181.08C179.19 177.8 178.12 175.01 175.59 172.87C175.15 172.5 174.34 172.31 173.77 172.42C171.43 172.86 169.24 172.56 167.06 171.64C166.53 171.42 165.72 171.43 165.2 171.68C162.95 172.76 161.58 174.65 160.61 177.01ZM137 102.25C137.1 102.05 137.37 101.53 137.61 100.99C138.15 99.76 138.14 98.88 136.78 97.96C134.7 96.55 133.45 94.38 133.17 91.84C133.04 90.72 132.54 90.37 131.55 90.19C127.63 89.5 123.71 91.84 122.47 95.68C121.28 99.39 123.13 103.75 126.58 105.34C130.31 107.07 134.63 105.89 137 102.25ZM152.97 50.05C150.96 53.3 146.11 54.38 142.73 52.32C139.09 50.1 137.92 45.4 140.12 41.87C142.46 38.12 147 37.02 150.67 39.31C154.36 41.62 155.34 46.2 152.97 50.05ZM205.78 211.73C202.17 209.49 201.11 204.79 203.4 201.21C205.65 197.7 210.29 196.7 213.84 198.95C217.27 201.13 218.27 205.8 216.06 209.28C213.85 212.77 209.23 213.87 205.78 211.73ZM180.36 65.46C180.35 66.68 180.22 67.71 180.36 68.72C180.71 71.26 182.5 72.72 184.64 73.69C187.72 75.08 191.22 74.15 193.52 71.53C195.57 69.2 195.89 65.6 194.3 62.77C192.72 59.95 189.48 58.45 186.22 58.97C185.25 59.12 184.74 59.46 184.53 60.56C184.07 62.92 182.47 64.47 180.36 65.46ZM150.13 196.27C148.01 199.7 149.08 204.28 152.5 206.42C155.99 208.6 160.62 207.53 162.76 204.04C164.94 200.49 163.89 196.01 160.36 193.8C156.9 191.63 152.31 192.74 150.13 196.27ZM90.82 153.82C93.62 152.25 96.65 151.86 99.97 152.48C99.79 148.46 101.05 145.03 103.84 142.02C103.06 141.78 102.35 141.72 101.82 141.39C99.97 140.24 98.2 138.98 96.37 137.82C95.92 137.53 95.22 137.21 94.8 137.36C88.29 139.72 86.11 148.7 90.82 153.82ZM195.35 85.31C197.57 81.88 196.61 77.38 193.18 75.15C192.39 74.63 191.62 74.44 190.6 74.8C189.48 75.19 188.15 75.51 187.04 75.28C184.94 74.85 183.92 76.06 183.01 77.44C180.82 80.76 181.88 85.33 185.22 87.47C188.72 89.72 193.1 88.78 195.35 85.31ZM156.38 89.82C156.44 94.03 159.7 97.36 163.78 97.49C167.86 97.62 171.35 94.54 171.74 90.45C172.12 86.51 169.2 82.72 165.28 82.19C164.78 82.12 163.82 82.39 163.74 82.68C162.72 86.52 160.08 88.64 156.38 89.82ZM179.04 65.92C180.13 69.83 177.53 73.96 173.4 74.92C169.21 75.89 165.03 73.15 164.2 68.87C163.41 64.8 166.25 60.74 170.42 60.07C171.69 64.36 174.58 66.33 179.04 65.92ZM206.12 71.29C209.22 73.39 210.04 77.64 207.95 80.73C205.85 83.82 201.54 84.64 198.51 82.51C197.7 81.94 197.09 81.31 197.07 80.16C197.05 79.32 196.8 78.35 196.33 77.67C195.19 76.01 195.86 74.64 196.69 73.22C198.68 70.15 203.1 69.24 206.12 71.29ZM178.8 72.72C175.23 76.62 171.17 77.2 166.53 74.65C165.56 76.65 165.4 78.62 166.14 80.63C166.28 81 166.81 81.23 167.17 81.52C168.56 82.63 169.93 83.76 171.35 84.83C171.88 85.23 172.51 85.73 173.12 85.77C176.32 85.98 179.26 84.05 180.54 81.06C181.73 78.27 181.08 75.02 178.8 72.72ZM208.15 92.12C205.23 90.22 204.4 86.4 206.28 83.5C208.12 80.65 212.1 79.85 214.93 81.76C217.76 83.66 218.52 87.44 216.65 90.29C214.76 93.15 210.98 93.97 208.15 92.12ZM182.73 62.05C184.54 59.22 183.75 55.48 180.96 53.65C178.12 51.79 174.27 52.63 172.46 55.51C170.67 58.36 171.46 62.08 174.25 63.9C177.11 65.78 180.87 64.96 182.73 62.05ZM113.21 61.86C113.26 58.32 114.53 55.66 116.65 53.72C115.11 51.59 113.63 49.54 112.03 47.31C106.93 47.47 102.87 53.82 105.06 58.83C105.23 59.21 105.67 59.77 105.97 59.75C108.52 59.65 110.87 60.28 113.21 61.86ZM170.77 137.77C172.68 132.86 177.89 130.59 182.89 132.78C186.8 134.49 188.95 139.64 187.3 143.88C185.53 148.45 180.42 150.71 175.86 148.93C171.43 147.2 169.1 142.08 170.77 137.77ZM190.3 110.02C191.25 108.86 192.08 107.56 193.17 106.57C196.06 103.94 200.74 103.89 203.98 106.3C207.23 108.72 208.49 113.18 206.85 116.74C206.67 117.14 206.19 117.54 205.77 117.68C203.64 118.35 201.95 119.59 200.62 121.38C200.34 121.76 199.77 122.12 199.31 122.15C192.88 122.62 188.19 116.23 190.52 110.21C190.46 110.14 190.38 110.08 190.3 110.02ZM172.23 109.61C173.84 105 178.77 102.54 183.35 104.09C183.74 104.22 184.18 104.7 184.29 105.11C184.78 106.86 185.45 108.64 186.92 109.65C188.75 110.9 189.15 112.43 189.02 114.45C188.92 116.06 187.7 117.93 186.22 118.56C185.04 119.06 183.87 119.69 182.86 120.46C182.09 121.05 181.34 121.35 180.43 121.25C179.44 121.14 178.46 120.95 177.48 120.8C173.02 118.99 170.68 114.05 172.23 109.61ZM225.25 119.92C224.87 120.5 224.52 120.81 223.65 120.61C221.05 119.99 218.71 120.68 216.84 122.6C216.3 123.16 215.86 123.22 215.21 122.94C211.16 121.2 209.24 116.46 210.94 112.33C212.65 108.19 217.33 106.2 221.44 107.87C226.25 109.83 228.08 115.61 225.25 119.92ZM197.83 129.61C198.35 127.36 197.75 125.36 196.81 123.43C196.67 123.15 196.28 122.93 195.96 122.82C194.08 122.21 192.49 121.18 191.2 119.68C190.97 119.41 190.55 119.19 190.19 119.14C183.88 118.35 178.79 124.58 180.85 130.56C180.97 130.91 181.33 131.32 181.67 131.43C184.24 132.29 186.33 133.68 187.53 136.21C187.61 136.38 187.84 136.57 188 136.57C188.14 136.57 188.36 136.35 188.42 136.18C189.98 131.81 193.18 129.76 197.83 129.61ZM196.7 130.72C200.17 130.52 202.86 132.03 204.44 135.13C206.01 138.22 205.62 141.24 203.48 144C203.15 144.43 202.86 144.7 202.21 144.4C199.21 143.04 196.35 143.39 193.74 145.4C193.22 145.8 192.9 145.77 192.4 145.4C189.46 143.22 188.31 139.4 189.84 135.33C190.92 132.8 193.26 130.93 196.7 130.72ZM219.81 135.93C215.89 134.49 213.81 130.09 215.24 126.23C216.76 122.1 221.13 120.06 225.17 121.6C229.06 123.07 231.05 127.47 229.6 131.38C228.11 135.38 223.79 137.39 219.81 135.93ZM218.85 149.28C215.71 149.91 212.93 149.33 210.48 147.25C210.22 147.03 209.69 146.99 209.34 147.08C208.89 147.19 208.46 147.47 208.07 147.74C207.06 148.45 206.29 149.12 206.68 150.69C207.17 152.66 206.48 154.55 205.36 156.27C205.11 156.65 205.03 157.36 205.21 157.76C206.63 160.82 209.08 162.52 212.46 162.6C215.94 162.68 218.49 161 220.02 157.89C221.39 155.12 220.9 151.71 218.85 149.28ZM214.11 131.13C213.45 128.85 213.74 126.42 215.09 124.15C214.12 123.47 213.08 122.94 212.3 122.14C211.43 121.26 210.83 120.12 210.07 119.13C209.83 118.82 209.44 118.48 209.1 118.44C205.86 118.12 203.21 119.32 201.46 122.01C199.66 124.78 199.72 127.78 201.37 130.64C203 133.46 205.5 134.8 208.77 134.63C209.11 134.61 209.48 134.45 209.77 134.25C211.16 133.28 212.54 132.26 214.11 131.13ZM224.21 137.31C220.37 137.71 217.09 136.71 214.54 132.49C211.79 133.26 209.89 134.96 208.92 137.67C207.88 140.57 208.38 143.27 210.34 145.6C212.91 148.65 217.11 149.42 220.39 147.52C220.74 147.32 221.08 146.85 221.14 146.46C221.5 144.34 222.53 142.67 224.14 141.28C224.45 141.02 224.69 140.48 224.67 140.09C224.62 139.17 224.38 138.27 224.21 137.31ZM185.7 99.45C187.48 95.1 192.4 92.92 196.84 94.52C200.91 95.98 203.54 100.49 202.46 104.16C195.51 102.84 192.7 104.13 189.3 110.24C185.73 108.52 184.06 103.49 185.7 99.45ZM219.54 105.53C219.32 106.1 219.03 106.32 218.41 106.32C215.62 106.32 213.28 107.41 211.48 109.52C211.02 110.07 210.64 110.06 210.06 109.85C206.22 108.46 204.24 104.21 205.64 100.31C207 96.51 211.25 94.54 215.09 95.92C219 97.33 221.03 101.74 219.54 105.53ZM201.14 145.05C204.84 146.39 206.7 150.4 205.35 154.1C204.05 157.66 199.98 159.58 196.46 158.31C192.65 156.92 190.81 153.01 192.19 149.22C193.52 145.56 197.47 143.72 201.14 145.05ZM234.74 153.58C236.02 155.62 236.27 157.8 235.3 160.1C235.2 160.34 235.35 160.82 235.55 161.05C237.7 163.67 241.58 164.2 244.5 162.46C248.36 160.15 249.28 154.94 246.06 151.5C244.01 149.31 240.18 148.26 237.03 150.44C236.74 150.64 236.51 150.96 236.3 151.25C235.8 151.97 235.32 152.72 234.74 153.58ZM251.48 152.32C249.84 152.69 248.26 152.76 247.01 151.09C246.29 150.13 245.06 149.55 244.1 148.75C243.73 148.45 243.3 148.09 243.17 147.67C242.31 144.93 243.44 141.88 245.85 140.23C248.31 138.55 251.51 138.64 253.85 140.47C256.15 142.27 257.04 145.32 256.05 148.07C255.38 149.94 253.41 151.89 251.48 152.32ZM238.88 120.9C242.06 123.36 242.57 128 240 131.12C237.62 134.01 233.16 134.54 230.41 132.24C231.72 128.71 231.13 125.49 228.59 122.61C231.25 119.09 235.65 118.4 238.88 120.9ZM224.3 142.48C227.26 139.69 231.93 140.01 234.59 143.18C236.92 145.95 236.61 150.6 233.97 152.56C230.51 149.98 227.87 150.01 224.35 152.72C221.35 149.92 221.35 145.26 224.3 142.48ZM255.28 161.71C257.71 162.66 260.46 162 262.18 160.08C263.96 158.09 264.29 155.29 263.03 152.95C261.77 150.61 259.22 149.3 256.62 149.73C256.2 149.8 255.73 150.08 255.45 150.41C254.61 151.42 253.77 152.36 252.46 152.78C252.17 152.87 251.88 153.25 251.76 153.56C250.47 157.07 252.24 160.56 255.28 161.71ZM228.71 139.49C233.66 139.81 236.49 142.36 237.23 147.17C240.57 146.82 243.24 143.29 242.89 139.68C242.65 137.18 241.42 135.28 239.21 134.08C238.83 133.87 238.19 133.86 237.78 134.03C236.11 134.72 234.43 134.84 232.67 134.5C232.24 134.42 231.64 134.56 231.29 134.82C229.78 135.96 229.06 137.58 228.71 139.49ZM267.73 158.24C264.7 157.14 263.17 153.81 264.32 150.79C265.45 147.83 268.74 146.36 271.73 147.48C274.62 148.56 276.1 151.88 275 154.82C273.9 157.75 270.63 159.3 267.73 158.24ZM223.93 155.45C222.89 158.34 224.4 161.57 227.28 162.62C230.22 163.7 233.49 162.17 234.54 159.25C235.6 156.27 234.12 153.1 231.15 152.01C228.23 150.94 224.99 152.49 223.93 155.45ZM173.18 133.16C175.02 131.55 177.21 130.79 179.78 130.73C179.02 127.77 179.42 125.02 181.02 122.35C180.4 122.3 179.87 122.36 179.42 122.19C177.87 121.63 176.35 120.96 174.81 120.39C174.43 120.25 173.86 120.11 173.57 120.29C169.09 123.07 168.87 130.09 173.18 133.16ZM136.92 109.09C136.64 109.81 136.33 110.62 136.04 111.35C139.56 111.38 142.98 110.22 146.36 108.75C149.46 107.4 152.57 106.07 155.82 105.5C160.77 104.64 164.53 106.09 166.67 110.63C166.87 111.06 167.1 111.32 167.43 111.43H168.23C167.54 109.63 166.6 108.05 165.3 106.73C164.02 105.43 162.35 104.81 160.69 104.13C166.26 101.75 171.61 101.14 176.75 103.46L176.76 103.4C176.65 103.11 176.5 102.9 176.28 102.8C172.59 101.14 168.63 100.98 164.46 102.07C161.24 102.91 158.02 103.78 154.8 104.64C153.97 104.86 153.12 105.01 152.3 105.31C149.35 106.41 146.42 107.61 143.46 108.66C141.85 109.23 140.19 109.56 138.55 110C140.76 108.59 142.6 106.92 144.15 105.04C143.71 105.14 143.25 105.24 142.79 105.35C142.15 106.01 141.46 106.64 140.72 107.24C139.6 108.14 138.28 108.76 136.92 109.09Z" fill="#F53756"/>
</svg>
